SplineFontDB: 3.0
FontName: DL_Icons
FullName: dotLogic
FamilyName: DL_Icons
Weight: Book
Copyright: Copyright (c) 2018, maria
Version: 2.0
ItalicAngle: 0
UnderlinePosition: -1000
UnderlineWidth: 50
Ascent: 800
Descent: 200
InvalidEm: 0
sfntRevision: 0x00020000
LayerCount: 2
Layer: 0 1 "Back" 1
Layer: 1 1 "Fore" 0
XUID: [1021 424 -259073328 24029]
StyleMap: 0x0000
FSType: 0
OS2Version: 4
OS2_WeightWidthSlopeOnly: 0
OS2_UseTypoMetrics: 1
CreationTime: 1516105225
ModificationTime: 1561129164
PfmFamily: 17
TTFWeight: 400
TTFWidth: 5
LineGap: 90
VLineGap: 0
Panose: 2 0 5 3 0 0 0 0 0 0
OS2TypoAscent: 800
OS2TypoAOffset: 0
OS2TypoDescent: -200
OS2TypoDOffset: 0
OS2TypoLinegap: 90
OS2WinAscent: 936
OS2WinAOffset: 0
OS2WinDescent: 203
OS2WinDOffset: 0
HheadAscent: 936
HheadAOffset: 0
HheadDescent: -203
HheadDOffset: 0
OS2SubXSize: 650
OS2SubYSize: 699
OS2SubXOff: 0
OS2SubYOff: 140
OS2SupXSize: 650
OS2SupYSize: 699
OS2SupXOff: 0
OS2SupYOff: 479
OS2StrikeYSize: 49
OS2StrikeYPos: 258
OS2Vendor: 'PfEd'
OS2CodePages: 80000001.00000000
OS2UnicodeRanges: 00000000.10000000.00000000.00000000
MarkAttachClasses: 1
DEI: 91125
ShortTable: cvt  2
  33
  633
EndShort
ShortTable: maxp 16
  1
  0
  170
  421
  16
  0
  0
  2
  0
  1
  1
  0
  64
  46
  0
  0
EndShort
LangName: 1033 "" "" "Regular" "FontForge : dotLogic : 29-1-2018"
GaspTable: 1 65535 2 0
Encoding: UnicodeBmp
UnicodeInterp: none
NameList: AGL For New Fonts
DisplaySize: -48
AntiAlias: 1
FitToEm: 0
WinInfo: 61152 39 14
BeginChars: 65539 172

StartChar: .notdef
Encoding: 65536 -1 0
Width: 364
Flags: W
LayerCount: 2
Fore
SplineSet
33 0 m 1,0,-1
 33 666 l 1,1,-1
 298 666 l 1,2,-1
 298 0 l 1,3,-1
 33 0 l 1,0,-1
66 33 m 1,4,-1
 265 33 l 1,5,-1
 265 633 l 1,6,-1
 66 633 l 1,7,-1
 66 33 l 1,4,-1
EndSplineSet
EndChar

StartChar: cardio
Encoding: 61440 61440 3
Width: 1000
GlyphClass: 2
Flags: W
LayerCount: 2
Fore
SplineSet
942 609 m 0,0,1
 948 508 948 508 851 367 c 0,2,3
 781 264 781 264 599 93 c 2,4,5
 599 93 599 93 545 42 c 2,6,-1
 503 1 l 1,7,-1
 461 42 l 1,8,9
 461 42 461 42 407 93 c 0,10,11
 229 259 229 259 155 367 c 0,12,13
 59 510 59 510 65 609 c 0,14,15
 69 682 69 682 136 740 c 128,-1,16
 203 798 203 798 283 799 c 0,17,18
 374 799 374 799 503 667 c 1,19,20
 632 799 632 799 723 799 c 0,21,22
 803 799 803 799 870.5 740.5 c 128,-1,23
 938 682 938 682 942 609 c 0,0,1
785 412 m 0,24,25
 866 531 866 531 861 605 c 0,26,27
 859 646 859 646 814.5 682 c 128,-1,28
 770 718 770 718 723 718 c 0,29,30
 688 718 688 718 632.5 674 c 128,-1,31
 577 630 577 630 534 581 c 2,32,-1
 503 545 l 1,33,-1
 472 581 l 2,34,35
 429 630 429 630 373.5 674 c 128,-1,36
 318 718 318 718 283 718 c 0,37,38
 236 718 236 718 191.5 682 c 128,-1,39
 147 646 147 646 145 605 c 0,40,41
 140 532 140 532 221 413 c 0,42,43
 286 317 286 317 462 152 c 0,44,45
 463 151 463 151 503 114 c 1,46,-1
 503 114 l 1,47,48
 524 132 524 132 544 152 c 0,49,50
 600 204 600 204 633 236.5 c 128,-1,51
 666 269 666 269 710.5 318.5 c 128,-1,52
 755 368 755 368 785 412 c 0,24,25
EndSplineSet
EndChar

StartChar: gastro
Encoding: 61441 61441 4
Width: 1000
GlyphClass: 2
Flags: W
LayerCount: 2
Fore
SplineSet
415 -8 m 0,0,1
 396 -8 396 -8 381.5 6.5 c 128,-1,2
 367 21 367 21 366 40 c 0,3,4
 366 57 366 57 366.5 75 c 128,-1,5
 367 93 367 93 372.5 136 c 128,-1,6
 378 179 378 179 388 214 c 128,-1,7
 398 249 398 249 419 287 c 128,-1,8
 440 325 440 325 469 345 c 0,9,10
 490 360 490 360 525 359.5 c 128,-1,11
 560 359 560 359 595.5 349 c 128,-1,12
 631 339 631 339 697 317 c 0,13,14
 815 277 815 277 832 280 c 0,15,16
 842 284 842 284 854.5 318 c 128,-1,17
 867 352 867 352 870 390 c 2,18,-1
 870 392 l 1,19,20
 886 522 886 522 880 597 c 1,21,-1
 878 605 l 1,22,23
 875 681 875 681 862 706 c 1,24,25
 803 695 803 695 727 615 c 0,26,27
 696 582 696 582 644.5 560.5 c 128,-1,28
 593 539 593 539 548 540 c 0,29,30
 430 542 430 542 362 578 c 0,31,32
 325 599 325 599 279 649 c 0,33,34
 249 680 249 680 231.5 693 c 128,-1,35
 214 706 214 706 192 706 c 0,36,37
 177 705 177 705 150 675 c 128,-1,38
 123 645 123 645 117 615 c 0,39,40
 113 591 113 591 113.5 479.5 c 128,-1,41
 114 368 114 368 118 245 c 0,42,43
 119 225 119 225 105 210 c 128,-1,44
 91 195 91 195 71 194 c 0,45,46
 51 194 51 194 36 208 c 128,-1,47
 21 222 21 222 20 242 c 0,48,49
 17 309 17 309 15.5 440 c 128,-1,50
 14 571 14 571 20 634 c 1,51,52
 33 695 33 695 85 750 c 128,-1,53
 137 805 137 805 192 805 c 0,54,55
 219 805 219 805 242.5 797.5 c 128,-1,56
 266 790 266 790 287.5 774 c 128,-1,57
 309 758 309 758 320 747.5 c 128,-1,58
 331 737 331 737 352 716 c 0,59,60
 388 676 388 676 409 665 c 0,61,62
 457 640 457 640 551 638 c 0,63,64
 575 637 575 637 607 650.5 c 128,-1,65
 639 664 639 664 655 682 c 0,66,67
 764 797 764 797 863 805 c 0,68,69
 898 808 898 808 922 785 c 0,70,71
 969 745 969 745 978 611 c 1,72,-1
 978 605 l 1,73,74
 984 512 984 512 966 381 c 0,75,76
 966 367 966 367 963 350 c 128,-1,77
 960 333 960 333 952 304 c 128,-1,78
 944 275 944 275 932 252 c 128,-1,79
 920 229 920 229 898.5 209.5 c 128,-1,80
 877 190 877 190 850 185 c 0,81,82
 822 179 822 179 782 188.5 c 128,-1,83
 742 198 742 198 665 224 c 0,84,85
 549 264 549 264 522 263 c 1,86,87
 493 238 493 238 478 171 c 128,-1,88
 463 104 463 104 464 42 c 0,89,90
 465 21 465 21 451 6.5 c 128,-1,91
 437 -8 437 -8 415 -8 c 0,0,1
EndSplineSet
EndChar

StartChar: pneumo
Encoding: 61442 61442 5
Width: 1000
GlyphClass: 2
Flags: W
LayerCount: 2
Fore
SplineSet
855 514 m 2,0,1
 868 500 868 500 874.5 475.5 c 128,-1,2
 881 451 881 451 881.5 438.5 c 128,-1,3
 882 426 882 426 882 395 c 2,4,-1
 882 379 l 2,5,6
 882 334 882 334 881 312 c 0,7,8
 881 302 881 302 880.5 281 c 128,-1,9
 880 260 880 260 880 249 c 2,10,-1
 880 247 l 1,11,12
 874 150 874 150 862.5 94.5 c 128,-1,13
 851 39 851 39 844 28.5 c 128,-1,14
 837 18 837 18 826 12 c 0,15,16
 800 -3 800 -3 774 -3 c 0,17,18
 741 -3 741 -3 702 28 c 0,19,20
 689 39 689 39 666.5 57.5 c 128,-1,21
 644 76 644 76 634 85 c 0,22,23
 630 87 630 87 624 93 c 0,24,25
 589 122 589 122 569 146 c 0,26,27
 540 180 540 180 547 243 c 0,28,29
 547 247 547 247 547.5 255 c 128,-1,30
 548 263 548 263 548 266 c 2,31,-1
 548 480 l 2,32,33
 548 496 548 496 547 504 c 0,34,35
 545 541 545 541 549 562 c 1,36,37
 523 582 523 582 511 582 c 0,38,39
 499 579 499 579 475 557 c 1,40,41
 478 537 478 537 476 504 c 0,42,43
 476 499 476 499 475.5 491.5 c 128,-1,44
 475 484 475 484 475 480 c 2,45,-1
 475 266 l 2,46,47
 475 251 475 251 476 243 c 0,48,49
 477 227 477 227 477.5 212 c 128,-1,50
 478 197 478 197 472 179 c 128,-1,51
 466 161 466 161 454 146 c 0,52,53
 434 122 434 122 399 93 c 0,54,55
 395 91 395 91 389 85 c 0,56,57
 366 65 366 65 321 28 c 0,58,59
 282 -3 282 -3 249 -3 c 0,60,61
 224 -3 224 -3 197 12 c 0,62,63
 186 18 186 18 179 28.5 c 128,-1,64
 172 39 172 39 160.5 94.5 c 128,-1,65
 149 150 149 150 143 247 c 1,66,-1
 143 249 l 2,67,68
 143 291 143 291 142 312 c 0,69,70
 142 323 142 323 141.5 345 c 128,-1,71
 141 367 141 367 141 379 c 2,72,-1
 141 395 l 2,73,74
 139 482 139 482 168 513 c 0,75,76
 285 639 285 639 286 640 c 0,77,78
 327 684 327 684 381 661 c 0,79,80
 403 652 403 652 440 620 c 1,81,82
 453 632 453 632 468 640 c 1,83,-1
 467 777 l 2,84,85
 467 791 467 791 477.5 801.5 c 128,-1,86
 488 812 488 812 502 812 c 128,-1,87
 516 812 516 812 526.5 801.5 c 128,-1,88
 537 791 537 791 537 777 c 2,89,-1
 537 648 l 1,90,91
 555 643 555 643 585 623 c 1,92,93
 620 653 620 653 641 662 c 0,94,95
 697 684 697 684 737 641 c 2,96,-1
 855 514 l 2,0,1
400 190 m 0,97,98
 408 200 408 200 408 235 c 0,99,100
 406 253 406 253 406 264 c 2,101,-1
 406 476 l 1,102,103
 386 450 386 450 377 437 c 0,104,105
 366 422 366 422 348 422 c 0,106,107
 337 422 337 422 328 428 c 0,108,109
 316 436 316 436 313.5 450.5 c 128,-1,110
 311 465 311 465 319 477 c 0,111,112
 361 536 361 536 391 569 c 1,113,114
 373 584 373 584 362.5 590.5 c 128,-1,115
 352 597 352 597 347.5 596.5 c 128,-1,116
 343 596 343 596 339 591 c 2,117,-1
 221 464 l 2,118,119
 210 452 210 452 213 396 c 2,120,-1
 213 378 l 2,121,122
 213 334 213 334 214 313 c 0,123,124
 214 303 214 303 214.5 281.5 c 128,-1,125
 215 260 215 260 215 249 c 0,126,127
 223 107 223 107 239 69 c 1,128,129
 248 64 248 64 255 66.5 c 128,-1,130
 262 69 262 69 278 82 c 0,131,132
 325 120 325 120 344 137 c 0,133,134
 346 138 346 138 349 141 c 128,-1,135
 352 144 352 144 354 146 c 0,136,137
 387 174 387 174 400 190 c 0,97,98
811 398 m 2,138,139
 811 458 811 458 806 466 c 2,140,-1
 747 529 l 2,141,142
 688 592 688 592 688 593 c 0,143,144
 683 598 683 598 678 598 c 0,145,146
 668 598 668 598 643 577 c 1,147,148
 644 576 644 576 648 573 c 128,-1,149
 652 570 652 570 653 568 c 0,150,151
 666 556 666 556 679 542.5 c 128,-1,152
 692 529 692 529 701.5 518.5 c 128,-1,153
 711 508 711 508 719 499.5 c 128,-1,154
 727 491 727 491 732 486 c 2,155,-1
 737 480 l 2,156,157
 747 469 747 469 745.5 454.5 c 128,-1,158
 744 440 744 440 733 430 c 128,-1,159
 722 420 722 420 707.5 421.5 c 128,-1,160
 693 423 693 423 683 434 c 0,161,162
 655 466 655 466 619 502 c 1,163,164
 620 495 620 495 620 481 c 2,165,-1
 620 267 l 2,166,167
 620 256 620 256 618 238 c 0,168,169
 615 203 615 203 624 192 c 0,170,171
 634 180 634 180 670 148 c 0,172,173
 672 146 672 146 675 143 c 128,-1,174
 678 140 678 140 680 139 c 0,175,176
 699 122 699 122 746 84 c 0,177,178
 762 71 762 71 769 68.5 c 128,-1,179
 776 66 776 66 785 71 c 1,180,181
 801 114 801 114 809 251 c 0,182,183
 809 294 809 294 810 315 c 0,184,185
 810 325 810 325 810.5 347 c 128,-1,186
 811 369 811 369 811 380 c 2,187,-1
 811 398 l 2,138,139
EndSplineSet
EndChar

StartChar: anexo
Encoding: 61443 61443 6
Width: 1000
GlyphClass: 2
Flags: W
LayerCount: 2
Fore
SplineSet
508 -1 m 0,0,1
 448 -1 448 -1 405 41.5 c 128,-1,2
 362 84 362 84 362 145 c 2,3,-1
 362 659 l 1,4,-1
 362 667 l 2,5,6
 362 699 362 699 363 715 c 128,-1,7
 364 731 364 731 370 751.5 c 128,-1,8
 376 772 376 772 388 784 c 0,9,10
 409 805 409 805 448 805 c 2,11,-1
 509 805 l 2,12,13
 548 805 548 805 569 784 c 0,14,15
 586 767 586 767 590.5 740.5 c 128,-1,16
 595 714 595 714 595 667 c 2,17,-1
 595 659 l 1,18,-1
 595 206 l 1,19,-1
 595 205 l 2,20,21
 595 192 595 192 582 173 c 0,22,23
 561 141 561 141 517 141 c 128,-1,24
 473 141 473 141 454 174 c 0,25,26
 444 192 444 192 444 207 c 2,27,-1
 444 656 l 1,28,-1
 480 656 l 1,29,-1
 480 208 l 2,30,31
 480 201 480 201 485 191 c 0,32,33
 493 177 493 177 516 177 c 0,34,35
 541 177 541 177 551 193 c 0,36,37
 554 197 554 197 558 209 c 1,38,-1
 558 659 l 1,39,40
 558 659 558 659 558 668 c 0,41,42
 558 744 558 744 543 759 c 0,43,44
 533 769 533 769 509 769 c 2,45,-1
 448 769 l 2,46,47
 424 769 424 769 414 759 c 0,48,49
 399 744 399 744 399 668 c 2,50,51
 399 668 399 668 399 659 c 2,52,-1
 399 145 l 2,53,54
 399 100 399 100 431 67.5 c 128,-1,55
 463 35 463 35 509 35 c 128,-1,56
 555 35 555 35 587 67 c 128,-1,57
 619 99 619 99 619 145 c 2,58,-1
 619 635 l 1,59,-1
 655 635 l 1,60,-1
 655 145 l 2,61,62
 654 84 654 84 611.5 41.5 c 128,-1,63
 569 -1 569 -1 508 -1 c 0,0,1
508 35 m 1024,64,-1
508 178 m 2,65,-1
 514 178 l 2,66,67
 511 176 511 176 508 178 c 2,65,-1
EndSplineSet
EndChar

StartChar: lupa
Encoding: 61444 61444 7
Width: 1200
GlyphClass: 2
Flags: W
LayerCount: 2
Fore
SplineSet
541.5 769 m 128,-1,1
 604 769 604 769 660.5 744.5 c 128,-1,2
 717 720 717 720 758 679.5 c 128,-1,3
 799 639 799 639 823.5 582 c 128,-1,4
 848 525 848 525 848 462 c 1,5,-1
 847 461 l 1,6,-1
 848 458 l 1,7,8
 848 370 848 370 799 294 c 1,9,-1
 971 123 l 2,10,11
 986 107 986 107 985.5 95.5 c 128,-1,12
 985 84 985 84 971 69 c 2,13,-1
 934 32 l 2,14,15
 918 20 918 20 905 20 c 128,-1,16
 892 20 892 20 881 32 c 2,17,-1
 709 204 l 1,18,19
 634 155 634 155 546 155 c 1,20,-1
 542 156 l 1,21,-1
 541 155 l 1,22,23
 479 155 479 155 422 179.5 c 128,-1,24
 365 204 365 204 324 245 c 128,-1,25
 283 286 283 286 258.5 343 c 128,-1,26
 234 400 234 400 234 462.5 c 128,-1,27
 234 525 234 525 258.5 582 c 128,-1,28
 283 639 283 639 324 679.5 c 128,-1,29
 365 720 365 720 422 744.5 c 128,-1,0
 479 769 479 769 541.5 769 c 128,-1,1
541 664 m 128,-1,31
 486 664 486 664 440 637 c 128,-1,32
 394 610 394 610 367 563.5 c 128,-1,33
 340 517 340 517 340 462 c 128,-1,34
 340 407 340 407 367 361 c 128,-1,35
 394 315 394 315 440 288 c 128,-1,36
 486 261 486 261 541 261 c 128,-1,37
 596 261 596 261 642.5 288 c 128,-1,38
 689 315 689 315 715.5 361 c 128,-1,39
 742 407 742 407 742 462 c 128,-1,40
 742 517 742 517 715.5 563.5 c 128,-1,41
 689 610 689 610 642.5 637 c 128,-1,30
 596 664 596 664 541 664 c 128,-1,31
EndSplineSet
EndChar

StartChar: print
Encoding: 61445 61445 8
Width: 1200
GlyphClass: 2
Flags: W
LayerCount: 2
Fore
SplineSet
750 801 m 2,0,-1
 450 801 l 2,1,2
 443 801 443 801 437.5 796 c 128,-1,3
 432 791 432 791 431 784 c 2,4,-1
 379 581 l 2,5,6
 374 565 374 565 383 551 c 2,7,-1
 422 478 l 2,8,9
 426 472 426 472 433.5 467.5 c 128,-1,10
 441 463 441 463 448 464 c 2,11,-1
 752 464 l 2,12,13
 759 464 759 464 766.5 468 c 128,-1,14
 774 472 774 472 778 478 c 2,15,-1
 820 551 l 2,16,17
 829 565 829 565 825 581 c 2,18,-1
 769 784 l 2,19,20
 768 791 768 791 762.5 796 c 128,-1,21
 757 801 757 801 750 801 c 2,0,-1
988 531 m 2,22,-1
 887 531 l 2,23,24
 880 531 880 531 872.5 526.5 c 128,-1,25
 865 522 865 522 863 516 c 2,26,-1
 810 411 l 2,27,28
 807 405 807 405 799.5 400.5 c 128,-1,29
 792 396 792 396 786 396 c 2,30,-1
 414 396 l 2,31,32
 408 396 408 396 400.5 400.5 c 128,-1,33
 393 405 393 405 390 411 c 2,34,-1
 337 516 l 2,35,36
 335 522 335 522 327.5 526.5 c 128,-1,37
 320 531 320 531 313 531 c 2,38,-1
 212 531 l 2,39,40
 205 531 205 531 200 526 c 128,-1,41
 195 521 195 521 195 514 c 2,42,-1
 195 75 l 2,43,44
 195 69 195 69 200 63.5 c 128,-1,45
 205 58 205 58 212 58 c 2,46,-1
 313 58 l 2,47,48
 320 58 320 58 325 63.5 c 128,-1,49
 330 69 330 69 330 75 c 2,50,-1
 330 177 l 2,51,52
 330 183 330 183 335 188.5 c 128,-1,53
 340 194 340 194 347 194 c 2,54,-1
 853 194 l 2,55,56
 860 194 860 194 865 188.5 c 128,-1,57
 870 183 870 183 870 177 c 2,58,-1
 870 75 l 2,59,60
 870 69 870 69 875 63.5 c 128,-1,61
 880 58 880 58 887 58 c 2,62,-1
 988 58 l 2,63,64
 995 58 995 58 1000 63.5 c 128,-1,65
 1005 69 1005 69 1005 75 c 2,66,-1
 1005 514 l 2,67,68
 1005 521 1005 521 1000 526 c 128,-1,69
 995 531 995 531 988 531 c 2,22,-1
769 126 m 2,70,-1
 431 126 l 2,71,72
 424 126 424 126 418 121.5 c 128,-1,73
 412 117 412 117 410 110 c 2,74,-1
 385 7 l 2,75,76
 383 0 383 0 387 -4.5 c 128,-1,77
 391 -9 391 -9 398 -9 c 2,78,-1
 802 -9 l 2,79,80
 809 -9 809 -9 813 -4.5 c 128,-1,81
 817 0 817 0 815 7 c 2,82,-1
 790 110 l 2,83,84
 788 117 788 117 782 121.5 c 128,-1,85
 776 126 776 126 769 126 c 2,70,-1
EndSplineSet
EndChar

StartChar: ok
Encoding: 61446 61446 9
Width: 1200
GlyphClass: 2
Flags: W
LayerCount: 2
Fore
SplineSet
495 337 m 2,0,-1
 952 793 l 2,1,2
 959 800 959 800 967 800 c 128,-1,3
 975 800 975 800 980 793 c 2,4,-1
 1122 652 l 2,5,6
 1128 646 1128 646 1128 638 c 128,-1,7
 1128 630 1128 630 1122 624 c 2,8,-1
 495 -3 l 2,9,10
 490 -10 490 -10 481.5 -10 c 128,-1,11
 473 -10 473 -10 467 -3 c 2,12,-1
 160 304 l 2,13,14
 154 310 154 310 154 318 c 128,-1,15
 154 326 154 326 160 332 c 2,16,-1
 302 473 l 2,17,18
 307 480 307 480 315 480 c 128,-1,19
 323 480 323 480 330 473 c 2,20,-1
 467 337 l 2,21,22
 472 331 472 331 481 331 c 128,-1,23
 490 331 490 331 495 337 c 2,0,-1
EndSplineSet
EndChar

StartChar: remove
Encoding: 61447 61447 10
Width: 1200
GlyphClass: 2
Flags: W
LayerCount: 2
Fore
SplineSet
858 810 m 2,0,-1
 1010 657 l 2,1,2
 1017 651 1017 651 1016.5 642 c 128,-1,3
 1016 633 1016 633 1010 627 c 2,4,-1
 783 399 l 1,5,-1
 1010 171 l 2,6,7
 1017 165 1017 165 1016.5 156 c 128,-1,8
 1016 147 1016 147 1010 141 c 2,9,-1
 858 -11 l 2,10,11
 852 -18 852 -18 843 -18 c 128,-1,12
 834 -18 834 -18 828 -11 c 2,13,-1
 600 216 l 1,14,-1
 372 -11 l 2,15,16
 366 -18 366 -18 357 -18 c 128,-1,17
 348 -18 348 -18 342 -11 c 2,18,-1
 190 141 l 2,19,20
 183 147 183 147 183.5 156 c 128,-1,21
 184 165 184 165 190 171 c 2,22,-1
 417 399 l 1,23,-1
 190 627 l 2,24,25
 183 633 183 633 183.5 642 c 128,-1,26
 184 651 184 651 190 657 c 2,27,-1
 342 809 l 2,28,29
 348 816 348 816 357 816 c 128,-1,30
 366 816 366 816 372 809 c 2,31,-1
 600 582 l 1,32,-1
 828 810 l 2,33,34
 834 815 834 815 843 815.5 c 128,-1,35
 852 816 852 816 858 810 c 2,0,-1
EndSplineSet
EndChar

StartChar: config
Encoding: 61448 61448 11
Width: 1200
GlyphClass: 2
Flags: W
LayerCount: 2
Fore
SplineSet
600 811 m 0,0,1
 624 811 624 811 653 807 c 1,2,-1
 681 697 l 1,3,-1
 685 697 l 1,4,5
 720 687 720 687 752 669 c 2,6,-1
 756 667 l 1,7,-1
 853 725 l 1,8,9
 897 690 897 690 928 649 c 1,10,-1
 870 552 l 1,11,-1
 872 549 l 2,12,13
 890 517 890 517 901 481 c 1,14,-1
 901 477 l 1,15,-1
 1011 450 l 1,16,17
 1015 419 1015 419 1015 397 c 0,18,19
 1015 372 1015 372 1011 343 c 1,20,-1
 901 316 l 1,21,-1
 901 312 l 1,22,23
 890 276 890 276 872 244 c 2,24,-1
 870 241 l 1,25,-1
 928 144 l 1,26,27
 893 100 893 100 853 68 c 1,28,-1
 756 127 l 1,29,-1
 752 124 l 1,30,31
 721 106 721 106 685 96 c 2,32,-1
 681 95 l 1,33,-1
 653 -14 l 1,34,35
 622 -18 622 -18 600 -18 c 0,36,37
 576 -18 576 -18 547 -14 c 1,38,-1
 519 95 l 1,39,-1
 515 96 l 2,40,41
 480 106 480 106 448 124 c 1,42,-1
 444 127 l 1,43,-1
 347 68 l 1,44,45
 304 103 304 103 272 144 c 1,46,-1
 330 241 l 1,47,-1
 328 244 l 2,48,49
 310 277 310 277 300 312 c 2,50,-1
 299 316 l 1,51,-1
 190 343 l 1,52,53
 185 374 185 374 185 397 c 0,54,55
 185 421 185 421 190 450 c 1,56,-1
 299 477 l 1,57,-1
 300 481 l 2,58,59
 310 516 310 516 328 549 c 2,60,-1
 330 552 l 1,61,-1
 272 649 l 1,62,63
 306 693 306 693 348 725 c 1,64,-1
 444 667 l 1,65,-1
 448 669 l 2,66,67
 480 687 480 687 515 697 c 1,68,-1
 519 697 l 1,69,-1
 547 807 l 1,70,71
 578 811 578 811 600 811 c 0,0,1
600 551 m 128,-1,73
 536 551 536 551 490.5 505.5 c 128,-1,74
 445 460 445 460 445 396.5 c 128,-1,75
 445 333 445 333 490.5 287.5 c 128,-1,76
 536 242 536 242 600 242 c 128,-1,77
 664 242 664 242 709.5 287.5 c 128,-1,78
 755 333 755 333 755 396.5 c 128,-1,79
 755 460 755 460 709.5 505.5 c 128,-1,72
 664 551 664 551 600 551 c 128,-1,73
EndSplineSet
EndChar

StartChar: eliminar
Encoding: 61449 61449 12
Width: 1200
GlyphClass: 2
Flags: W
LayerCount: 2
Fore
SplineSet
521 798 m 2,0,-1
 705 798 l 2,1,2
 730 798 730 798 748.5 780 c 128,-1,3
 767 762 767 762 767 737 c 2,4,-1
 767 675 l 1,5,-1
 935 675 l 2,6,7
 942 675 942 675 946.5 670.5 c 128,-1,8
 951 666 951 666 951 660 c 2,9,-1
 951 614 l 1,10,-1
 275 614 l 1,11,-1
 275 660 l 2,12,13
 275 666 275 666 279.5 670.5 c 128,-1,14
 284 675 284 675 291 675 c 2,15,-1
 459 675 l 1,16,-1
 459 737 l 2,17,18
 459 762 459 762 477.5 780 c 128,-1,19
 496 798 496 798 521 798 c 2,0,-1
521 737 m 1,20,-1
 521 675 l 1,21,-1
 705 675 l 1,22,-1
 705 737 l 1,23,-1
 521 737 l 1,20,-1
889 553 m 1,24,-1
 889 61 l 2,25,26
 889 36 889 36 871 18 c 128,-1,27
 853 0 853 0 828 0 c 2,28,-1
 398 0 l 2,29,30
 373 0 373 0 355 18 c 128,-1,31
 337 36 337 36 337 61 c 2,32,-1
 337 553 l 1,33,-1
 889 553 l 1,24,-1
398 491 m 1,34,-1
 398 61 l 1,35,-1
 459 61 l 1,36,-1
 459 491 l 1,37,-1
 398 491 l 1,34,-1
521 491 m 1,38,-1
 521 61 l 1,39,-1
 582 61 l 1,40,-1
 582 491 l 1,41,-1
 521 491 l 1,38,-1
644 491 m 1,42,-1
 644 61 l 1,43,-1
 705 61 l 1,44,-1
 705 491 l 1,45,-1
 644 491 l 1,42,-1
767 491 m 1,46,-1
 767 61 l 1,47,-1
 828 61 l 1,48,-1
 828 491 l 1,49,-1
 767 491 l 1,46,-1
EndSplineSet
EndChar

StartChar: uniF00A
Encoding: 61450 61450 13
Width: 1200
GlyphClass: 2
Flags: W
LayerCount: 2
Fore
SplineSet
983 768 m 2,0,-1
 1013 737 l 2,1,2
 1014 736 1014 736 1014 734 c 128,-1,3
 1014 732 1014 732 1013 731 c 2,4,-1
 968 685 l 1,5,-1
 1013 640 l 2,6,7
 1014 639 1014 639 1014 637 c 128,-1,8
 1014 635 1014 635 1013 634 c 2,9,-1
 983 603 l 2,10,11
 981 602 981 602 979.5 602 c 128,-1,12
 978 602 978 602 977 603 c 2,13,-1
 931 649 l 1,14,-1
 885 603 l 2,15,16
 884 602 884 602 882.5 602 c 128,-1,17
 881 602 881 602 879 603 c 2,18,-1
 849 634 l 2,19,20
 848 635 848 635 848 637 c 128,-1,21
 848 639 848 639 849 640 c 2,22,-1
 894 685 l 1,23,-1
 849 731 l 2,24,25
 848 732 848 732 848 734 c 128,-1,26
 848 736 848 736 849 737 c 2,27,-1
 879 767 l 2,28,29
 881 769 881 769 882.5 769 c 128,-1,30
 884 769 884 769 885 767 c 2,31,-1
 931 722 l 1,32,-1
 977 768 l 2,33,34
 978 769 978 769 979.5 769 c 128,-1,35
 981 769 981 769 983 768 c 2,0,-1
750 801 m 2,36,-1
 450 801 l 2,37,38
 443 801 443 801 437.5 796 c 128,-1,39
 432 791 432 791 431 784 c 2,40,-1
 379 581 l 2,41,42
 374 565 374 565 383 551 c 2,43,-1
 422 478 l 2,44,45
 426 472 426 472 433.5 467.5 c 128,-1,46
 441 463 441 463 448 464 c 2,47,-1
 752 464 l 2,48,49
 759 464 759 464 766.5 468 c 128,-1,50
 774 472 774 472 778 478 c 2,51,-1
 820 551 l 2,52,53
 829 565 829 565 825 581 c 2,54,-1
 769 784 l 2,55,56
 768 791 768 791 762.5 796 c 128,-1,57
 757 801 757 801 750 801 c 2,36,-1
988 531 m 2,58,-1
 887 531 l 2,59,60
 880 531 880 531 872.5 526.5 c 128,-1,61
 865 522 865 522 863 516 c 2,62,-1
 810 411 l 2,63,64
 807 405 807 405 799.5 400.5 c 128,-1,65
 792 396 792 396 786 396 c 2,66,-1
 414 396 l 2,67,68
 408 396 408 396 400.5 400.5 c 128,-1,69
 393 405 393 405 390 411 c 2,70,-1
 337 516 l 2,71,72
 335 522 335 522 327.5 526.5 c 128,-1,73
 320 531 320 531 313 531 c 2,74,-1
 212 531 l 2,75,76
 205 531 205 531 200 526 c 128,-1,77
 195 521 195 521 195 514 c 2,78,-1
 195 75 l 2,79,80
 195 69 195 69 200 63.5 c 128,-1,81
 205 58 205 58 212 58 c 2,82,-1
 313 58 l 2,83,84
 320 58 320 58 325 63.5 c 128,-1,85
 330 69 330 69 330 75 c 2,86,-1
 330 177 l 2,87,88
 330 183 330 183 335 188.5 c 128,-1,89
 340 194 340 194 347 194 c 2,90,-1
 853 194 l 2,91,92
 860 194 860 194 865 188.5 c 128,-1,93
 870 183 870 183 870 177 c 2,94,-1
 870 75 l 2,95,96
 870 69 870 69 875 63.5 c 128,-1,97
 880 58 880 58 887 58 c 2,98,-1
 988 58 l 2,99,100
 995 58 995 58 1000 63.5 c 128,-1,101
 1005 69 1005 69 1005 75 c 2,102,-1
 1005 514 l 2,103,104
 1005 521 1005 521 1000 526 c 128,-1,105
 995 531 995 531 988 531 c 2,58,-1
769 126 m 2,106,-1
 431 126 l 2,107,108
 424 126 424 126 418 121.5 c 128,-1,109
 412 117 412 117 410 110 c 2,110,-1
 385 7 l 2,111,112
 383 0 383 0 387 -4.5 c 128,-1,113
 391 -9 391 -9 398 -9 c 2,114,-1
 802 -9 l 2,115,116
 809 -9 809 -9 813 -4.5 c 128,-1,117
 817 0 817 0 815 7 c 2,118,-1
 790 110 l 2,119,120
 788 117 788 117 782 121.5 c 128,-1,121
 776 126 776 126 769 126 c 2,106,-1
EndSplineSet
EndChar

StartChar: uniF00B
Encoding: 61451 61451 14
Width: 1200
GlyphClass: 2
Flags: W
LayerCount: 2
Fore
SplineSet
312 711 m 2,0,-1
 411 810 l 2,1,2
 421 820 421 820 435.5 820 c 128,-1,3
 450 820 450 820 460 810 c 2,4,-1
 514 756 l 1,5,-1
 366 608 l 1,6,-1
 312 661 l 2,7,8
 302 672 302 672 302 686.5 c 128,-1,9
 302 701 302 701 312 711 c 2,0,-1
676 593 m 1,10,-1
 823 740 l 2,11,12
 833 750 833 750 840 747 c 128,-1,13
 847 744 847 744 847 730 c 2,14,-1
 846 310 l 2,15,16
 845 296 845 296 835 286 c 128,-1,17
 825 276 825 276 810 276 c 2,18,-1
 392 275 l 2,19,20
 378 275 378 275 375 282.5 c 128,-1,21
 372 290 372 290 382 299 c 2,22,-1
 527 445 l 1,23,-1
 420 553 l 1,24,-1
 568 702 l 1,25,-1
 676 593 l 1,10,-1
252 205 m 2,26,-1
 952 205 l 2,27,28
 967 205 967 205 977 194.5 c 128,-1,29
 987 184 987 184 987 170 c 2,30,-1
 987 -5 l 1,31,-1
 217 -5 l 1,32,-1
 217 170 l 2,33,34
 217 184 217 184 227.5 194.5 c 128,-1,35
 238 205 238 205 252 205 c 2,26,-1
847 135 m 1,36,-1
 847 100 l 1,37,-1
 917 100 l 1,38,-1
 917 135 l 1,39,-1
 847 135 l 1,36,-1
EndSplineSet
EndChar

StartChar: uniF00C
Encoding: 61452 61452 15
Width: 1200
GlyphClass: 2
Flags: W
LayerCount: 2
Fore
SplineSet
238 801 m 2,0,-1
 1016 801 l 2,1,2
 1029 801 1029 801 1038 792 c 128,-1,3
 1047 783 1047 783 1047 770 c 2,4,-1
 1047 62 l 2,5,6
 1047 49 1047 49 1038 40 c 128,-1,7
 1029 31 1029 31 1016 31 c 2,8,-1
 238 31 l 2,9,10
 226 31 226 31 216.5 40 c 128,-1,11
 207 49 207 49 207 62 c 2,12,-1
 207 770 l 2,13,14
 207 783 207 783 216.5 792 c 128,-1,15
 226 801 226 801 238 801 c 2,0,-1
277 731 m 1,16,-1
 277 215 l 1,17,-1
 450 342 l 1,18,-1
 659 251 l 1,19,-1
 607 360 l 1,20,-1
 812 583 l 1,21,-1
 977 381 l 1,22,-1
 977 731 l 1,23,-1
 277 731 l 1,16,-1
447 650 m 128,-1,25
 486 650 486 650 513 622.5 c 128,-1,26
 540 595 540 595 540 556.5 c 128,-1,27
 540 518 540 518 513 490 c 128,-1,28
 486 462 486 462 447 462 c 128,-1,29
 408 462 408 462 380.5 490 c 128,-1,30
 353 518 353 518 353 556.5 c 128,-1,31
 353 595 353 595 380.5 622.5 c 128,-1,24
 408 650 408 650 447 650 c 128,-1,25
EndSplineSet
EndChar

StartChar: uniF00D
Encoding: 61453 61453 16
Width: 674
GlyphClass: 2
Flags: W
LayerCount: 2
Fore
SplineSet
275 773 m 1,0,1
 301 686 301 686 406 354 c 1,2,3
 421 391 421 391 450 465 c 128,-1,4
 479 539 479 539 494 576 c 1,5,6
 514 538 514 538 581 404 c 1,7,-1
 750 404 l 1,8,-1
 750 304 l 1,9,-1
 519 304 l 1,10,-1
 506 332 l 1,11,12
 432 148 432 148 394 57 c 1,13,14
 372 130 372 130 275 442 c 1,15,16
 254 375 254 375 212.5 242 c 128,-1,17
 171 109 171 109 150 42 c 1,18,19
 122 130 122 130 66 304 c 1,20,-1
 -50 304 l 1,21,-1
 -50 404 l 1,22,-1
 138 404 l 1,23,-1
 147 370 l 1,24,-1
 150 364 l 1,25,26
 165 413 165 413 208 554.5 c 128,-1,27
 251 696 251 696 275 773 c 1,0,1
EndSplineSet
EndChar

StartChar: uniF00E
Encoding: 61454 61454 17
Width: 700
GlyphClass: 2
Flags: W
LayerCount: 2
Fore
SplineSet
516 783 m 128,-1,1
 598 783 598 783 657 724 c 0,2,3
 715 665 715 665 715 583 c 128,-1,4
 715 501 715 501 657 443 c 2,5,-1
 407 199 l 2,6,7
 371 163 371 163 319.5 163 c 128,-1,8
 268 163 268 163 232 199 c 128,-1,9
 196 235 196 235 196 286.5 c 128,-1,10
 196 338 196 338 232 374 c 2,11,-1
 328 471 l 1,12,-1
 397 402 l 1,13,-1
 307 308 l 1,14,-1
 300 305 l 1,15,16
 293 297 293 297 293 286 c 128,-1,17
 293 275 293 275 300 267 c 128,-1,18
 307 259 307 259 319 259 c 128,-1,19
 331 259 331 259 338 267 c 2,20,-1
 588 514 l 2,21,22
 616 544 616 544 616.5 584.5 c 128,-1,23
 617 625 617 625 588 655 c 0,24,25
 559 684 559 684 516.5 684.5 c 128,-1,26
 474 685 474 685 444 655 c 2,27,-1
 166 380 l 2,28,29
 116 328 116 328 115.5 256 c 128,-1,30
 115 184 115 184 166 133 c 0,31,32
 218 81 218 81 291 81 c 128,-1,33
 364 81 364 81 416 133 c 1,34,-1
 425 145 l 1,35,-1
 541 258 l 1,36,-1
 610 189 l 1,37,-1
 485 64 l 2,38,39
 405 -16 405 -16 291 -16 c 128,-1,40
 177 -16 177 -16 97 64 c 128,-1,41
 17 144 17 144 17 258 c 128,-1,42
 17 372 17 372 97 452 c 2,43,-1
 375 724 l 2,44,0
 434 783 434 783 516 783 c 128,-1,1
EndSplineSet
EndChar

StartChar: uniF00F
Encoding: 61455 61455 18
Width: 800
GlyphClass: 2
Flags: W
LayerCount: 2
Fore
SplineSet
0 500 m 128,-1,1
 0 582 0 582 59 641 c 128,-1,2
 118 700 118 700 200 700 c 128,-1,3
 282 700 282 700 341 641 c 128,-1,4
 400 582 400 582 400 500 c 1,5,6
 400 582 400 582 459 641 c 128,-1,7
 518 700 518 700 600 700 c 128,-1,8
 682 700 682 700 741 641 c 128,-1,9
 800 582 800 582 800 500 c 128,-1,10
 800 418 800 418 741 359 c 2,11,-1
 400 19 l 1,12,-1
 59 359 l 2,13,0
 0 418 0 418 0 500 c 128,-1,1
EndSplineSet
EndChar

StartChar: historico
Encoding: 61456 61456 19
Width: 1250
GlyphClass: 2
Flags: W
LayerCount: 2
Fore
SplineSet
1291 406 m 128,-1,1
 1291 308 1291 308 1252.5 218.5 c 128,-1,2
 1214 129 1214 129 1149 64 c 128,-1,3
 1084 -1 1084 -1 994.5 -39.5 c 128,-1,4
 905 -78 905 -78 807 -78 c 0,5,6
 699 -78 699 -78 601 -32 c 128,-1,7
 503 14 503 14 435 97 c 0,8,9
 430 103 430 103 430.5 111 c 128,-1,10
 431 119 431 119 436 124 c 2,11,-1
 522 211 l 2,12,13
 529 216 529 216 538 216 c 0,14,15
 548 215 548 215 552 209 c 0,16,17
 598 149 598 149 665 116 c 128,-1,18
 732 83 732 83 807 83 c 0,19,20
 873 83 873 83 932.5 108.5 c 128,-1,21
 992 134 992 134 1035.5 177.5 c 128,-1,22
 1079 221 1079 221 1104.5 280.5 c 128,-1,23
 1130 340 1130 340 1130 406 c 128,-1,24
 1130 472 1130 472 1104.5 531.5 c 128,-1,25
 1079 591 1079 591 1035.5 634.5 c 128,-1,26
 992 678 992 678 932.5 703.5 c 128,-1,27
 873 729 873 729 807 729 c 0,28,29
 745 729 745 729 688.5 706.5 c 128,-1,30
 632 684 632 684 588 642 c 1,31,-1
 674 555 l 2,32,33
 694 536 694 536 683 512 c 0,34,35
 672 487 672 487 646 487 c 2,36,-1
 363 487 l 2,37,38
 347 487 347 487 335 499 c 128,-1,39
 323 511 323 511 323 527 c 2,40,-1
 323 809 l 2,41,42
 323 836 323 836 348 846 c 0,43,44
 373 857 373 857 392 838 c 2,45,-1
 474 756 l 1,46,47
 541 820 541 820 627.5 855 c 128,-1,48
 714 890 714 890 807 890 c 0,49,50
 905 890 905 890 994.5 851.5 c 128,-1,51
 1084 813 1084 813 1149 748 c 128,-1,52
 1214 683 1214 683 1252.5 593.5 c 128,-1,0
 1291 504 1291 504 1291 406 c 128,-1,1
888 587 m 2,53,-1
 888 305 l 2,54,55
 888 296 888 296 882 290.5 c 128,-1,56
 876 285 876 285 867 285 c 2,57,-1
 666 285 l 2,58,59
 657 285 657 285 651.5 290.5 c 128,-1,60
 646 296 646 296 646 305 c 2,61,-1
 646 346 l 2,62,63
 646 354 646 354 651.5 360 c 128,-1,64
 657 366 657 366 666 366 c 2,65,-1
 807 366 l 1,66,-1
 807 587 l 2,67,68
 807 596 807 596 812.5 602 c 128,-1,69
 818 608 818 608 827 608 c 2,70,-1
 867 608 l 2,71,72
 876 608 876 608 882 602 c 128,-1,73
 888 596 888 596 888 587 c 2,53,-1
EndSplineSet
EndChar

StartChar: editar
Encoding: 61457 61457 20
Width: 1200
GlyphClass: 2
Flags: W
LayerCount: 2
Fore
SplineSet
927 755 m 128,-1,1
 940 755 940 755 950 746 c 2,2,-1
 1057 639 l 2,3,4
 1066 629 1066 629 1066 616 c 128,-1,5
 1066 603 1066 603 1057 593 c 2,6,-1
 988 528 l 1,7,-1
 838 678 l 1,8,-1
 904 745 l 2,9,0
 914 755 914 755 927 755 c 128,-1,1
928 468 m 1,10,-1
 498 38 l 1,11,-1
 348 188 l 1,12,-1
 778 618 l 1,13,-1
 928 468 l 1,10,-1
441 -25 m 1,14,-1
 208 -103 l 1,15,-1
 285 131 l 1,16,-1
 441 -25 l 1,14,-1
EndSplineSet
EndChar

StartChar: adicionar
Encoding: 61458 61458 21
Width: 1200
GlyphClass: 2
Flags: W
LayerCount: 2
Fore
SplineSet
600 805 m 128,-1,1
 682 805 682 805 757 773 c 128,-1,2
 832 741 832 741 886 687 c 128,-1,3
 940 633 940 633 972 558 c 128,-1,4
 1004 483 1004 483 1004 401 c 128,-1,5
 1004 319 1004 319 972 244 c 128,-1,6
 940 169 940 169 886 115 c 128,-1,7
 832 61 832 61 757 29 c 128,-1,8
 682 -3 682 -3 600 -3 c 128,-1,9
 518 -3 518 -3 443 29 c 128,-1,10
 368 61 368 61 314 115 c 128,-1,11
 260 169 260 169 228 244 c 128,-1,12
 196 319 196 319 196 401 c 128,-1,13
 196 483 196 483 228 558 c 128,-1,14
 260 633 260 633 314 687 c 128,-1,15
 368 741 368 741 443 773 c 128,-1,0
 518 805 518 805 600 805 c 128,-1,1
635 611 m 2,16,-1
 565 611 l 2,17,18
 550 611 550 611 540 601 c 128,-1,19
 530 591 530 591 530 576 c 2,20,-1
 530 471 l 1,21,-1
 425 471 l 2,22,23
 410 471 410 471 400 461 c 128,-1,24
 390 451 390 451 390 436 c 2,25,-1
 390 366 l 2,26,27
 390 351 390 351 400 341 c 128,-1,28
 410 331 410 331 425 331 c 2,29,-1
 530 331 l 1,30,-1
 530 226 l 2,31,32
 530 211 530 211 540 201 c 128,-1,33
 550 191 550 191 565 191 c 2,34,-1
 635 191 l 2,35,36
 650 191 650 191 660 201 c 128,-1,37
 670 211 670 211 670 226 c 2,38,-1
 670 331 l 1,39,-1
 775 331 l 2,40,41
 790 331 790 331 800 341 c 128,-1,42
 810 351 810 351 810 366 c 2,43,-1
 810 436 l 2,44,45
 810 451 810 451 800 461 c 128,-1,46
 790 471 790 471 775 471 c 2,47,-1
 670 471 l 1,48,-1
 670 576 l 2,49,50
 670 591 670 591 660 601 c 128,-1,51
 650 611 650 611 635 611 c 2,16,-1
EndSplineSet
EndChar

StartChar: exame
Encoding: 61459 61459 22
Width: 1200
GlyphClass: 2
Flags: W
LayerCount: 2
Fore
SplineSet
238 792 m 2,0,-1
 972 792 l 2,1,2
 980 792 980 792 985 787 c 128,-1,3
 990 782 990 782 990 774 c 2,4,-1
 990 -30 l 2,5,6
 990 -38 990 -38 985 -43 c 128,-1,7
 980 -48 980 -48 972 -48 c 2,8,-1
 238 -48 l 2,9,10
 230 -48 230 -48 225 -43 c 128,-1,11
 220 -38 220 -38 220 -30 c 2,12,-1
 220 774 l 2,13,14
 220 782 220 782 225 787 c 128,-1,15
 230 792 230 792 238 792 c 2,0,-1
902 652 m 2,16,-1
 308 652 l 2,17,18
 300 652 300 652 295 647 c 128,-1,19
 290 642 290 642 290 634 c 2,20,-1
 290 40 l 2,21,22
 290 32 290 32 295 27 c 128,-1,23
 300 22 300 22 308 22 c 2,24,-1
 902 22 l 2,25,26
 910 22 910 22 915 27 c 128,-1,27
 920 32 920 32 920 40 c 2,28,-1
 920 634 l 2,29,30
 920 642 920 642 915 647 c 128,-1,31
 910 652 910 652 902 652 c 2,16,-1
378 582 m 2,32,-1
 412 582 l 2,33,34
 420 582 420 582 425 577 c 128,-1,35
 430 572 430 572 430 564 c 2,36,-1
 430 530 l 2,37,38
 430 522 430 522 425 517 c 128,-1,39
 420 512 420 512 412 512 c 2,40,-1
 378 512 l 2,41,42
 370 512 370 512 365 517 c 128,-1,43
 360 522 360 522 360 530 c 2,44,-1
 360 564 l 2,45,46
 360 572 360 572 365 577 c 128,-1,47
 370 582 370 582 378 582 c 2,32,-1
518 582 m 2,48,-1
 832 582 l 2,49,50
 840 582 840 582 845 577 c 128,-1,51
 850 572 850 572 850 564 c 2,52,-1
 850 530 l 2,53,54
 850 522 850 522 845 517 c 128,-1,55
 840 512 840 512 832 512 c 2,56,-1
 518 512 l 2,57,58
 510 512 510 512 505 517 c 128,-1,59
 500 522 500 522 500 530 c 2,60,-1
 500 564 l 2,61,62
 500 572 500 572 505 577 c 128,-1,63
 510 582 510 582 518 582 c 2,48,-1
378 442 m 2,64,-1
 412 442 l 2,65,66
 420 442 420 442 425 437 c 128,-1,67
 430 432 430 432 430 424 c 2,68,-1
 430 390 l 2,69,70
 430 382 430 382 425 377 c 128,-1,71
 420 372 420 372 412 372 c 2,72,-1
 378 372 l 2,73,74
 370 372 370 372 365 377 c 128,-1,75
 360 382 360 382 360 390 c 2,76,-1
 360 424 l 2,77,78
 360 432 360 432 365 437 c 128,-1,79
 370 442 370 442 378 442 c 2,64,-1
518 442 m 2,80,-1
 832 442 l 2,81,82
 840 442 840 442 845 437 c 128,-1,83
 850 432 850 432 850 424 c 2,84,-1
 850 390 l 2,85,86
 850 382 850 382 845 377 c 128,-1,87
 840 372 840 372 832 372 c 2,88,-1
 518 372 l 2,89,90
 510 372 510 372 505 377 c 128,-1,91
 500 382 500 382 500 390 c 2,92,-1
 500 424 l 2,93,94
 500 432 500 432 505 437 c 128,-1,95
 510 442 510 442 518 442 c 2,80,-1
378 302 m 2,96,-1
 412 302 l 2,97,98
 420 302 420 302 425 297 c 128,-1,99
 430 292 430 292 430 284 c 2,100,-1
 430 250 l 2,101,102
 430 242 430 242 425 237 c 128,-1,103
 420 232 420 232 412 232 c 2,104,-1
 378 232 l 2,105,106
 370 232 370 232 365 237 c 128,-1,107
 360 242 360 242 360 250 c 2,108,-1
 360 284 l 2,109,110
 360 292 360 292 365 297 c 128,-1,111
 370 302 370 302 378 302 c 2,96,-1
518 302 m 2,112,-1
 832 302 l 2,113,114
 840 302 840 302 845 297 c 128,-1,115
 850 292 850 292 850 284 c 2,116,-1
 850 250 l 2,117,118
 850 242 850 242 845 237 c 128,-1,119
 840 232 840 232 832 232 c 2,120,-1
 518 232 l 2,121,122
 510 232 510 232 505 237 c 128,-1,123
 500 242 500 242 500 250 c 2,124,-1
 500 284 l 2,125,126
 500 292 500 292 505 297 c 128,-1,127
 510 302 510 302 518 302 c 2,112,-1
378 162 m 2,128,-1
 412 162 l 2,129,130
 420 162 420 162 425 157 c 128,-1,131
 430 152 430 152 430 144 c 2,132,-1
 430 110 l 2,133,134
 430 102 430 102 425 97 c 128,-1,135
 420 92 420 92 412 92 c 2,136,-1
 378 92 l 2,137,138
 370 92 370 92 365 97 c 128,-1,139
 360 102 360 102 360 110 c 2,140,-1
 360 144 l 2,141,142
 360 152 360 152 365 157 c 128,-1,143
 370 162 370 162 378 162 c 2,128,-1
518 162 m 2,144,-1
 832 162 l 2,145,146
 840 162 840 162 845 157 c 128,-1,147
 850 152 850 152 850 144 c 2,148,-1
 850 110 l 2,149,150
 850 102 850 102 845 97 c 128,-1,151
 840 92 840 92 832 92 c 2,152,-1
 518 92 l 2,153,154
 510 92 510 92 505 97 c 128,-1,155
 500 102 500 102 500 110 c 2,156,-1
 500 144 l 2,157,158
 500 152 500 152 505 157 c 128,-1,159
 510 162 510 162 518 162 c 2,144,-1
EndSplineSet
EndChar

StartChar: plus
Encoding: 61460 61460 23
Width: 1200
GlyphClass: 2
Flags: W
LayerCount: 2
Fore
SplineSet
547 758 m 2,0,-1
 664 758 l 2,1,2
 679 758 679 758 689 748 c 128,-1,3
 699 738 699 738 699 723 c 2,4,-1
 699 478 l 1,5,-1
 956 478 l 2,6,7
 971 478 971 478 981 468 c 0,8,9
 983 466 983 466 985 465 c 128,-1,10
 987 464 987 464 988.5 464 c 128,-1,11
 990 464 990 464 990.5 462.5 c 128,-1,12
 991 461 991 461 991 458 c 2,13,-1
 991 341 l 1,14,15
 983 338 983 338 981 336 c 0,16,17
 971 326 971 326 956 326 c 2,18,-1
 699 326 l 1,19,-1
 699 81 l 2,20,21
 699 66 699 66 689 56 c 128,-1,22
 679 46 679 46 664 46 c 2,23,-1
 547 46 l 2,24,25
 532 46 532 46 522 56 c 128,-1,26
 512 66 512 66 512 81 c 2,27,-1
 512 326 l 1,28,-1
 256 326 l 2,29,30
 241 326 241 326 231 336 c 128,-1,31
 221 346 221 346 221 361 c 2,32,-1
 221 443 l 2,33,34
 221 458 221 458 231 468 c 128,-1,35
 241 478 241 478 256 478 c 2,36,-1
 512 478 l 1,37,-1
 512 723 l 2,38,39
 512 738 512 738 522 748 c 128,-1,40
 532 758 532 758 547 758 c 2,0,-1
EndSplineSet
EndChar

StartChar: backward
Encoding: 61461 61461 24
Width: 1200
GlyphClass: 2
Flags: W
LayerCount: 2
Fore
SplineSet
381 769 m 2,0,-1
 451 769 l 2,1,2
 466 769 466 769 476 759 c 128,-1,3
 486 749 486 749 486 734 c 2,4,-1
 486 427 l 1,5,-1
 811 744 l 2,6,7
 821 754 821 754 828.5 751.5 c 128,-1,8
 836 749 836 749 836 734 c 2,9,-1
 836 34 l 2,10,11
 836 19 836 19 828.5 16.5 c 128,-1,12
 821 14 821 14 811 24 c 2,13,-1
 486 341 l 1,14,-1
 486 34 l 2,15,16
 486 19 486 19 476 9 c 128,-1,17
 466 -1 466 -1 451 -1 c 2,18,-1
 381 -1 l 2,19,20
 366 -1 366 -1 356 9 c 128,-1,21
 346 19 346 19 346 34 c 2,22,-1
 346 734 l 2,23,24
 346 749 346 749 356 759 c 128,-1,25
 366 769 366 769 381 769 c 2,0,-1
EndSplineSet
EndChar

StartChar: left
Encoding: 61462 61462 25
Width: 1200
GlyphClass: 2
Flags: W
LayerCount: 2
Fore
SplineSet
778 634 m 1,0,-1
 531 387 l 1,1,-1
 778 140 l 1,2,-1
 640 1 l 1,3,-1
 253 388 l 1,4,-1
 640 773 l 1,5,-1
 778 634 l 1,0,-1
EndSplineSet
EndChar

StartChar: right
Encoding: 61463 61463 26
Width: 1200
GlyphClass: 2
Flags: W
LayerCount: 2
Fore
SplineSet
952 389 m 1,0,-1
 566 3 l 1,1,-1
 427 142 l 1,2,-1
 674 389 l 1,3,-1
 427 636 l 1,4,-1
 566 775 l 1,5,-1
 952 389 l 1,0,-1
EndSplineSet
EndChar

StartChar: forward
Encoding: 61464 61464 27
Width: 1200
GlyphClass: 2
Flags: W
LayerCount: 2
Fore
SplineSet
801 770 m 2,0,-1
 731 770 l 2,1,2
 716 770 716 770 706 760 c 128,-1,3
 696 750 696 750 696 735 c 2,4,-1
 696 428 l 1,5,-1
 371 746 l 2,6,7
 361 755 361 755 353.5 752.5 c 128,-1,8
 346 750 346 750 346 735 c 2,9,-1
 346 35 l 2,10,11
 346 20 346 20 353.5 17.5 c 128,-1,12
 361 15 361 15 371 24 c 2,13,-1
 696 342 l 1,14,-1
 696 35 l 2,15,16
 696 20 696 20 706 10 c 128,-1,17
 716 0 716 0 731 0 c 2,18,-1
 801 0 l 2,19,20
 816 0 816 0 826 10 c 128,-1,21
 836 20 836 20 836 35 c 2,22,-1
 836 735 l 2,23,24
 836 750 836 750 826 760 c 128,-1,25
 816 770 816 770 801 770 c 2,0,-1
EndSplineSet
EndChar

StartChar: ban
Encoding: 61465 61465 28
Width: 1200
GlyphClass: 2
Flags: W
LayerCount: 2
Fore
SplineSet
600 804 m 128,-1,1
 682 804 682 804 757 772 c 128,-1,2
 832 740 832 740 886 686 c 128,-1,3
 940 632 940 632 972 557 c 128,-1,4
 1004 482 1004 482 1004 400 c 128,-1,5
 1004 318 1004 318 972 243 c 128,-1,6
 940 168 940 168 886 114 c 128,-1,7
 832 60 832 60 757 28 c 128,-1,8
 682 -4 682 -4 600 -4 c 128,-1,9
 518 -4 518 -4 443 28 c 128,-1,10
 368 60 368 60 314 114 c 128,-1,11
 260 168 260 168 228 243 c 128,-1,12
 196 318 196 318 196 400 c 128,-1,13
 196 482 196 482 228 557 c 128,-1,14
 260 632 260 632 314 686 c 128,-1,15
 368 740 368 740 443 772 c 128,-1,0
 518 804 518 804 600 804 c 128,-1,1
600 699 m 0,16,17
 519 699 519 699 450 659 c 128,-1,18
 381 619 381 619 341 550 c 128,-1,19
 301 481 301 481 301 400 c 0,20,21
 301 316 301 316 347 242 c 1,22,-1
 758 653 l 1,23,24
 684 699 684 699 600 699 c 0,16,17
856 553 m 1,25,-1
 447 144 l 1,26,27
 520 101 520 101 600 101 c 0,28,29
 681 101 681 101 750 141 c 128,-1,30
 819 181 819 181 859 250 c 128,-1,31
 899 319 899 319 899 400 c 256,32,33
 899 481 899 481 856 553 c 1,25,-1
EndSplineSet
EndChar

StartChar: uniF01A
Encoding: 61466 61466 29
Width: 1200
GlyphClass: 2
Flags: W
LayerCount: 2
Fore
SplineSet
711 307 m 1,0,1
 711 307 711 307 956 307 c 0,2,3
 971 307 971 307 981 317 c 256,4,5
 991 327 991 327 991 357 c 2,6,-1
 991 431 l 2,7,8
 991 434 991 434 990.5 435.5 c 128,-1,9
 990 437 990 437 988.5 437 c 128,-1,10
 987 437 987 437 985 438 c 128,-1,11
 983 439 983 439 981 441 c 0,12,13
 971 451 971 451 956 451 c 2,14,-1
 256 451 l 2,15,16
 241 451 241 451 231 441 c 128,-1,17
 221 431 221 431 221 416 c 2,18,-1
 221 342 l 2,19,20
 221 327 221 327 231 317 c 128,-1,21
 241 307 241 307 256 307 c 2,22,-1
 501 307 l 1,23,-1
 711 307 l 1,24,25
 711 307 711 307 711 307 c 257,26,27
 711 307 711 307 711 307 c 1,28,-1
 711 307 l 1,29,-1
 711 307 l 1,0,1
EndSplineSet
EndChar

StartChar: uniF01B
Encoding: 61467 61467 30
Width: 600
GlyphClass: 2
Flags: W
LayerCount: 2
Fore
SplineSet
0 700 m 1,0,-1
 200 700 l 1,1,-1
 200 100 l 1,2,-1
 0 100 l 1,3,-1
 0 700 l 1,0,-1
400 700 m 1,4,-1
 600 700 l 1,5,-1
 600 100 l 1,6,-1
 400 100 l 1,7,-1
 400 700 l 1,4,-1
EndSplineSet
EndChar

StartChar: uniF01C
Encoding: 61468 61468 31
Width: 800
GlyphClass: 2
Flags: W
LayerCount: 2
Fore
SplineSet
33 764 m 1,0,-1
 37 764 l 1,1,-1
 40 764 l 1,2,-1
 44 764 l 1,3,-1
 49 764 l 1,4,-1
 749 764 l 2,5,6
 770 764 770 764 784.5 749.5 c 128,-1,7
 799 735 799 735 799 714 c 2,8,-1
 799 214 l 2,9,10
 799 193 799 193 784.5 178.5 c 128,-1,11
 770 164 770 164 749 164 c 2,12,-1
 499 164 l 1,13,-1
 499 64 l 1,14,-1
 599 64 l 2,15,16
 640 64 640 64 669.5 34.5 c 128,-1,17
 699 5 699 5 699 -36 c 1,18,-1
 99 -36 l 1,19,20
 99 5 99 5 128.5 34.5 c 128,-1,21
 158 64 158 64 199 64 c 2,22,-1
 299 64 l 1,23,-1
 299 164 l 1,24,-1
 49 164 l 2,25,26
 28 164 28 164 13.5 178.5 c 128,-1,27
 -1 193 -1 193 -1 214 c 2,28,-1
 -1 714 l 1,29,-1
 -1 716 l 2,30,31
 -1 731 -1 731 9 745.5 c 128,-1,32
 19 760 19 760 33 764 c 1,0,-1
99 664 m 1,33,-1
 99 264 l 1,34,-1
 699 264 l 1,35,-1
 699 664 l 1,36,-1
 99 664 l 1,33,-1
EndSplineSet
EndChar

StartChar: uniF01D
Encoding: 61469 61469 32
Width: 800
GlyphClass: 2
Flags: W
LayerCount: 2
Fore
SplineSet
350 800 m 0,0,1
 376 800 376 800 400 797 c 1,2,-1
 400 400 l 1,3,-1
 103 697 l 1,4,5
 204 800 204 800 350 800 c 0,0,1
500 694 m 1,6,7
 628 675 628 675 714 578 c 128,-1,8
 800 481 800 481 800 350 c 0,9,10
 800 205 800 205 697.5 102.5 c 128,-1,11
 595 0 595 0 450 0 c 0,12,13
 327 0 327 0 228 81 c 1,14,-1
 500 353 l 1,15,-1
 500 694 l 1,6,7
91 562 m 1,16,-1
 328 328 l 1,17,-1
 116 116 l 1,18,19
 62 158 62 158 31 219 c 128,-1,20
 0 280 0 280 0 350 c 0,21,22
 0 474 0 474 91 562 c 1,16,-1
EndSplineSet
EndChar

StartChar: uniF01E
Encoding: 61470 61470 33
Width: 900
GlyphClass: 2
Flags: W
LayerCount: 2
Fore
SplineSet
551 800 m 0,0,1
 583 800 583 800 598 797 c 1,2,-1
 501 700 l 1,3,-1
 501 500 l 1,4,-1
 701 500 l 1,5,-1
 798 597 l 1,6,7
 801 582 801 582 801 550 c 0,8,9
 801 446 801 446 727.5 373 c 128,-1,10
 654 300 654 300 551 300 c 0,11,12
 509 300 509 300 461 319 c 1,13,-1
 173 28 l 2,14,15
 145 0 145 0 101 0 c 128,-1,16
 57 0 57 0 29 28 c 0,17,18
 0 57 0 57 0 100 c 128,-1,19
 0 143 0 143 29 172 c 2,20,-1
 320 459 l 1,21,22
 301 507 301 507 301 550 c 0,23,24
 301 654 301 654 374.5 727 c 128,-1,25
 448 800 448 800 551 800 c 0,0,1
101 150 m 128,-1,27
 80 150 80 150 65.5 135.5 c 128,-1,28
 51 121 51 121 51 100 c 128,-1,29
 51 79 51 79 65.5 64.5 c 128,-1,30
 80 50 80 50 101 50 c 128,-1,31
 122 50 122 50 136.5 64.5 c 128,-1,32
 151 79 151 79 151 100 c 128,-1,33
 151 121 151 121 136.5 135.5 c 128,-1,26
 122 150 122 150 101 150 c 128,-1,27
EndSplineSet
EndChar

StartChar: uniF01F
Encoding: 61471 61471 34
Width: 800
GlyphClass: 2
Flags: W
LayerCount: 2
Fore
SplineSet
75 700 m 2,0,-1
 725 700 l 2,1,2
 756 700 756 700 778 678 c 128,-1,3
 800 656 800 656 800 625 c 2,4,-1
 800 75 l 2,5,6
 800 44 800 44 778 22 c 128,-1,7
 756 0 756 0 725 0 c 2,8,-1
 75 0 l 2,9,10
 44 0 44 0 22 22 c 128,-1,11
 0 44 0 44 0 75 c 2,12,-1
 0 625 l 2,13,14
 0 656 0 656 22 678 c 128,-1,15
 44 700 44 700 75 700 c 2,0,-1
100 600 m 1,16,-1
 100 500 l 1,17,-1
 200 500 l 1,18,-1
 200 600 l 1,19,-1
 100 600 l 1,16,-1
300 600 m 1,20,-1
 300 500 l 1,21,-1
 700 500 l 1,22,-1
 700 600 l 1,23,-1
 300 600 l 1,20,-1
100 400 m 1,24,-1
 100 300 l 1,25,-1
 200 300 l 1,26,-1
 200 400 l 1,27,-1
 100 400 l 1,24,-1
300 400 m 1,28,-1
 300 300 l 1,29,-1
 700 300 l 1,30,-1
 700 400 l 1,31,-1
 300 400 l 1,28,-1
100 200 m 1,32,-1
 100 100 l 1,33,-1
 200 100 l 1,34,-1
 200 200 l 1,35,-1
 100 200 l 1,32,-1
300 200 m 1,36,-1
 300 100 l 1,37,-1
 700 100 l 1,38,-1
 700 200 l 1,39,-1
 300 200 l 1,36,-1
EndSplineSet
EndChar

StartChar: guardar
Encoding: 61472 61472 35
Width: 1200
GlyphClass: 2
Flags: W
LayerCount: 2
Fore
SplineSet
990 647 m 1,0,-1
 990 52 l 2,1,2
 990 37 990 37 980 27 c 128,-1,3
 970 17 970 17 955 17 c 2,4,-1
 850 17 l 1,5,-1
 850 297 l 1,6,-1
 360 297 l 1,7,-1
 360 17 l 1,8,-1
 255 17 l 2,9,10
 240 17 240 17 230 27 c 128,-1,11
 220 37 220 37 220 52 c 2,12,-1
 220 752 l 2,13,14
 220 766 220 766 230 776.5 c 128,-1,15
 240 787 240 787 255 787 c 2,16,-1
 430 787 l 1,17,-1
 430 577 l 1,18,-1
 780 577 l 1,19,-1
 780 787 l 1,20,-1
 850 787 l 1,21,-1
 990 647 l 1,0,-1
710 647 m 1,22,-1
 640 647 l 1,23,-1
 640 787 l 1,24,-1
 710 787 l 1,25,-1
 710 647 l 1,22,-1
EndSplineSet
EndChar

StartChar: grafico
Encoding: 61473 61473 36
Width: 1035
GlyphClass: 2
Flags: W
LayerCount: 2
Fore
SplineSet
547 790 m 2,0,-1
 477 790 l 2,1,2
 448 790 448 790 427.5 769.5 c 128,-1,3
 407 749 407 749 407 720 c 2,4,-1
 407 20 l 1,5,-1
 617 20 l 1,6,-1
 617 720 l 2,7,8
 617 749 617 749 596.5 769.5 c 128,-1,9
 576 790 576 790 547 790 c 2,0,-1
827 580 m 2,10,-1
 757 580 l 2,11,12
 728 580 728 580 707.5 559.5 c 128,-1,13
 687 539 687 539 687 510 c 2,14,-1
 687 20 l 1,15,-1
 897 20 l 1,16,-1
 897 510 l 2,17,18
 897 539 897 539 876.5 559.5 c 128,-1,19
 856 580 856 580 827 580 c 2,10,-1
337 20 m 1,20,-1
 127 20 l 1,21,-1
 127 300 l 2,22,23
 127 329 127 329 147.5 349.5 c 128,-1,24
 168 370 168 370 197 370 c 2,25,-1
 267 370 l 2,26,27
 296 370 296 370 316.5 349.5 c 128,-1,28
 337 329 337 329 337 300 c 2,29,-1
 337 20 l 1,20,-1
EndSplineSet
EndChar

StartChar: adicionar2
Encoding: 61474 61474 37
Width: 942
GlyphClass: 2
Flags: W
LayerCount: 2
Fore
SplineSet
484 -60 m 1,0,1
 326 -55 326 -55 219.5 51.5 c 128,-1,2
 113 158 113 158 108 316 c 1,3,4
 113 474 113 474 219.5 580.5 c 128,-1,5
 326 687 326 687 484 692 c 1,6,7
 642 687 642 687 748.5 580.5 c 128,-1,8
 855 474 855 474 860 316 c 1,9,10
 855 158 855 158 748.5 51.5 c 128,-1,11
 642 -55 642 -55 484 -60 c 1,0,1
484 784 m 1,12,13
 284 780 284 780 152 648 c 128,-1,14
 20 516 20 516 16 316 c 1,15,16
 20 116 20 116 152 -16 c 128,-1,17
 284 -148 284 -148 484 -152 c 1,18,19
 684 -148 684 -148 816 -16 c 128,-1,20
 948 116 948 116 952 316 c 1,21,22
 948 516 948 516 816 648 c 128,-1,23
 684 780 684 780 484 784 c 1,12,13
530 551 m 1,24,-1
 438 551 l 1,25,-1
 438 362 l 1,26,-1
 249 362 l 1,27,-1
 249 270 l 1,28,-1
 438 270 l 1,29,-1
 438 81 l 1,30,-1
 530 81 l 1,31,-1
 530 270 l 1,32,-1
 719 270 l 1,33,-1
 719 362 l 1,34,-1
 530 362 l 1,35,-1
 530 551 l 1,24,-1
EndSplineSet
EndChar

StartChar: datepicker
Encoding: 61475 61475 38
Width: 957
GlyphClass: 2
Flags: W
LayerCount: 2
Fore
SplineSet
185 596 m 2,0,-1
 311 596 l 2,1,2
 324 596 324 596 333.5 587 c 128,-1,3
 343 578 343 578 342 565 c 2,4,-1
 342 439 l 2,5,6
 342 426 342 426 333 416.5 c 128,-1,7
 324 407 324 407 311 408 c 2,8,-1
 185 408 l 2,9,10
 172 408 172 408 162.5 417 c 128,-1,11
 153 426 153 426 154 439 c 2,12,-1
 154 565 l 2,13,14
 154 578 154 578 163 587.5 c 128,-1,15
 172 597 172 597 185 596 c 2,0,-1
437 596 m 2,16,-1
 563 596 l 2,17,18
 576 596 576 596 585.5 587 c 128,-1,19
 595 578 595 578 594 565 c 2,20,-1
 594 439 l 2,21,22
 594 426 594 426 585 416.5 c 128,-1,23
 576 407 576 407 563 408 c 2,24,-1
 437 408 l 2,25,26
 424 408 424 408 414.5 417 c 128,-1,27
 405 426 405 426 406 439 c 2,28,-1
 406 565 l 2,29,30
 406 578 406 578 415 587.5 c 128,-1,31
 424 597 424 597 437 596 c 2,16,-1
689 596 m 2,32,-1
 815 596 l 2,33,34
 828 596 828 596 837.5 587 c 128,-1,35
 847 578 847 578 846 565 c 2,36,-1
 846 439 l 2,37,38
 846 426 846 426 837 416.5 c 128,-1,39
 828 407 828 407 815 408 c 2,40,-1
 689 408 l 2,41,42
 676 408 676 408 666.5 417 c 128,-1,43
 657 426 657 426 658 439 c 2,44,-1
 658 565 l 2,45,46
 658 578 658 578 667 587.5 c 128,-1,47
 676 597 676 597 689 596 c 2,32,-1
185 344 m 2,48,-1
 311 344 l 2,49,50
 324 344 324 344 333.5 335 c 128,-1,51
 343 326 343 326 342 313 c 2,52,-1
 342 187 l 2,53,54
 342 174 342 174 333 164.5 c 128,-1,55
 324 155 324 155 311 156 c 2,56,-1
 185 156 l 2,57,58
 172 156 172 156 162.5 165 c 128,-1,59
 153 174 153 174 154 187 c 2,60,-1
 154 313 l 2,61,62
 154 326 154 326 163 335.5 c 128,-1,63
 172 345 172 345 185 344 c 2,48,-1
437 344 m 2,64,-1
 563 344 l 2,65,66
 576 344 576 344 585.5 335 c 128,-1,67
 595 326 595 326 594 313 c 2,68,-1
 594 187 l 2,69,70
 594 174 594 174 585 164.5 c 128,-1,71
 576 155 576 155 563 156 c 2,72,-1
 437 156 l 2,73,74
 424 156 424 156 414.5 165 c 128,-1,75
 405 174 405 174 406 187 c 2,76,-1
 406 313 l 2,77,78
 406 326 406 326 415 335.5 c 128,-1,79
 424 345 424 345 437 344 c 2,64,-1
689 344 m 2,80,-1
 815 344 l 2,81,82
 828 344 828 344 837.5 335 c 128,-1,83
 847 326 847 326 846 313 c 2,84,-1
 846 187 l 2,85,86
 846 174 846 174 837 164.5 c 128,-1,87
 828 155 828 155 815 156 c 2,88,-1
 689 156 l 2,89,90
 676 156 676 156 666.5 165 c 128,-1,91
 657 174 657 174 658 187 c 2,92,-1
 658 313 l 2,93,94
 658 326 658 326 667 335.5 c 128,-1,95
 676 345 676 345 689 344 c 2,80,-1
185 92 m 2,96,-1
 311 92 l 2,97,98
 324 92 324 92 333.5 83 c 128,-1,99
 343 74 343 74 342 61 c 2,100,-1
 342 -65 l 2,101,102
 342 -78 342 -78 333 -87.5 c 128,-1,103
 324 -97 324 -97 311 -96 c 2,104,-1
 185 -96 l 2,105,106
 172 -96 172 -96 162.5 -87 c 128,-1,107
 153 -78 153 -78 154 -65 c 2,108,-1
 154 61 l 2,109,110
 154 74 154 74 163 83.5 c 128,-1,111
 172 93 172 93 185 92 c 2,96,-1
437 92 m 2,112,-1
 563 92 l 2,113,114
 576 92 576 92 585.5 83 c 128,-1,115
 595 74 595 74 594 61 c 2,116,-1
 594 -65 l 2,117,118
 594 -78 594 -78 585 -87.5 c 128,-1,119
 576 -97 576 -97 563 -96 c 2,120,-1
 437 -96 l 2,121,122
 424 -96 424 -96 414.5 -87 c 128,-1,123
 405 -78 405 -78 406 -65 c 2,124,-1
 406 61 l 2,125,126
 406 74 406 74 415 83.5 c 128,-1,127
 424 93 424 93 437 92 c 2,112,-1
689 92 m 2,128,-1
 815 92 l 2,129,130
 828 92 828 92 837.5 83 c 128,-1,131
 847 74 847 74 846 61 c 2,132,-1
 846 -65 l 2,133,134
 846 -78 846 -78 837 -87.5 c 128,-1,135
 828 -97 828 -97 815 -96 c 2,136,-1
 689 -96 l 2,137,138
 676 -96 676 -96 666.5 -87 c 128,-1,139
 657 -78 657 -78 658 -65 c 2,140,-1
 658 61 l 2,141,142
 658 74 658 74 667 83.5 c 128,-1,143
 676 93 676 93 689 92 c 2,128,-1
EndSplineSet
EndChar

StartChar: baixo
Encoding: 61476 61476 39
Width: 1020
GlyphClass: 2
Flags: W
LayerCount: 2
Fore
SplineSet
168 589 m 2,0,-1
 868 589 l 2,1,2
 897 589 897 589 903 574.5 c 128,-1,3
 909 560 909 560 888 539 c 2,4,-1
 542 194 l 2,5,6
 533 184 533 184 518 184 c 128,-1,7
 503 184 503 184 494 194 c 2,8,-1
 148 539 l 2,9,10
 127 560 127 560 133 574.5 c 128,-1,11
 139 589 139 589 168 589 c 2,0,-1
EndSplineSet
EndChar

StartChar: cima
Encoding: 61477 61477 40
Width: 1020
GlyphClass: 2
Flags: W
LayerCount: 2
Fore
SplineSet
536 604 m 2,0,-1
 882 259 l 2,1,2
 903 238 903 238 897 223.5 c 128,-1,3
 891 209 891 209 862 209 c 2,4,-1
 162 209 l 2,5,6
 133 209 133 209 127 223.5 c 128,-1,7
 121 238 121 238 142 259 c 2,8,-1
 488 604 l 2,9,10
 497 614 497 614 512 614 c 128,-1,11
 527 614 527 614 536 604 c 2,0,-1
EndSplineSet
EndChar

StartChar: standby
Encoding: 61478 61478 41
Width: 870
GlyphClass: 2
Flags: W
LayerCount: 2
Fore
SplineSet
809 254.5 m 128,-1,1
 809 236 809 236 796 223 c 2,2,-1
 482 -90 l 2,3,4
 469 -104 469 -104 451 -104 c 128,-1,5
 433 -104 433 -104 420 -90 c 2,6,-1
 106 223 l 2,7,8
 93 236 93 236 93 254.5 c 128,-1,9
 93 273 93 273 106 286 c 128,-1,10
 119 299 119 299 137 299 c 2,11,-1
 765 299 l 2,12,13
 783 299 783 299 796 286 c 128,-1,0
 809 273 809 273 809 254.5 c 128,-1,1
809 523.5 m 128,-1,15
 809 505 809 505 796 492 c 128,-1,16
 783 479 783 479 765 479 c 2,17,-1
 137 479 l 2,18,19
 119 479 119 479 106 492 c 128,-1,20
 93 505 93 505 93 523.5 c 128,-1,21
 93 542 93 542 106 555 c 2,22,-1
 420 868 l 2,23,24
 433 882 433 882 451 882 c 128,-1,25
 469 882 469 882 482 868 c 2,26,-1
 796 555 l 2,27,14
 809 542 809 542 809 523.5 c 128,-1,15
EndSplineSet
EndChar

StartChar: cardio2
Encoding: 61479 61479 42
Width: 1334
GlyphClass: 2
Flags: W
LayerCount: 2
Fore
SplineSet
1192 330 m 2,0,-1
 1342 330 l 2,1,2
 1339 327 1339 327 1336.5 325 c 128,-1,3
 1334 323 1334 323 1332 321 c 2,4,-1
 1331 320 l 1,5,-1
 1026 26 l 2,6,7
 1017 17 1017 17 1004 17 c 128,-1,8
 991 17 991 17 982 26 c 2,9,-1
 677 320 l 2,10,11
 674 321 674 321 666 330 c 1,12,-1
 847 330 l 2,13,14
 858 330 858 330 866.5 337 c 128,-1,15
 875 344 875 344 878 354 c 2,16,-1
 912 491 l 1,17,-1
 1005 165 l 2,18,19
 1008 155 1008 155 1016.5 148.5 c 128,-1,20
 1025 142 1025 142 1035 142 c 0,21,22
 1046 142 1046 142 1054 148.5 c 128,-1,23
 1062 155 1062 155 1065 165 c 2,24,-1
 1137 402 l 1,25,-1
 1164 347 l 2,26,27
 1173 330 1173 330 1192 330 c 2,0,-1
1443 540 m 0,28,29
 1443 469 1443 469 1393 393 c 1,30,-1
 1212 393 l 1,31,-1
 1157 501 l 2,32,33
 1153 510 1153 510 1144.5 514.5 c 128,-1,34
 1136 519 1136 519 1127 518 c 0,35,36
 1105 516 1105 516 1100 496 c 2,37,-1
 1036 285 l 1,38,-1
 940 621 l 2,39,40
 937 631 937 631 928.5 637.5 c 128,-1,41
 920 644 920 644 909.5 644 c 128,-1,42
 899 644 899 644 890.5 637.5 c 128,-1,43
 882 631 882 631 880 620 c 2,44,-1
 823 393 l 1,45,-1
 615 393 l 1,46,47
 565 469 565 469 565 540 c 0,48,49
 565 648 565 648 627 708.5 c 128,-1,50
 689 769 689 769 799 769 c 0,51,52
 830 769 830 769 861.5 758.5 c 128,-1,53
 893 748 893 748 920 730 c 128,-1,54
 947 712 947 712 966.5 696.5 c 128,-1,55
 986 681 986 681 1004 663 c 1,56,57
 1022 681 1022 681 1041.5 696.5 c 128,-1,58
 1061 712 1061 712 1088 730 c 128,-1,59
 1115 748 1115 748 1146.5 758.5 c 128,-1,60
 1178 769 1178 769 1209 769 c 0,61,62
 1319 769 1319 769 1381 708.5 c 128,-1,63
 1443 648 1443 648 1443 540 c 0,28,29
EndSplineSet
EndChar

StartChar: feminino
Encoding: 61480 61480 43
Width: 1018
GlyphClass: 2
Flags: W
LayerCount: 2
Fore
SplineSet
964 564 m 0,0,1
 964 424 964 424 871 321 c 128,-1,2
 778 218 778 218 641 203 c 1,3,-1
 641 39 l 1,4,-1
 782 39 l 2,5,6
 791 39 791 39 797 33.5 c 128,-1,7
 803 28 803 28 803 19 c 2,8,-1
 803 -21 l 2,9,10
 803 -30 803 -30 797 -35.5 c 128,-1,11
 791 -41 791 -41 782 -41 c 2,12,-1
 641 -41 l 1,13,-1
 641 -182 l 2,14,15
 641 -191 641 -191 635.5 -196.5 c 128,-1,16
 630 -202 630 -202 621 -202 c 2,17,-1
 581 -202 l 2,18,19
 572 -202 572 -202 566.5 -196.5 c 128,-1,20
 561 -191 561 -191 561 -182 c 2,21,-1
 561 -41 l 1,22,-1
 420 -41 l 2,23,24
 411 -41 411 -41 405 -35.5 c 128,-1,25
 399 -30 399 -30 399 -21 c 2,26,-1
 399 19 l 2,27,28
 399 28 399 28 405 33.5 c 128,-1,29
 411 39 411 39 420 39 c 2,30,-1
 561 39 l 1,31,-1
 561 203 l 1,32,33
 466 213 466 213 389.5 268 c 128,-1,34
 313 323 313 323 272.5 409.5 c 128,-1,35
 232 496 232 496 239 593 c 0,36,37
 246 678 246 678 290 750.5 c 128,-1,38
 334 823 334 823 405 868.5 c 128,-1,39
 476 914 476 914 559 924 c 0,40,41
 667 936 667 936 760.5 890 c 128,-1,42
 854 844 854 844 909 756.5 c 128,-1,43
 964 669 964 669 964 564 c 0,0,1
319 563.5 m 128,-1,45
 319 447 319 447 401.5 364 c 128,-1,46
 484 281 484 281 601 281 c 128,-1,47
 718 281 718 281 800.5 364 c 128,-1,48
 883 447 883 447 883 563.5 c 128,-1,49
 883 680 883 680 800.5 763 c 128,-1,50
 718 846 718 846 601 846 c 128,-1,51
 484 846 484 846 401.5 763 c 128,-1,44
 319 680 319 680 319 563.5 c 128,-1,45
EndSplineSet
EndChar

StartChar: masculino
Encoding: 61481 61481 44
Width: 1228
GlyphClass: 2
Flags: W
LayerCount: 2
Fore
SplineSet
1190 838 m 2,0,1
 1206 838 1206 838 1217.5 826.5 c 128,-1,2
 1229 815 1229 815 1229 799 c 2,3,-1
 1229 550 l 2,4,5
 1229 541 1229 541 1223.5 536 c 128,-1,6
 1218 531 1218 531 1210 531 c 2,7,-1
 1171 531 l 2,8,9
 1163 531 1163 531 1157.5 536 c 128,-1,10
 1152 541 1152 541 1152 550 c 2,11,-1
 1152 707 l 1,12,-1
 923 477 l 1,13,14
 998 384 998 384 998 262 c 0,15,16
 998 192 998 192 971 128 c 128,-1,17
 944 64 944 64 897.5 17.5 c 128,-1,18
 851 -29 851 -29 787 -56.5 c 128,-1,19
 723 -84 723 -84 653 -84 c 128,-1,20
 583 -84 583 -84 519 -56.5 c 128,-1,21
 455 -29 455 -29 408.5 17.5 c 128,-1,22
 362 64 362 64 334.5 128 c 128,-1,23
 307 192 307 192 307 262 c 128,-1,24
 307 332 307 332 334.5 396 c 128,-1,25
 362 460 362 460 408.5 506.5 c 128,-1,26
 455 553 455 553 519 580 c 128,-1,27
 583 607 583 607 653 607 c 0,28,29
 775 607 775 607 868 532 c 1,30,-1
 1097 761 l 1,31,-1
 941 761 l 2,32,33
 932 761 932 761 927 766.5 c 128,-1,34
 922 772 922 772 922 780 c 2,35,-1
 922 819 l 2,36,37
 922 827 922 827 927 832.5 c 128,-1,38
 932 838 932 838 941 838 c 2,39,-1
 1190 838 l 2,0,1
653 -7 m 128,-1,41
 764 -7 764 -7 843 72 c 128,-1,42
 922 151 922 151 922 262 c 128,-1,43
 922 373 922 373 843 452 c 128,-1,44
 764 531 764 531 653 531 c 128,-1,45
 542 531 542 531 463 452 c 128,-1,46
 384 373 384 373 384 262 c 128,-1,47
 384 151 384 151 463 72 c 128,-1,40
 542 -7 542 -7 653 -7 c 128,-1,41
EndSplineSet
EndChar

StartChar: uniF02A
Encoding: 61482 61482 45
Width: 800
GlyphClass: 2
Flags: W
LayerCount: 2
Fore
SplineSet
200 800 m 1,0,-1
 300 800 l 1,1,-1
 300 200 l 1,2,-1
 500 200 l 1,3,-1
 250 0 l 1,4,-1
 0 200 l 1,5,-1
 200 200 l 1,6,-1
 200 800 l 1,0,-1
400 800 m 1,7,-1
 800 800 l 1,8,-1
 800 700 l 1,9,-1
 400 700 l 1,10,-1
 400 800 l 1,7,-1
400 600 m 1,11,-1
 700 600 l 1,12,-1
 700 500 l 1,13,-1
 400 500 l 1,14,-1
 400 600 l 1,11,-1
400 400 m 1,15,-1
 600 400 l 1,16,-1
 600 300 l 1,17,-1
 400 300 l 1,18,-1
 400 400 l 1,15,-1
EndSplineSet
EndChar

StartChar: uniF02B
Encoding: 61483 61483 46
Width: 800
GlyphClass: 2
Flags: W
LayerCount: 2
Fore
SplineSet
200 800 m 1,0,-1
 300 800 l 1,1,-1
 300 200 l 1,2,-1
 500 200 l 1,3,-1
 250 0 l 1,4,-1
 0 200 l 1,5,-1
 200 200 l 1,6,-1
 200 800 l 1,0,-1
400 800 m 1,7,-1
 600 800 l 1,8,-1
 600 700 l 1,9,-1
 400 700 l 1,10,-1
 400 800 l 1,7,-1
400 600 m 1,11,-1
 700 600 l 1,12,-1
 700 500 l 1,13,-1
 400 500 l 1,14,-1
 400 600 l 1,11,-1
400 400 m 1,15,-1
 800 400 l 1,16,-1
 800 300 l 1,17,-1
 400 300 l 1,18,-1
 400 400 l 1,15,-1
EndSplineSet
EndChar

StartChar: uniF02C
Encoding: 61484 61484 47
Width: 900
GlyphClass: 2
Flags: W
LayerCount: 2
Fore
SplineSet
350 800 m 128,-1,1
 495 800 495 800 597.5 697.5 c 128,-1,2
 700 595 700 595 700 450 c 0,3,4
 700 362 700 362 656 281 c 1,5,6
 664 277 664 277 669 272 c 2,7,-1
 772 172 l 2,8,9
 784 160 784 160 793 138.5 c 128,-1,10
 802 117 802 117 802 100 c 0,11,12
 802 58 802 58 772 28 c 128,-1,13
 742 -2 742 -2 700 -2 c 0,14,15
 683 -2 683 -2 661.5 7 c 128,-1,16
 640 16 640 16 628 28 c 2,17,-1
 528 131 l 2,18,19
 523 136 523 136 519 144 c 1,20,21
 440 100 440 100 350 100 c 0,22,23
 205 100 205 100 102.5 202.5 c 128,-1,24
 0 305 0 305 0 450 c 128,-1,25
 0 595 0 595 102.5 697.5 c 128,-1,0
 205 800 205 800 350 800 c 128,-1,1
350 700 m 128,-1,27
 246 700 246 700 173 627 c 128,-1,28
 100 554 100 554 100 450 c 128,-1,29
 100 346 100 346 173 273 c 128,-1,30
 246 200 246 200 350 200 c 0,31,32
 442 200 442 200 513 260 c 1,33,34
 527 283 527 283 544 291 c 1,35,-1
 547 294 l 1,36,37
 600 361 600 361 600 450 c 0,38,39
 600 554 600 554 527 627 c 128,-1,26
 454 700 454 700 350 700 c 128,-1,27
300 600 m 1,40,-1
 400 600 l 1,41,-1
 400 500 l 1,42,-1
 500 500 l 1,43,-1
 500 400 l 1,44,-1
 400 400 l 1,45,-1
 400 300 l 1,46,-1
 300 300 l 1,47,-1
 300 400 l 1,48,-1
 200 400 l 1,49,-1
 200 500 l 1,50,-1
 300 500 l 1,51,-1
 300 600 l 1,40,-1
EndSplineSet
EndChar

StartChar: uniF02D
Encoding: 61485 61485 48
Width: 900
GlyphClass: 2
Flags: W
LayerCount: 2
Fore
SplineSet
350 800 m 128,-1,1
 495 800 495 800 597.5 697.5 c 128,-1,2
 700 595 700 595 700 450 c 0,3,4
 700 362 700 362 656 281 c 1,5,6
 664 277 664 277 669 272 c 2,7,-1
 772 172 l 2,8,9
 784 160 784 160 793 138.5 c 128,-1,10
 802 117 802 117 802 100 c 0,11,12
 802 58 802 58 772 28 c 128,-1,13
 742 -2 742 -2 700 -2 c 0,14,15
 683 -2 683 -2 661.5 7 c 128,-1,16
 640 16 640 16 628 28 c 2,17,-1
 528 131 l 2,18,19
 523 136 523 136 519 144 c 1,20,21
 440 100 440 100 350 100 c 0,22,23
 205 100 205 100 102.5 202.5 c 128,-1,24
 0 305 0 305 0 450 c 128,-1,25
 0 595 0 595 102.5 697.5 c 128,-1,0
 205 800 205 800 350 800 c 128,-1,1
350 700 m 128,-1,27
 246 700 246 700 173 627 c 128,-1,28
 100 554 100 554 100 450 c 128,-1,29
 100 346 100 346 173 273 c 128,-1,30
 246 200 246 200 350 200 c 0,31,32
 442 200 442 200 513 260 c 1,33,34
 527 283 527 283 544 291 c 1,35,-1
 547 294 l 1,36,37
 600 361 600 361 600 450 c 0,38,39
 600 554 600 554 527 627 c 128,-1,26
 454 700 454 700 350 700 c 128,-1,27
200 500 m 1,40,-1
 500 500 l 1,41,-1
 500 400 l 1,42,-1
 200 400 l 1,43,-1
 200 500 l 1,40,-1
EndSplineSet
EndChar

StartChar: uniF02E
Encoding: 61486 61486 49
Width: 900
GlyphClass: 2
Flags: W
LayerCount: 2
Fore
SplineSet
350 800 m 128,-1,1
 495 800 495 800 597.5 697.5 c 128,-1,2
 700 595 700 595 700 450 c 0,3,4
 700 364 700 364 656 284 c 1,5,6
 666 278 666 278 672 272 c 2,7,-1
 772 172 l 2,8,9
 784 160 784 160 793 138.5 c 128,-1,10
 802 117 802 117 802 100 c 0,11,12
 802 58 802 58 772 28 c 128,-1,13
 742 -2 742 -2 700 -2 c 0,14,15
 683 -2 683 -2 661.5 7 c 128,-1,16
 640 16 640 16 628 28 c 2,17,-1
 528 128 l 2,18,19
 523 132 523 132 516 141 c 1,20,21
 439 100 439 100 350 100 c 0,22,23
 205 100 205 100 102.5 202.5 c 128,-1,24
 0 305 0 305 0 450 c 128,-1,25
 0 595 0 595 102.5 697.5 c 128,-1,0
 205 800 205 800 350 800 c 128,-1,1
350 200 m 0,26,27
 456 200 456 200 528 272 c 128,-1,28
 600 344 600 344 600 450 c 0,29,30
 600 554 600 554 527 627 c 128,-1,31
 454 700 454 700 350 700 c 128,-1,32
 246 700 246 700 173 627 c 128,-1,33
 100 554 100 554 100 450 c 128,-1,34
 100 346 100 346 173 273 c 128,-1,35
 246 200 246 200 350 200 c 0,26,27
EndSplineSet
EndChar

StartChar: uniF02F
Encoding: 61487 61487 50
Width: 600
GlyphClass: 2
Flags: W
LayerCount: 2
Fore
SplineSet
300 700 m 128,-1,1
 424 700 424 700 512 612 c 128,-1,2
 600 524 600 524 600 400 c 128,-1,3
 600 276 600 276 512 188 c 128,-1,4
 424 100 424 100 300 100 c 128,-1,5
 176 100 176 100 88 188 c 128,-1,6
 0 276 0 276 0 400 c 128,-1,7
 0 524 0 524 88 612 c 128,-1,0
 176 700 176 700 300 700 c 128,-1,1
EndSplineSet
EndChar

StartChar: folder
Encoding: 61488 61488 51
Width: 1021
GlyphClass: 2
Flags: W
LayerCount: 2
Fore
SplineSet
232 542 m 1,0,-1
 121 320 l 1,1,-1
 121 652 l 1,2,-1
 232 652 l 1,3,4
 232 675 232 675 248 691 c 128,-1,5
 264 707 264 707 287 707 c 2,6,-1
 453 707 l 2,7,8
 476 707 476 707 492.5 691 c 128,-1,9
 509 675 509 675 509 652 c 1,10,-1
 785 652 l 1,11,-1
 785 542 l 1,12,-1
 232 542 l 1,0,-1
951 486 m 1,13,-1
 785 99 l 1,14,-1
 121 99 l 1,15,-1
 287 486 l 1,16,-1
 951 486 l 1,13,-1
EndSplineSet
EndChar

StartChar: warning
Encoding: 61489 61489 52
Width: 1000
GlyphClass: 2
Flags: W
LayerCount: 2
Fore
SplineSet
582 155 m 2,0,-1
 582 240 l 2,1,2
 582 246 582 246 577.5 250.5 c 128,-1,3
 573 255 573 255 567 255 c 2,4,-1
 481 255 l 2,5,6
 475 255 475 255 470.5 250.5 c 128,-1,7
 466 246 466 246 466 240 c 2,8,-1
 466 155 l 2,9,10
 466 148 466 148 470.5 144 c 128,-1,11
 475 140 475 140 481 140 c 2,12,-1
 567 140 l 2,13,14
 573 140 573 140 577.5 144 c 128,-1,15
 582 148 582 148 582 155 c 2,0,-1
581 323 m 2,16,-1
 589 530 l 2,17,18
 589 535 589 535 584 538 c 0,19,20
 578 543 578 543 574 543 c 2,21,-1
 474 543 l 2,22,23
 470 543 470 543 464 538 c 0,24,25
 459 535 459 535 459 529 c 2,26,-1
 467 323 l 2,27,28
 467 318 467 318 471.5 315.5 c 128,-1,29
 476 313 476 313 482 313 c 2,30,-1
 565 313 l 2,31,32
 572 313 572 313 576 315.5 c 128,-1,33
 580 318 580 318 581 323 c 2,16,-1
574 743 m 2,34,-1
 920 110 l 2,35,36
 936 81 936 81 919 53 c 0,37,38
 911 40 911 40 898 32.5 c 128,-1,39
 885 25 885 25 870 25 c 2,40,-1
 178 25 l 2,41,42
 163 25 163 25 150 32.5 c 128,-1,43
 137 40 137 40 129 53 c 0,44,45
 112 81 112 81 128 110 c 2,46,-1
 474 743 l 2,47,48
 481 757 481 757 494.5 765 c 128,-1,49
 508 773 508 773 524 773 c 128,-1,50
 540 773 540 773 553.5 765 c 128,-1,51
 567 757 567 757 574 743 c 2,34,-1
EndSplineSet
EndChar

StartChar: info
Encoding: 61490 61490 53
Width: 1200
GlyphClass: 2
Flags: W
LayerCount: 2
Fore
SplineSet
260 787 m 2,0,-1
 960 787 l 2,1,2
 988 787 988 787 1009 766 c 128,-1,3
 1030 745 1030 745 1030 717 c 2,4,-1
 1030 297 l 2,5,6
 1030 268 1030 268 1009 247.5 c 128,-1,7
 988 227 988 227 960 227 c 2,8,-1
 542 227 l 1,9,-1
 330 17 l 1,10,-1
 330 227 l 1,11,-1
 260 227 l 2,12,13
 231 227 231 227 210.5 247.5 c 128,-1,14
 190 268 190 268 190 297 c 2,15,-1
 190 717 l 2,16,17
 190 745 190 745 210.5 766 c 128,-1,18
 231 787 231 787 260 787 c 2,0,-1
EndSplineSet
EndChar

StartChar: uniF033
Encoding: 61491 61491 54
Width: 800
GlyphClass: 2
Flags: W
LayerCount: 2
Fore
SplineSet
0 800 m 1,0,-1
 300 800 l 1,1,-1
 300 400 l 1,2,-1
 700 400 l 1,3,-1
 700 0 l 1,4,-1
 0 0 l 1,5,-1
 0 800 l 1,0,-1
400 800 m 1,6,-1
 700 500 l 1,7,-1
 400 500 l 1,8,-1
 400 800 l 1,6,-1
EndSplineSet
EndChar

StartChar: uniF034
Encoding: 61492 61492 55
Width: 800
GlyphClass: 2
Flags: W
LayerCount: 2
Fore
SplineSet
0 700 m 1,0,-1
 100 700 l 1,1,-1
 100 600 l 1,2,-1
 0 600 l 1,3,-1
 0 700 l 1,0,-1
200 700 m 1,4,-1
 300 700 l 1,5,-1
 300 600 l 1,6,-1
 200 600 l 1,7,-1
 200 700 l 1,4,-1
400 700 m 1,8,-1
 500 700 l 1,9,-1
 500 600 l 1,10,-1
 400 600 l 1,11,-1
 400 700 l 1,8,-1
600 700 m 1,12,-1
 700 700 l 1,13,-1
 700 600 l 1,14,-1
 600 600 l 1,15,-1
 600 700 l 1,12,-1
0 500 m 1,16,-1
 100 500 l 1,17,-1
 100 400 l 1,18,-1
 0 400 l 1,19,-1
 0 500 l 1,16,-1
200 500 m 1,20,-1
 300 500 l 1,21,-1
 300 400 l 1,22,-1
 200 400 l 1,23,-1
 200 500 l 1,20,-1
400 500 m 1,24,-1
 500 500 l 1,25,-1
 500 400 l 1,26,-1
 400 400 l 1,27,-1
 400 500 l 1,24,-1
600 500 m 1,28,-1
 700 500 l 1,29,-1
 700 400 l 1,30,-1
 600 400 l 1,31,-1
 600 500 l 1,28,-1
0 300 m 1,32,-1
 100 300 l 1,33,-1
 100 200 l 1,34,-1
 0 200 l 1,35,-1
 0 300 l 1,32,-1
200 300 m 1,36,-1
 300 300 l 1,37,-1
 300 200 l 1,38,-1
 200 200 l 1,39,-1
 200 300 l 1,36,-1
400 300 m 1,40,-1
 500 300 l 1,41,-1
 500 200 l 1,42,-1
 400 200 l 1,43,-1
 400 300 l 1,40,-1
600 300 m 1,44,-1
 700 300 l 1,45,-1
 700 200 l 1,46,-1
 600 200 l 1,47,-1
 600 300 l 1,44,-1
0 100 m 1,48,-1
 100 100 l 1,49,-1
 100 0 l 1,50,-1
 0 0 l 1,51,-1
 0 100 l 1,48,-1
200 100 m 1,52,-1
 300 100 l 1,53,-1
 300 0 l 1,54,-1
 200 0 l 1,55,-1
 200 100 l 1,52,-1
400 100 m 1,56,-1
 500 100 l 1,57,-1
 500 0 l 1,58,-1
 400 0 l 1,59,-1
 400 100 l 1,56,-1
600 100 m 1,60,-1
 700 100 l 1,61,-1
 700 0 l 1,62,-1
 600 0 l 1,63,-1
 600 100 l 1,60,-1
EndSplineSet
EndChar

StartChar: uniF035
Encoding: 61493 61493 56
Width: 800
GlyphClass: 2
Flags: W
LayerCount: 2
Fore
SplineSet
-3 753 m 1,0,-1
 197 753 l 1,1,-1
 197 553 l 1,2,-1
 -3 553 l 1,3,-1
 -3 753 l 1,0,-1
297 753 m 1,4,-1
 497 753 l 1,5,-1
 497 553 l 1,6,-1
 297 553 l 1,7,-1
 297 753 l 1,4,-1
597 753 m 1,8,-1
 797 753 l 1,9,-1
 797 553 l 1,10,-1
 597 553 l 1,11,-1
 597 753 l 1,8,-1
-3 453 m 1,12,-1
 197 453 l 1,13,-1
 197 253 l 1,14,-1
 -3 253 l 1,15,-1
 -3 453 l 1,12,-1
297 453 m 1,16,-1
 497 453 l 1,17,-1
 497 253 l 1,18,-1
 297 253 l 1,19,-1
 297 453 l 1,16,-1
597 453 m 1,20,-1
 797 453 l 1,21,-1
 797 253 l 1,22,-1
 597 253 l 1,23,-1
 597 453 l 1,20,-1
-3 153 m 1,24,-1
 197 153 l 1,25,-1
 197 -47 l 1,26,-1
 -3 -47 l 1,27,-1
 -3 153 l 1,24,-1
297 153 m 1,28,-1
 497 153 l 1,29,-1
 497 -47 l 1,30,-1
 297 -47 l 1,31,-1
 297 153 l 1,28,-1
597 153 m 1,32,-1
 797 153 l 1,33,-1
 797 -47 l 1,34,-1
 597 -47 l 1,35,-1
 597 153 l 1,32,-1
EndSplineSet
EndChar

StartChar: uniF036
Encoding: 61494 61494 57
Width: 800
GlyphClass: 2
Flags: W
LayerCount: 2
Fore
SplineSet
0 751 m 1,0,-1
 300 751 l 1,1,-1
 300 451 l 1,2,-1
 0 451 l 1,3,-1
 0 751 l 1,0,-1
500 751 m 1,4,-1
 800 751 l 1,5,-1
 800 451 l 1,6,-1
 500 451 l 1,7,-1
 500 751 l 1,4,-1
0 251 m 1,8,-1
 300 251 l 1,9,-1
 300 -49 l 1,10,-1
 0 -49 l 1,11,-1
 0 251 l 1,8,-1
500 251 m 1,12,-1
 800 251 l 1,13,-1
 800 -49 l 1,14,-1
 500 -49 l 1,15,-1
 500 251 l 1,12,-1
EndSplineSet
EndChar

StartChar: uniF037
Encoding: 61495 61495 58
Width: 800
GlyphClass: 2
Flags: W
LayerCount: 2
Fore
SplineSet
400 700 m 1,0,-1
 400 600 l 1,1,2
 317 600 317 600 258.5 541.5 c 128,-1,3
 200 483 200 483 200 400 c 1,4,-1
 300 400 l 1,5,-1
 150 200 l 1,6,-1
 0 400 l 1,7,-1
 100 400 l 1,8,9
 100 524 100 524 188 612 c 128,-1,10
 276 700 276 700 400 700 c 1,0,-1
650 600 m 1,11,-1
 800 400 l 1,12,-1
 700 400 l 1,13,14
 700 276 700 276 612 188 c 128,-1,15
 524 100 524 100 400 100 c 1,16,-1
 400 200 l 1,17,18
 483 200 483 200 541.5 258.5 c 128,-1,19
 600 317 600 317 600 400 c 1,20,-1
 500 400 l 1,21,-1
 650 600 l 1,11,-1
EndSplineSet
EndChar

StartChar: uniF038
Encoding: 61496 61496 59
Width: 800
GlyphClass: 2
Flags: W
LayerCount: 2
Fore
SplineSet
100 800 m 1,0,-1
 700 800 l 1,1,-1
 700 500 l 1,2,-1
 800 500 l 1,3,-1
 650 250 l 1,4,-1
 500 500 l 1,5,-1
 600 500 l 1,6,-1
 600 700 l 1,7,-1
 200 700 l 1,8,-1
 200 600 l 1,9,-1
 100 600 l 1,10,-1
 100 800 l 1,0,-1
150 550 m 1,11,-1
 300 300 l 1,12,-1
 200 300 l 1,13,-1
 200 100 l 1,14,-1
 600 100 l 1,15,-1
 600 200 l 1,16,-1
 700 200 l 1,17,-1
 700 0 l 1,18,-1
 100 0 l 1,19,-1
 100 300 l 1,20,-1
 0 300 l 1,21,-1
 150 550 l 1,11,-1
EndSplineSet
EndChar

StartChar: uniF039
Encoding: 61497 61497 60
Width: 800
GlyphClass: 2
Flags: W
LayerCount: 2
Fore
SplineSet
600 700 m 1,0,-1
 800 550 l 1,1,-1
 600 400 l 1,2,-1
 600 500 l 1,3,-1
 100 500 l 1,4,-1
 100 400 l 1,5,-1
 0 400 l 1,6,-1
 0 500 l 2,7,8
 0 541 0 541 29.5 570.5 c 128,-1,9
 59 600 59 600 100 600 c 2,10,-1
 600 600 l 1,11,-1
 600 700 l 1,0,-1
200 300 m 1,12,-1
 200 200 l 1,13,-1
 700 200 l 1,14,-1
 700 300 l 1,15,-1
 800 300 l 1,16,-1
 800 200 l 2,17,18
 800 159 800 159 770.5 129.5 c 128,-1,19
 741 100 741 100 700 100 c 2,20,-1
 200 100 l 1,21,-1
 200 0 l 1,22,-1
 0 150 l 1,23,-1
 200 300 l 1,12,-1
EndSplineSet
EndChar

StartChar: uniF03A
Encoding: 61498 61498 61
Width: 800
GlyphClass: 2
Flags: W
LayerCount: 2
Fore
SplineSet
300 700 m 1,0,-1
 800 700 l 1,1,-1
 800 0 l 1,2,-1
 300 0 l 1,3,-1
 300 100 l 1,4,-1
 700 100 l 1,5,-1
 700 600 l 1,6,-1
 300 600 l 1,7,-1
 300 700 l 1,0,-1
400 500 m 1,8,-1
 600 350 l 1,9,-1
 400 200 l 1,10,-1
 400 300 l 1,11,-1
 0 300 l 1,12,-1
 0 400 l 1,13,-1
 400 400 l 1,14,-1
 400 500 l 1,8,-1
EndSplineSet
EndChar

StartChar: uniF03B
Encoding: 61499 61499 62
Width: 800
GlyphClass: 2
Flags: W
LayerCount: 2
Fore
SplineSet
300 700 m 1,0,-1
 800 700 l 1,1,-1
 800 0 l 1,2,-1
 300 0 l 1,3,-1
 300 100 l 1,4,-1
 700 100 l 1,5,-1
 700 600 l 1,6,-1
 300 600 l 1,7,-1
 300 700 l 1,0,-1
200 500 m 1,8,-1
 200 400 l 1,9,-1
 600 400 l 1,10,-1
 600 300 l 1,11,-1
 200 300 l 1,12,-1
 200 200 l 1,13,-1
 0 350 l 1,14,-1
 200 500 l 1,8,-1
EndSplineSet
EndChar

StartChar: uniF03C
Encoding: 61500 61500 63
Width: 1200
GlyphClass: 2
Flags: W
LayerCount: 2
Fore
SplineSet
607 791 m 2,0,-1
 677 791 l 2,1,2
 692 791 692 791 702 781 c 128,-1,3
 712 771 712 771 712 756 c 2,4,-1
 712 721 l 1,5,-1
 747 721 l 2,6,7
 762 721 762 721 772 711 c 128,-1,8
 782 701 782 701 782 686 c 2,9,-1
 782 616 l 2,10,11
 782 602 782 602 772 591.5 c 128,-1,12
 762 581 762 581 747 581 c 2,13,-1
 537 581 l 2,14,15
 522 581 522 581 512 591.5 c 128,-1,16
 502 602 502 602 502 616 c 2,17,-1
 502 686 l 2,18,19
 502 701 502 701 512 711 c 128,-1,20
 522 721 522 721 537 721 c 2,21,-1
 572 721 l 1,22,-1
 572 756 l 2,23,24
 572 771 572 771 582 781 c 128,-1,25
 592 791 592 791 607 791 c 2,0,-1
852 616 m 2,26,-1
 852 721 l 1,27,28
 881 721 881 721 901.5 700.5 c 128,-1,29
 922 680 922 680 922 651 c 2,30,-1
 922 91 l 2,31,32
 922 62 922 62 901.5 41.5 c 128,-1,33
 881 21 881 21 852 21 c 2,34,-1
 432 21 l 1,35,36
 432 21 432 21 418 24 c 1,37,-1
 590 196 l 1,38,-1
 362 424 l 1,39,-1
 362 651 l 2,40,41
 362 680 362 680 383 700.5 c 128,-1,42
 404 721 404 721 432 721 c 1,43,-1
 432 616 l 2,44,45
 432 573 432 573 463 542 c 128,-1,46
 494 511 494 511 537 511 c 2,47,-1
 747 511 l 2,48,49
 791 511 791 511 821.5 542 c 128,-1,50
 852 573 852 573 852 616 c 2,26,-1
441 196 m 1,51,-1
 292 48 l 1,52,-1
 292 161 l 1,53,-1
 152 161 l 1,54,-1
 152 231 l 1,55,-1
 292 231 l 1,56,-1
 292 345 l 1,57,-1
 441 196 l 1,51,-1
EndSplineSet
EndChar

StartChar: uniF03D
Encoding: 61501 61501 64
Width: 1200
GlyphClass: 2
Flags: W
LayerCount: 2
Fore
SplineSet
516 782 m 2,0,-1
 586 782 l 2,1,2
 601 782 601 782 611 772 c 128,-1,3
 621 762 621 762 621 747 c 2,4,-1
 621 712 l 1,5,-1
 656 712 l 2,6,7
 671 712 671 712 681 702 c 128,-1,8
 691 692 691 692 691 677 c 2,9,-1
 691 607 l 2,10,11
 691 592 691 592 681 582 c 128,-1,12
 671 572 671 572 656 572 c 2,13,-1
 446 572 l 2,14,15
 431 572 431 572 421 582 c 128,-1,16
 411 592 411 592 411 607 c 2,17,-1
 411 677 l 2,18,19
 411 692 411 692 421 702 c 128,-1,20
 431 712 431 712 446 712 c 2,21,-1
 481 712 l 1,22,-1
 481 747 l 2,23,24
 481 762 481 762 491 772 c 128,-1,25
 501 782 501 782 516 782 c 2,0,-1
761 607 m 2,26,-1
 761 712 l 1,27,28
 790 712 790 712 810.5 691.5 c 128,-1,29
 831 671 831 671 831 642 c 2,30,-1
 831 292 l 1,31,-1
 691 292 l 1,32,-1
 691 82 l 1,33,-1
 831 82 l 1,34,35
 831 57 831 57 826 42 c 128,-1,36
 821 27 821 27 809.5 21 c 128,-1,37
 798 15 798 15 789 13.5 c 128,-1,38
 780 12 780 12 761 12 c 2,39,-1
 341 12 l 2,40,41
 312 12 312 12 291.5 32.5 c 128,-1,42
 271 53 271 53 271 82 c 2,43,-1
 271 642 l 2,44,45
 271 671 271 671 291.5 691.5 c 128,-1,46
 312 712 312 712 341 712 c 1,47,-1
 341 607 l 2,48,49
 341 564 341 564 372 533 c 128,-1,50
 403 502 403 502 446 502 c 2,51,-1
 656 502 l 2,52,53
 699 502 699 502 730 533 c 128,-1,54
 761 564 761 564 761 607 c 2,26,-1
1049 187 m 1,55,-1
 901 39 l 1,56,-1
 901 152 l 1,57,-1
 761 152 l 1,58,-1
 761 222 l 1,59,-1
 901 222 l 1,60,-1
 901 335 l 1,61,-1
 1049 187 l 1,55,-1
EndSplineSet
EndChar

StartChar: uniF03E
Encoding: 61502 61502 65
Width: 1200
GlyphClass: 2
Flags: W
LayerCount: 2
Fore
SplineSet
807 556 m 1,0,-1
 1017 556 l 1,1,-1
 1017 154 l 2,2,3
 1017 146 1017 146 1011.5 141 c 128,-1,4
 1006 136 1006 136 1000 136 c 2,5,-1
 737 136 l 1,6,-1
 737 550 l 1,7,-1
 527 760 l 1,8,-1
 527 818 l 2,9,10
 527 826 527 826 532.5 831 c 128,-1,11
 538 836 538 836 544 836 c 2,12,-1
 807 836 l 1,13,-1
 807 556 l 1,0,-1
1017 626 m 1,14,-1
 877 626 l 1,15,-1
 877 766 l 1,16,-1
 1017 626 l 1,14,-1
457 416 m 1,17,-1
 667 416 l 1,18,-1
 667 14 l 2,19,20
 667 6 667 6 661.5 1 c 128,-1,21
 656 -4 656 -4 650 -4 c 2,22,-1
 194 -4 l 2,23,24
 188 -4 188 -4 182.5 1 c 128,-1,25
 177 6 177 6 177 14 c 2,26,-1
 177 678 l 2,27,28
 177 686 177 686 182.5 691 c 128,-1,29
 188 696 188 696 194 696 c 2,30,-1
 457 696 l 1,31,-1
 457 416 l 1,17,-1
667 486 m 1,32,-1
 527 486 l 1,33,-1
 527 626 l 1,34,-1
 667 486 l 1,32,-1
EndSplineSet
EndChar

StartChar: uniF03F
Encoding: 61503 61503 66
Width: 1200
GlyphClass: 2
Flags: W
LayerCount: 2
Fore
SplineSet
589 875 m 2,0,-1
 729 875 l 2,1,2
 744 875 744 875 754 865 c 128,-1,3
 764 855 764 855 764 840 c 2,4,-1
 764 525 l 1,5,-1
 898 525 l 2,6,7
 912 525 912 525 915.5 517 c 128,-1,8
 919 509 919 509 910 498 c 2,9,-1
 681 218 l 2,10,11
 672 206 672 206 659 206 c 128,-1,12
 646 206 646 206 637 218 c 2,13,-1
 408 498 l 2,14,15
 399 509 399 509 402.5 517 c 128,-1,16
 406 525 406 525 420 525 c 2,17,-1
 554 525 l 1,18,-1
 554 840 l 2,19,20
 554 855 554 855 564 865 c 128,-1,21
 574 875 574 875 589 875 c 2,0,-1
992 315 m 2,22,-1
 1026 315 l 2,23,24
 1034 315 1034 315 1039 309.5 c 128,-1,25
 1044 304 1044 304 1044 298 c 2,26,-1
 1044 52 l 2,27,28
 1044 46 1044 46 1039 40.5 c 128,-1,29
 1034 35 1034 35 1026 35 c 2,30,-1
 292 35 l 2,31,32
 284 35 284 35 279 40.5 c 128,-1,33
 274 46 274 46 274 52 c 2,34,-1
 274 298 l 2,35,36
 274 304 274 304 279 309.5 c 128,-1,37
 284 315 284 315 292 315 c 2,38,-1
 326 315 l 2,39,40
 334 315 334 315 339 309.5 c 128,-1,41
 344 304 344 304 344 298 c 2,42,-1
 344 175 l 1,43,-1
 974 175 l 1,44,-1
 974 298 l 2,45,46
 974 304 974 304 979 309.5 c 128,-1,47
 984 315 984 315 992 315 c 2,22,-1
EndSplineSet
EndChar

StartChar: uniF040
Encoding: 61504 61504 67
Width: 1792
GlyphClass: 2
Flags: W
LayerCount: 2
Fore
SplineSet
577 760 m 1,0,-1
 476 758 l 1,1,-1
 474 22 l 1,2,-1
 577 22 l 1,3,-1
 577 760 l 1,0,-1
627 463 m 0,4,5
 627 448 627 448 630 445 c 2,6,-1
 826 248 l 2,7,8
 834 241 834 241 844 241 c 0,9,10
 853 241 853 241 860.5 248 c 128,-1,11
 868 255 868 255 868 265 c 2,12,-1
 868 364 l 1,13,-1
 954 364 l 2,14,15
 992 364 992 364 1021 361 c 0,16,17
 1051 359 1051 359 1081 353 c 0,18,19
 1110 348 1110 348 1131.5 337 c 128,-1,20
 1153 326 1153 326 1172 310 c 256,21,22
 1191 294 1191 294 1203 271.5 c 128,-1,23
 1215 249 1215 249 1222 218 c 0,24,25
 1230 183 1230 183 1228 148 c 0,26,27
 1227 102 1227 102 1227 102 c 2,28,29
 1227 99 1227 99 1225 93 c 0,30,31
 1225 86 1225 86 1224 82 c 0,32,33
 1225 76 1225 76 1228 73 c 0,34,35
 1231 69 1231 69 1237 69 c 256,36,37
 1243 69 1243 69 1248 75 c 0,38,39
 1250 79 1250 79 1252 84 c 0,40,41
 1255 88 1255 88 1258 95 c 256,42,43
 1261 102 1261 102 1262 105 c 0,44,45
 1311 214 1311 214 1311 277 c 0,46,47
 1311 354 1311 354 1290 406 c 0,48,49
 1228 560 1228 560 954 560 c 2,50,-1
 868 560 l 1,51,-1
 868 658 l 2,52,53
 868 669 868 669 861 676 c 0,54,55
 853 684 853 684 844 683 c 0,56,57
 834 684 834 684 826 676 c 2,58,-1
 630 479 l 2,59,60
 627 476 627 476 627 463 c 0,4,5
EndSplineSet
EndChar

StartChar: uniF041
Encoding: 61505 61505 68
Width: 1792
GlyphClass: 2
Flags: W
LayerCount: 2
Fore
SplineSet
1184 769 m 1,0,-1
 1286 767 l 1,1,-1
 1288 31 l 1,2,-1
 1184 31 l 1,3,-1
 1184 769 l 1,0,-1
1135 472 m 0,4,5
 1135 457 1135 457 1132 454 c 2,6,-1
 935 257 l 2,7,8
 928 250 928 250 918 250 c 256,9,10
 908 250 908 250 900.5 257 c 128,-1,11
 893 264 893 264 893 274 c 2,12,-1
 893 373 l 1,13,-1
 808 373 l 2,14,15
 770 373 770 373 740 370 c 0,16,17
 710 368 710 368 681 362 c 0,18,19
 652 357 652 357 630 346 c 128,-1,20
 608 335 608 335 590 319 c 0,21,22
 571 303 571 303 559 280.5 c 128,-1,23
 547 258 547 258 540 227 c 0,24,25
 532 192 532 192 533 157 c 0,26,27
 535 111 535 111 535 111 c 2,28,29
 535 108 535 108 536 102 c 0,30,31
 537 95 537 95 538 91 c 0,32,33
 537 85 537 85 534 82 c 0,34,35
 531 78 531 78 525 78 c 256,36,37
 519 78 519 78 514 84 c 0,38,39
 512 88 512 88 509 93 c 0,40,41
 507 97 507 97 504 104 c 256,42,43
 501 111 501 111 500 114 c 0,44,45
 451 223 451 223 451 286 c 0,46,47
 451 363 451 363 472 415 c 0,48,49
 534 569 534 569 808 569 c 2,50,-1
 893 569 l 1,51,-1
 893 667 l 2,52,53
 894 678 894 678 901 685 c 0,54,55
 908 693 908 693 918 692 c 0,56,57
 928 693 928 693 935 685 c 2,58,-1
 1132 488 l 2,59,60
 1135 485 1135 485 1135 472 c 0,4,5
EndSplineSet
EndChar

StartChar: uniF042
Encoding: 61506 61506 69
Width: 1215
GlyphClass: 2
Flags: W
LayerCount: 2
Fore
SplineSet
834 744 m 1,0,-1
 933 744 l 1,1,-1
 935 52 l 1,2,-1
 835 52 l 1,3,-1
 834 744 l 1,0,-1
764 381 m 2,4,-1
 306 126 l 2,5,6
 298 122 298 122 292 125 c 0,7,8
 286 129 286 129 286 137 c 2,9,-1
 286 646 l 2,10,11
 287 655 287 655 292 659 c 0,12,13
 298 662 298 662 306 657 c 2,14,-1
 764 402 l 2,15,16
 773 398 773 398 773 392 c 256,17,18
 773 386 773 386 764 381 c 2,4,-1
EndSplineSet
EndChar

StartChar: uniF043
Encoding: 61507 61507 70
Width: 1215
GlyphClass: 2
Flags: W
LayerCount: 2
Fore
SplineSet
378 746 m 1,0,-1
 279 746 l 1,1,-1
 277 54 l 1,2,-1
 377 54 l 1,3,-1
 378 746 l 1,0,-1
448 383 m 2,4,-1
 906 127 l 2,5,6
 914 123 914 123 920 127 c 0,7,8
 926 130 926 130 926 139 c 2,9,-1
 926 648 l 2,10,11
 925 657 925 657 920 660 c 0,12,13
 914 663 914 663 906 659 c 2,14,-1
 448 404 l 2,15,16
 439 399 439 399 439 393 c 256,17,18
 439 387 439 387 448 383 c 2,4,-1
EndSplineSet
EndChar

StartChar: uniF044
Encoding: 61508 61508 71
Width: 1652
GlyphClass: 2
Flags: W
LayerCount: 2
Fore
SplineSet
763 298 m 0,0,1
 753 303 753 303 730 292 c 0,2,3
 720 288 720 288 699 259 c 1,4,-1
 692 244 l 1,5,6
 682 194 682 194 696 161 c 0,7,8
 706 136 706 136 719 131 c 0,9,10
 725 129 725 129 748 118 c 0,11,12
 753 115 753 115 765 120 c 0,13,14
 770 123 770 123 790 155 c 0,15,16
 799 168 799 168 800 184 c 0,17,18
 806 235 806 235 803 243 c 2,19,-1
 797 265 l 1,20,21
 786 288 786 288 763 298 c 0,0,1
852 208 m 0,22,23
 852 164 852 164 833 136 c 0,24,25
 805 96 805 96 797 88 c 0,26,27
 776 67 776 67 740 73 c 0,28,29
 716 78 716 78 707 82 c 0,30,31
 677 101 677 101 662 136 c 0,32,33
 645 173 645 173 645 201 c 0,34,35
 645 253 645 253 662 280 c 0,36,37
 679 306 679 306 714 332 c 1,38,-1
 755 343 l 1,39,40
 782 338 782 338 794 328 c 0,41,42
 815 309 815 309 833 280 c 0,43,44
 852 247 852 247 852 208 c 0,22,23
631 113 m 1,45,-1
 631 73 l 1,46,-1
 469 73 l 1,47,-1
 469 113 l 1,48,-1
 526 113 l 1,49,-1
 526 262 l 2,50,51
 526 264 526 264 526 268 c 0,52,53
 526 273 526 273 527 274 c 2,54,-1
 527 280 l 1,55,-1
 526 280 l 1,56,-1
 523 276 l 2,57,58
 520 271 520 271 514 265 c 2,59,-1
 493 245 l 1,60,-1
 465 275 l 1,61,-1
 531 339 l 1,62,-1
 574 339 l 1,63,-1
 574 113 l 1,64,-1
 631 113 l 1,45,-1
689 454 m 2,65,-1
 1148 199 l 2,66,67
 1155 195 1155 195 1162 198 c 0,68,69
 1167 202 1167 202 1167 210 c 2,70,-1
 1167 719 l 2,71,72
 1167 729 1167 729 1162 732 c 0,73,74
 1155 735 1155 735 1148 730 c 2,75,-1
 689 475 l 2,76,77
 680 471 680 471 681 465 c 0,78,79
 680 459 680 459 689 454 c 2,65,-1
EndSplineSet
EndChar

StartChar: uniF045
Encoding: 61509 61509 72
Width: 1652
GlyphClass: 2
Flags: W
LayerCount: 2
Fore
SplineSet
1081 301 m 0,0,1
 1072 305 1072 305 1049 295 c 0,2,3
 1039 290 1039 290 1018 262 c 1,4,-1
 1011 246 l 1,5,6
 1001 196 1001 196 1015 163 c 0,7,8
 1025 138 1025 138 1038 133 c 0,9,10
 1044 131 1044 131 1066 120 c 0,11,12
 1072 117 1072 117 1084 122 c 0,13,14
 1089 125 1089 125 1109 157 c 0,15,16
 1117 170 1117 170 1119 187 c 0,17,18
 1125 237 1125 237 1122 245 c 2,19,-1
 1116 267 l 1,20,21
 1105 290 1105 290 1081 301 c 0,0,1
1171 210 m 0,22,23
 1171 166 1171 166 1152 138 c 0,24,25
 1125 98 1125 98 1116 90 c 0,26,27
 1095 69 1095 69 1059 76 c 0,28,29
 1036 80 1036 80 1026 85 c 0,30,31
 996 103 996 103 981 138 c 0,32,33
 964 175 964 175 964 203 c 0,34,35
 964 256 964 256 981 282 c 256,36,37
 998 308 998 308 1033 334 c 1,38,-1
 1074 346 l 1,39,40
 1101 340 1101 340 1113 330 c 0,41,42
 1135 311 1135 311 1152 282 c 0,43,44
 1171 249 1171 249 1171 210 c 0,22,23
949 115 m 1,45,-1
 949 76 l 1,46,-1
 787 76 l 1,47,-1
 787 115 l 1,48,-1
 845 115 l 1,49,-1
 845 264 l 2,50,51
 846 266 846 266 845 271 c 0,52,53
 846 275 846 275 846 277 c 2,54,-1
 846 282 l 1,55,-1
 845 282 l 1,56,-1
 843 278 l 2,57,58
 839 273 839 273 834 268 c 2,59,-1
 812 247 l 1,60,-1
 784 277 l 1,61,-1
 850 341 l 1,62,-1
 892 341 l 1,63,-1
 892 115 l 1,64,-1
 949 115 l 1,45,-1
937 457 m 2,65,-1
 478 201 l 2,66,67
 471 197 471 197 464 200 c 0,68,69
 459 204 459 204 459 212 c 2,70,-1
 459 721 l 2,71,72
 459 731 459 731 464 734 c 0,73,74
 471 737 471 737 478 733 c 2,75,-1
 937 478 l 2,76,77
 945 473 945 473 945 467 c 256,78,79
 945 461 945 461 937 457 c 2,65,-1
EndSplineSet
EndChar

StartChar: uniF046
Encoding: 61510 61510 73
Width: 1215
GlyphClass: 2
Flags: W
LayerCount: 2
Fore
SplineSet
127 483 m 1,0,-1
 617 483 l 1,1,-1
 630 441 l 1,2,-1
 139 444 l 1,3,-1
 127 483 l 1,0,-1
357 689 m 1,4,-1
 406 685 l 1,5,-1
 404 242 l 1,6,-1
 358 241 l 1,7,-1
 357 689 l 1,4,-1
654 700 m 1,8,-1
 652 210 l 1,9,-1
 606 210 l 1,10,-1
 606 689 l 1,11,-1
 654 700 l 1,8,-1
624 210 m 1,12,-1
 115 210 l 1,13,-1
 115 258 l 1,14,-1
 650 254 l 1,15,-1
 624 210 l 1,12,-1
115 695 m 1,16,-1
 169 693 l 1,17,-1
 168 237 l 1,18,-1
 115 238 l 1,19,-1
 115 695 l 1,16,-1
654 728 m 1,20,-1
 654 682 l 1,21,-1
 115 682 l 1,22,-1
 115 728 l 1,23,-1
 654 728 l 1,20,-1
1181 454 m 1,24,-1
 722 199 l 2,25,26
 714 195 714 195 708 198 c 0,27,28
 702 202 702 202 702 211 c 2,29,-1
 702 719 l 2,30,31
 702 728 702 728 708 732 c 0,32,33
 714 735 714 735 722 730 c 2,34,-1
 1181 475 l 2,35,36
 1189 471 1189 471 1188 465 c 2,37,38
 1188 465 1188 465 1181 454 c 1,24,-1
EndSplineSet
EndChar

StartChar: uniF047
Encoding: 61511 61511 74
Width: 1215
GlyphClass: 2
Flags: W
LayerCount: 2
Fore
SplineSet
1117 490 m 1,0,-1
 627 490 l 1,1,-1
 614 449 l 1,2,-1
 1105 452 l 1,3,-1
 1117 490 l 1,0,-1
887 696 m 1,4,-1
 838 693 l 1,5,-1
 840 249 l 1,6,-1
 886 249 l 1,7,-1
 887 696 l 1,4,-1
590 708 m 1,8,-1
 592 218 l 1,9,-1
 638 218 l 1,10,-1
 638 696 l 1,11,-1
 590 708 l 1,8,-1
619 218 m 1,12,-1
 1129 218 l 1,13,-1
 1129 266 l 1,14,-1
 594 261 l 1,15,-1
 619 218 l 1,12,-1
1129 703 m 1,16,-1
 1075 701 l 1,17,-1
 1075 245 l 1,18,-1
 1129 246 l 1,19,-1
 1129 703 l 1,16,-1
590 736 m 1,20,-1
 590 690 l 1,21,-1
 1129 690 l 1,22,-1
 1129 736 l 1,23,-1
 590 736 l 1,20,-1
63 462 m 2,24,-1
 522 207 l 2,25,26
 530 203 530 203 536 206 c 0,27,28
 541 210 541 210 541 218 c 2,29,-1
 541 727 l 2,30,31
 541 736 541 736 536 740 c 0,32,33
 530 743 530 743 522 738 c 2,34,-1
 63 483 l 2,35,36
 55 479 55 479 55 473 c 256,37,38
 55 467 55 467 63 462 c 2,24,-1
EndSplineSet
EndChar

StartChar: uniF048
Encoding: 61512 61512 75
Width: 673
GlyphClass: 2
Flags: W
LayerCount: 2
Fore
SplineSet
584 392 m 2,0,-1
 125 136 l 2,1,2
 118 132 118 132 112 135 c 0,3,4
 106 139 106 139 106 147 c 2,5,-1
 106 656 l 2,6,7
 106 665 106 665 112 669 c 0,8,9
 118 672 118 672 125 668 c 2,10,-1
 584 413 l 2,11,12
 592 408 592 408 592 402 c 256,13,14
 592 396 592 396 584 392 c 2,0,-1
EndSplineSet
EndChar

StartChar: uniF049
Encoding: 61513 61513 76
Width: 1215
GlyphClass: 2
Flags: W
LayerCount: 2
Fore
SplineSet
362 391 m 2,0,-1
 821 136 l 2,1,2
 828 132 828 132 834 135 c 0,3,4
 840 139 840 139 840 147 c 2,5,-1
 840 656 l 2,6,7
 840 665 840 665 834 669 c 0,8,9
 828 672 828 672 821 667 c 2,10,-1
 362 412 l 2,11,12
 353 408 353 408 354 402 c 0,13,14
 353 396 353 396 362 391 c 2,0,-1
EndSplineSet
EndChar

StartChar: uniF04A
Encoding: 61514 61514 77
Width: 1200
GlyphClass: 2
Flags: W
LayerCount: 2
Fore
SplineSet
529 782 m 0,0,1
 606 782 606 782 669.5 740.5 c 128,-1,2
 733 699 733 699 763 631 c 1,3,4
 794 641 794 641 826 641 c 0,5,6
 910 641 910 641 969.5 580.5 c 128,-1,7
 1029 520 1029 520 1029 435.5 c 128,-1,8
 1029 351 1029 351 969.5 290.5 c 128,-1,9
 910 230 910 230 826 230 c 2,10,-1
 737 230 l 1,11,-1
 737 405 l 2,12,13
 737 420 737 420 727 430 c 128,-1,14
 717 440 717 440 702 440 c 2,15,-1
 492 440 l 2,16,17
 477 440 477 440 467 430 c 128,-1,18
 457 420 457 420 457 405 c 2,19,-1
 457 230 l 1,20,-1
 301 230 l 2,21,22
 245 230 245 230 206 270.5 c 128,-1,23
 167 311 167 311 167 366 c 0,24,25
 167 414 167 414 197 451.5 c 128,-1,26
 227 489 227 489 273 499 c 1,27,28
 271 512 271 512 271 525 c 0,29,30
 271 595 271 595 305.5 654.5 c 128,-1,31
 340 714 340 714 399.5 748 c 128,-1,32
 459 782 459 782 529 782 c 0,0,1
544 370 m 2,33,-1
 649 370 l 2,34,35
 656 370 656 370 661.5 365 c 128,-1,36
 667 360 667 360 667 353 c 2,37,-1
 667 160 l 1,38,-1
 763 160 l 2,39,40
 777 160 777 160 780.5 152 c 128,-1,41
 784 144 784 144 775 133 c 2,42,-1
 619 -38 l 2,43,44
 610 -49 610 -49 597 -49 c 128,-1,45
 584 -49 584 -49 574 -38 c 2,46,-1
 418 133 l 2,47,48
 409 144 409 144 412.5 152 c 128,-1,49
 416 160 416 160 431 160 c 2,50,-1
 527 160 l 1,51,-1
 527 353 l 2,52,53
 527 360 527 360 532 365 c 128,-1,54
 537 370 537 370 544 370 c 2,33,-1
EndSplineSet
EndChar

StartChar: uniF04B
Encoding: 61515 61515 78
Width: 1200
GlyphClass: 2
Flags: W
LayerCount: 2
Fore
SplineSet
532 785 m 0,0,1
 609 785 609 785 672.5 743.5 c 128,-1,2
 736 702 736 702 767 634 c 1,3,4
 797 645 797 645 829 645 c 0,5,6
 914 645 914 645 973.5 584.5 c 128,-1,7
 1033 524 1033 524 1034 440 c 0,8,9
 1034 370 1034 370 992 312.5 c 128,-1,10
 950 255 950 255 887 236 c 1,11,-1
 622 488 l 2,12,13
 613 499 613 499 600 499 c 128,-1,14
 587 499 587 499 578 488 c 2,15,-1
 311 232 l 1,16,-1
 305 232 l 2,17,18
 250 232 250 232 210.5 272.5 c 128,-1,19
 171 313 171 313 171 368 c 0,20,21
 171 416 171 416 201 453.5 c 128,-1,22
 231 491 231 491 276 501 c 1,23,24
 275 514 275 514 275 528 c 0,25,26
 275 598 275 598 309 657 c 128,-1,27
 343 716 343 716 402.5 750.5 c 128,-1,28
 462 785 462 785 532 785 c 0,0,1
623 350 m 2,29,-1
 779 190 l 2,30,31
 788 179 788 179 784.5 171 c 128,-1,32
 781 163 781 163 766 163 c 2,33,-1
 670 163 l 1,34,-1
 670 -30 l 2,35,36
 670 -36 670 -36 665 -41.5 c 128,-1,37
 660 -47 660 -47 653 -47 c 2,38,-1
 548 -47 l 2,39,40
 541 -47 541 -47 535.5 -41.5 c 128,-1,41
 530 -36 530 -36 530 -30 c 2,42,-1
 530 163 l 1,43,-1
 434 163 l 2,44,45
 420 163 420 163 416.5 171 c 128,-1,46
 413 179 413 179 422 190 c 0,47,48
 561 333 561 333 578 350 c 0,49,50
 591 363 591 363 600 363 c 128,-1,51
 609 363 609 363 623 350 c 2,29,-1
EndSplineSet
EndChar

StartChar: uniF04C
Encoding: 61516 61516 79
Width: 1200
GlyphClass: 2
Flags: W
LayerCount: 2
Fore
SplineSet
603 822 m 128,-1,1
 687 822 687 822 763.5 789 c 128,-1,2
 840 756 840 756 895.5 700.5 c 128,-1,3
 951 645 951 645 984 568.5 c 128,-1,4
 1017 492 1017 492 1017 408 c 128,-1,5
 1017 324 1017 324 984 247.5 c 128,-1,6
 951 171 951 171 895.5 115.5 c 128,-1,7
 840 60 840 60 763.5 27 c 128,-1,8
 687 -6 687 -6 603 -6 c 128,-1,9
 519 -6 519 -6 442.5 27 c 128,-1,10
 366 60 366 60 310.5 115.5 c 128,-1,11
 255 171 255 171 222 247.5 c 128,-1,12
 189 324 189 324 189 408 c 128,-1,13
 189 492 189 492 222 568.5 c 128,-1,14
 255 645 255 645 310.5 700.5 c 128,-1,15
 366 756 366 756 442.5 789 c 128,-1,0
 519 822 519 822 603 822 c 128,-1,1
603 703 m 128,-1,17
 523 703 523 703 455 663.5 c 128,-1,18
 387 624 387 624 347.5 556 c 128,-1,19
 308 488 308 488 308 408 c 128,-1,20
 308 328 308 328 347.5 260 c 128,-1,21
 387 192 387 192 455 152.5 c 128,-1,22
 523 113 523 113 603 113 c 128,-1,23
 683 113 683 113 751 152.5 c 128,-1,24
 819 192 819 192 858.5 260 c 128,-1,25
 898 328 898 328 898 408 c 128,-1,26
 898 488 898 488 858.5 556 c 128,-1,27
 819 624 819 624 751 663.5 c 128,-1,16
 683 703 683 703 603 703 c 128,-1,17
743 478 m 1,28,-1
 743 408 l 1,29,-1
 708 373 l 1,30,-1
 778 303 l 1,31,-1
 778 268 l 1,32,-1
 708 268 l 1,33,-1
 638 338 l 1,34,-1
 533 338 l 1,35,-1
 533 268 l 1,36,-1
 463 268 l 1,37,-1
 463 548 l 1,38,-1
 673 548 l 1,39,-1
 743 478 l 1,28,-1
533 478 m 1,40,-1
 533 408 l 1,41,-1
 673 408 l 1,42,-1
 673 478 l 1,43,-1
 533 478 l 1,40,-1
EndSplineSet
EndChar

StartChar: uniF04D
Encoding: 61517 61517 80
Width: 1200
GlyphClass: 2
Flags: W
LayerCount: 2
Fore
SplineSet
581 817 m 128,-1,1
 665 817 665 817 741.5 784 c 128,-1,2
 818 751 818 751 873.5 696 c 128,-1,3
 929 641 929 641 962 564 c 128,-1,4
 995 487 995 487 995 403 c 128,-1,5
 995 319 995 319 962 242.5 c 128,-1,6
 929 166 929 166 873.5 110.5 c 128,-1,7
 818 55 818 55 741.5 22.5 c 128,-1,8
 665 -10 665 -10 581 -10 c 128,-1,9
 497 -10 497 -10 420.5 22.5 c 128,-1,10
 344 55 344 55 288.5 110.5 c 128,-1,11
 233 166 233 166 200 242.5 c 128,-1,12
 167 319 167 319 167 403 c 128,-1,13
 167 487 167 487 200 564 c 128,-1,14
 233 641 233 641 288.5 696 c 128,-1,15
 344 751 344 751 420.5 784 c 128,-1,0
 497 817 497 817 581 817 c 128,-1,1
581 698 m 128,-1,17
 501 698 501 698 433 658.5 c 128,-1,18
 365 619 365 619 325.5 551 c 128,-1,19
 286 483 286 483 286 403.5 c 128,-1,20
 286 324 286 324 325.5 256 c 128,-1,21
 365 188 365 188 433 148.5 c 128,-1,22
 501 109 501 109 581 109 c 128,-1,23
 661 109 661 109 729 148.5 c 128,-1,24
 797 188 797 188 836.5 256 c 128,-1,25
 876 324 876 324 876 403.5 c 128,-1,26
 876 483 876 483 836.5 551 c 128,-1,27
 797 619 797 619 729 658.5 c 128,-1,16
 661 698 661 698 581 698 c 128,-1,17
721 473 m 1,28,-1
 511 473 l 1,29,-1
 511 333 l 1,30,-1
 721 333 l 1,31,-1
 721 263 l 1,32,-1
 511 263 l 1,33,-1
 441 333 l 1,34,-1
 441 473 l 1,35,-1
 511 543 l 1,36,-1
 721 543 l 1,37,-1
 721 473 l 1,28,-1
EndSplineSet
EndChar

StartChar: uniF04E
Encoding: 61518 61518 81
Width: 1200
GlyphClass: 2
Flags: W
LayerCount: 2
Fore
SplineSet
591 801 m 128,-1,1
 673 801 673 801 748 769 c 128,-1,2
 823 737 823 737 877 683 c 128,-1,3
 931 629 931 629 963 554 c 128,-1,4
 995 479 995 479 995 397 c 128,-1,5
 995 315 995 315 963 240 c 128,-1,6
 931 165 931 165 877 111 c 128,-1,7
 823 57 823 57 748 25 c 128,-1,8
 673 -7 673 -7 591 -7 c 128,-1,9
 509 -7 509 -7 434 25 c 128,-1,10
 359 57 359 57 305 111 c 128,-1,11
 251 165 251 165 219 240 c 128,-1,12
 187 315 187 315 187 397 c 128,-1,13
 187 479 187 479 219 554 c 128,-1,14
 251 629 251 629 305 683 c 128,-1,15
 359 737 359 737 434 769 c 128,-1,0
 509 801 509 801 591 801 c 128,-1,1
591 98 m 1,16,-1
 591 696 l 1,17,18
 510 696 510 696 441 656 c 128,-1,19
 372 616 372 616 332 547 c 128,-1,20
 292 478 292 478 292 397 c 128,-1,21
 292 316 292 316 332 247 c 128,-1,22
 372 178 372 178 441 138 c 128,-1,23
 510 98 510 98 591 98 c 1,16,-1
EndSplineSet
EndChar

StartChar: uniF04F
Encoding: 61519 61519 82
Width: 1200
GlyphClass: 2
Flags: W
LayerCount: 2
Fore
SplineSet
577 793 m 2,0,-1
 717 793 l 2,1,2
 756 793 756 793 788.5 778.5 c 128,-1,3
 821 764 821 764 839.5 743.5 c 128,-1,4
 858 723 858 723 870.5 702.5 c 128,-1,5
 883 682 883 682 888 667 c 2,6,-1
 892 653 l 1,7,-1
 997 653 l 2,8,9
 1026 653 1026 653 1046.5 632.5 c 128,-1,10
 1067 612 1067 612 1067 583 c 2,11,-1
 1067 163 l 2,12,13
 1067 134 1067 134 1046.5 113.5 c 128,-1,14
 1026 93 1026 93 997 93 c 2,15,-1
 297 93 l 2,16,17
 268 93 268 93 247.5 113.5 c 128,-1,18
 227 134 227 134 227 163 c 2,19,-1
 227 583 l 2,20,21
 227 612 227 612 247.5 632.5 c 128,-1,22
 268 653 268 653 297 653 c 2,23,-1
 402 653 l 1,24,25
 403 659 403 659 406.5 668.5 c 128,-1,26
 410 678 410 678 423.5 702 c 128,-1,27
 437 726 437 726 455 744.5 c 128,-1,28
 473 763 473 763 505.5 778 c 128,-1,29
 538 793 538 793 577 793 c 2,0,-1
857 583 m 1,30,-1
 857 513 l 1,31,-1
 927 513 l 1,32,-1
 927 583 l 1,33,-1
 857 583 l 1,30,-1
647 534 m 128,-1,35
 580 534 580 534 533 487 c 128,-1,36
 486 440 486 440 486 373 c 128,-1,37
 486 306 486 306 533 259 c 128,-1,38
 580 212 580 212 647 212 c 128,-1,39
 714 212 714 212 761 259 c 128,-1,40
 808 306 808 306 808 373 c 128,-1,41
 808 440 808 440 761 487 c 128,-1,34
 714 534 714 534 647 534 c 128,-1,35
647 445 m 128,-1,43
 677 445 677 445 698 424 c 128,-1,44
 719 403 719 403 719 373 c 128,-1,45
 719 343 719 343 698 322 c 128,-1,46
 677 301 677 301 647 301 c 128,-1,47
 617 301 617 301 596 322 c 128,-1,48
 575 343 575 343 575 373 c 128,-1,49
 575 403 575 403 596 424 c 128,-1,42
 617 445 617 445 647 445 c 128,-1,43
EndSplineSet
EndChar

StartChar: uniF050
Encoding: 61520 61520 83
Width: 1920
GlyphClass: 2
Flags: W
LayerCount: 2
Fore
SplineSet
928 400 m 128,-1,1
 928 453 928 453 890.5 490.5 c 128,-1,2
 853 528 853 528 800 528 c 128,-1,3
 747 528 747 528 709.5 490.5 c 128,-1,4
 672 453 672 453 672 400 c 128,-1,5
 672 347 672 347 709.5 309.5 c 128,-1,6
 747 272 747 272 800 272 c 128,-1,7
 853 272 853 272 890.5 309.5 c 128,-1,0
 928 347 928 347 928 400 c 128,-1,1
1312 144 m 256,8,9
 1312 170 1312 170 1293 189 c 128,-1,10
 1274 208 1274 208 1248 208 c 128,-1,11
 1222 208 1222 208 1203 189 c 128,-1,12
 1184 170 1184 170 1184 144 c 256,13,14
 1184 118 1184 118 1203 99 c 128,-1,15
 1222 80 1222 80 1248 80 c 128,-1,16
 1274 80 1274 80 1293 99 c 128,-1,17
 1312 118 1312 118 1312 144 c 256,8,9
1312 656 m 256,18,19
 1312 682 1312 682 1293 701 c 128,-1,20
 1274 720 1274 720 1248 720 c 128,-1,21
 1222 720 1222 720 1203 701 c 128,-1,22
 1184 682 1184 682 1184 656 c 256,23,24
 1184 630 1184 630 1203 611 c 128,-1,25
 1222 592 1222 592 1248 592 c 128,-1,26
 1274 592 1274 592 1293 611 c 128,-1,27
 1312 630 1312 630 1312 656 c 256,18,19
1120 446 m 2,28,-1
 1120 353 l 2,29,30
 1120 348 1120 348 1116.5 343 c 128,-1,31
 1113 338 1113 338 1108 338 c 2,32,-1
 1031 326 l 1,33,34
 1026 308 1026 308 1015 288 c 1,35,36
 1032 264 1032 264 1060 230 c 0,37,38
 1064 225 1064 225 1064 220 c 0,39,40
 1064 214 1064 214 1060 211 c 0,41,42
 1048 196 1048 196 1018.5 166 c 128,-1,43
 989 136 989 136 980 136 c 0,44,45
 974 136 974 136 969 140 c 2,46,-1
 912 185 l 1,47,48
 893 176 893 176 873 170 c 1,49,50
 868 116 868 116 862 92 c 0,51,52
 858 80 858 80 846 80 c 2,53,-1
 754 80 l 2,54,55
 748 80 748 80 743.5 84 c 128,-1,56
 739 88 739 88 738 92 c 2,57,-1
 727 169 l 1,58,59
 710 174 710 174 690 184 c 1,60,-1
 630 140 l 2,61,62
 627 136 627 136 620 136 c 0,63,64
 615 136 615 136 610 140 c 0,65,66
 538 207 538 207 538 220 c 0,67,68
 538 225 538 225 542 230 c 0,69,70
 546 237 546 237 562 256.5 c 128,-1,71
 578 276 578 276 586 287 c 1,72,73
 574 309 574 309 568 328 c 1,74,-1
 492 340 l 2,75,76
 487 340 487 340 483.5 344.5 c 128,-1,77
 480 349 480 349 480 354 c 2,78,-1
 480 447 l 2,79,80
 480 452 480 452 483.5 457 c 128,-1,81
 487 462 487 462 492 462 c 2,82,-1
 569 474 l 1,83,84
 574 492 574 492 585 512 c 1,85,86
 568 536 568 536 540 570 c 0,87,88
 536 575 536 575 536 580 c 0,89,90
 536 586 536 586 540 590 c 0,91,92
 551 604 551 604 581 634 c 128,-1,93
 611 664 611 664 620 664 c 0,94,95
 626 664 626 664 631 660 c 2,96,-1
 688 615 l 1,97,98
 706 624 706 624 727 631 c 1,99,100
 732 685 732 685 738 708 c 0,101,102
 742 720 742 720 754 720 c 2,103,-1
 846 720 l 2,104,105
 852 720 852 720 856.5 716 c 128,-1,106
 861 712 861 712 862 708 c 2,107,-1
 873 631 l 1,108,109
 890 626 890 626 910 616 c 1,110,-1
 970 660 l 2,111,112
 974 664 974 664 980 664 c 0,113,114
 985 664 985 664 990 660 c 0,115,116
 1062 593 1062 593 1062 580 c 0,117,118
 1062 576 1062 576 1058 570 c 0,119,120
 1052 562 1052 562 1037 543 c 128,-1,121
 1022 524 1022 524 1015 513 c 1,122,123
 1026 489 1026 489 1032 472 c 1,124,-1
 1108 460 l 2,125,126
 1113 460 1113 460 1116.5 455.5 c 128,-1,127
 1120 451 1120 451 1120 446 c 2,28,-1
1440 179 m 2,128,-1
 1440 109 l 2,129,130
 1440 101 1440 101 1366 94 c 1,131,132
 1360 80 1360 80 1350 68 c 1,133,134
 1376 11 1376 11 1376 -2 c 0,135,136
 1376 -4 1376 -4 1374 -5 c 0,137,138
 1313 -40 1313 -40 1312 -40 c 0,139,140
 1308 -40 1308 -40 1289 -17 c 128,-1,141
 1270 6 1270 6 1263 17 c 1,142,143
 1253 16 1253 16 1248 16 c 128,-1,144
 1243 16 1243 16 1233 17 c 1,145,146
 1226 6 1226 6 1207 -17 c 128,-1,147
 1188 -40 1188 -40 1184 -40 c 0,148,149
 1183 -40 1183 -40 1122 -5 c 0,150,151
 1120 -4 1120 -4 1120 -2 c 0,152,153
 1120 11 1120 11 1146 68 c 1,154,155
 1136 80 1136 80 1130 94 c 1,156,157
 1056 101 1056 101 1056 109 c 2,158,-1
 1056 179 l 2,159,160
 1056 187 1056 187 1130 194 c 1,161,162
 1137 209 1137 209 1146 220 c 1,163,164
 1120 277 1120 277 1120 290 c 0,165,166
 1120 292 1120 292 1122 293 c 256,167,168
 1124 294 1124 294 1139.5 303 c 128,-1,169
 1155 312 1155 312 1169 320 c 128,-1,170
 1183 328 1183 328 1184 328 c 0,171,172
 1188 328 1188 328 1207 305 c 128,-1,173
 1226 282 1226 282 1233 271 c 1,174,175
 1243 272 1243 272 1248 272 c 128,-1,176
 1253 272 1253 272 1263 271 c 1,177,178
 1288 306 1288 306 1309 327 c 1,179,-1
 1312 328 l 2,180,181
 1314 328 1314 328 1374 293 c 0,182,183
 1376 292 1376 292 1376 290 c 0,184,185
 1376 277 1376 277 1350 220 c 1,186,187
 1359 209 1359 209 1366 194 c 1,188,189
 1440 187 1440 187 1440 179 c 2,128,-1
1440 691 m 2,190,-1
 1440 621 l 2,191,192
 1440 613 1440 613 1366 606 c 1,193,194
 1360 592 1360 592 1350 580 c 1,195,196
 1376 523 1376 523 1376 510 c 0,197,198
 1376 508 1376 508 1374 507 c 0,199,200
 1313 472 1313 472 1312 472 c 0,201,202
 1308 472 1308 472 1289 495 c 128,-1,203
 1270 518 1270 518 1263 529 c 1,204,205
 1253 528 1253 528 1248 528 c 128,-1,206
 1243 528 1243 528 1233 529 c 1,207,208
 1226 518 1226 518 1207 495 c 128,-1,209
 1188 472 1188 472 1184 472 c 0,210,211
 1183 472 1183 472 1122 507 c 0,212,213
 1120 508 1120 508 1120 510 c 0,214,215
 1120 523 1120 523 1146 580 c 1,216,217
 1136 592 1136 592 1130 606 c 1,218,219
 1056 613 1056 613 1056 621 c 2,220,-1
 1056 691 l 2,221,222
 1056 699 1056 699 1130 706 c 1,223,224
 1137 721 1137 721 1146 732 c 1,225,226
 1120 789 1120 789 1120 802 c 0,227,228
 1120 804 1120 804 1122 805 c 256,229,230
 1124 806 1124 806 1139.5 815 c 128,-1,231
 1155 824 1155 824 1169 832 c 128,-1,232
 1183 840 1183 840 1184 840 c 0,233,234
 1188 840 1188 840 1207 817 c 128,-1,235
 1226 794 1226 794 1233 783 c 1,236,237
 1243 784 1243 784 1248 784 c 128,-1,238
 1253 784 1253 784 1263 783 c 1,239,240
 1288 818 1288 818 1309 839 c 1,241,-1
 1312 840 l 2,242,243
 1314 840 1314 840 1374 805 c 0,244,245
 1376 804 1376 804 1376 802 c 0,246,247
 1376 789 1376 789 1350 732 c 1,248,249
 1359 721 1359 721 1366 706 c 1,250,251
 1440 699 1440 699 1440 691 c 2,190,-1
EndSplineSet
EndChar

StartChar: uniF051
Encoding: 61521 61521 84
Width: 1152
GlyphClass: 2
Flags: W
LayerCount: 2
Fore
SplineSet
528 445 m 2,0,-1
 528 669 l 2,1,2
 528 676 528 676 523.5 680.5 c 128,-1,3
 519 685 519 685 512 685 c 128,-1,4
 505 685 505 685 500.5 680.5 c 128,-1,5
 496 676 496 676 496 669 c 2,6,-1
 496 445 l 2,7,8
 496 438 496 438 500.5 433.5 c 128,-1,9
 505 429 505 429 512 429 c 128,-1,10
 519 429 519 429 523.5 433.5 c 128,-1,11
 528 438 528 438 528 445 c 2,0,-1
864 269 m 0,12,13
 864 256 864 256 854.5 246.5 c 128,-1,14
 845 237 845 237 832 237 c 2,15,-1
 618 237 l 1,16,-1
 592 -4 l 2,17,18
 591 -10 591 -10 586.5 -14.5 c 128,-1,19
 582 -19 582 -19 576 -19 c 1,20,-1
 576 -19 l 1,21,22
 562 -19 562 -19 560 -6 c 2,23,-1
 522 237 l 1,24,-1
 320 237 l 2,25,26
 307 237 307 237 297.5 246.5 c 128,-1,27
 288 256 288 256 288 269 c 0,28,29
 288 330 288 330 327 379.5 c 128,-1,30
 366 429 366 429 416 429 c 1,31,-1
 416 685 l 1,32,33
 390 685 390 685 371 704 c 128,-1,34
 352 723 352 723 352 749 c 128,-1,35
 352 775 352 775 371 794 c 128,-1,36
 390 813 390 813 416 813 c 2,37,-1
 736 813 l 2,38,39
 762 813 762 813 781 794 c 128,-1,40
 800 775 800 775 800 749 c 128,-1,41
 800 723 800 723 781 704 c 128,-1,42
 762 685 762 685 736 685 c 1,43,-1
 736 429 l 1,44,45
 786 429 786 429 825 379.5 c 128,-1,46
 864 330 864 330 864 269 c 0,12,13
EndSplineSet
EndChar

StartChar: uniF052
Encoding: 61522 61522 85
Width: 1408
GlyphClass: 2
Flags: W
LayerCount: 2
Fore
SplineSet
1056 199 m 0,0,1
 1056 186 1056 186 1051 164 c 128,-1,2
 1046 142 1046 142 1040 130 c 0,3,4
 1030 104 1030 104 980 76 c 0,5,6
 932 51 932 51 886 51 c 0,7,8
 873 51 873 51 860 52.5 c 128,-1,9
 847 54 847 54 831.5 59 c 128,-1,10
 816 64 816 64 808 66.5 c 128,-1,11
 800 69 800 69 780 76.5 c 128,-1,12
 760 84 760 84 756 86 c 0,13,14
 706 103 706 103 668 127 c 0,15,16
 604 166 604 166 536 235 c 128,-1,17
 468 304 468 304 428 367 c 0,18,19
 404 406 404 406 386 454 c 0,20,21
 385 459 385 459 377.5 479 c 128,-1,22
 370 499 370 499 367 506.5 c 128,-1,23
 364 514 364 514 360 530 c 128,-1,24
 356 546 356 546 354 559 c 128,-1,25
 352 572 352 572 352 586 c 0,26,27
 352 632 352 632 378 678 c 0,28,29
 406 729 406 729 430 740 c 0,30,31
 443 745 443 745 464.5 750 c 128,-1,32
 486 755 486 755 500 755 c 0,33,34
 507 755 507 755 510 754 c 0,35,36
 520 750 520 750 537 716 c 0,37,38
 542 706 542 706 552 688.5 c 128,-1,39
 562 671 562 671 570 656.5 c 128,-1,40
 578 642 578 642 585 630 c 0,41,42
 586 628 586 628 593.5 617.5 c 128,-1,43
 601 607 601 607 604.5 599.5 c 128,-1,44
 608 592 608 592 608 586 c 0,45,46
 608 576 608 576 594 561 c 128,-1,47
 580 546 580 546 563 533 c 128,-1,48
 546 520 546 520 532 506 c 128,-1,49
 518 492 518 492 518 484 c 0,50,51
 518 479 518 479 520 472.5 c 128,-1,52
 522 466 522 466 524 462 c 128,-1,53
 526 458 526 458 531 450 c 128,-1,54
 536 442 536 442 537 440 c 0,55,56
 575 372 575 372 624 323 c 128,-1,57
 673 274 673 274 742 236 c 2,58,59
 742 236 742 236 751 230.5 c 128,-1,60
 760 225 760 225 763 223.5 c 128,-1,61
 766 222 766 222 773 219 c 128,-1,62
 780 216 780 216 784 216 c 0,63,64
 794 216 794 216 808 230.5 c 128,-1,65
 822 245 822 245 834 261.5 c 128,-1,66
 846 278 846 278 861 292.5 c 128,-1,67
 876 307 876 307 886 307 c 0,68,69
 894 307 894 307 901 303.5 c 128,-1,70
 908 300 908 300 918.5 293 c 128,-1,71
 929 286 929 286 931 284 c 0,72,73
 944 276 944 276 958 268 c 128,-1,74
 972 260 972 260 989.5 251 c 128,-1,75
 1007 242 1007 242 1016 236 c 0,76,77
 1052 218 1052 218 1054 210 c 0,78,79
 1056 206 1056 206 1056 199 c 0,0,1
EndSplineSet
EndChar

StartChar: uniF053
Encoding: 61523 61523 86
Width: 1920
GlyphClass: 2
Flags: W
LayerCount: 2
Fore
SplineSet
1302 728 m 2,0,1
 1330 728 1330 728 1350 708 c 128,-1,2
 1370 688 1370 688 1370 659 c 2,3,-1
 1370 140 l 2,4,5
 1370 111 1370 111 1350 91 c 128,-1,6
 1330 71 1330 71 1302 71 c 2,7,-1
 618 71 l 2,8,9
 590 71 590 71 570 91 c 128,-1,10
 550 111 550 111 550 140 c 2,11,-1
 550 659 l 2,12,13
 550 688 550 688 570 708 c 128,-1,14
 590 728 590 728 618 728 c 2,15,-1
 1302 728 l 2,0,1
618 673 m 2,16,17
 612 673 612 673 608 669 c 128,-1,18
 604 665 604 665 604 659 c 2,19,-1
 604 564 l 1,20,-1
 1316 564 l 1,21,-1
 1316 659 l 2,22,23
 1316 665 1316 665 1312 669 c 128,-1,24
 1308 673 1308 673 1302 673 c 2,25,-1
 618 673 l 2,16,17
1302 126 m 2,26,27
 1308 126 1308 126 1312 130 c 128,-1,28
 1316 134 1316 134 1316 140 c 2,29,-1
 1316 400 l 1,30,-1
 604 400 l 1,31,-1
 604 140 l 2,32,33
 604 134 604 134 608 130 c 128,-1,34
 612 126 612 126 618 126 c 2,35,-1
 1302 126 l 2,26,27
659 181 m 1,36,-1
 659 235 l 1,37,-1
 768 235 l 1,38,-1
 768 181 l 1,39,-1
 659 181 l 1,36,-1
823 181 m 1,40,-1
 823 235 l 1,41,-1
 987 235 l 1,42,-1
 987 181 l 1,43,-1
 823 181 l 1,40,-1
EndSplineSet
EndChar

StartChar: uniF054
Encoding: 61524 61524 87
Width: 1792
GlyphClass: 2
Flags: W
LayerCount: 2
Fore
SplineSet
1279 515 m 1,0,-1
 1279 175 l 2,1,2
 1279 147 1279 147 1259 127 c 128,-1,3
 1239 107 1239 107 1211 107 c 2,4,-1
 581 107 l 2,5,6
 553 107 553 107 533 127 c 128,-1,7
 513 147 513 147 513 175 c 2,8,-1
 513 515 l 1,9,10
 532 494 532 494 556 478 c 0,11,12
 711 373 711 373 769 330 c 0,13,14
 793 312 793 312 808 302 c 128,-1,15
 823 292 823 292 848.5 281.5 c 128,-1,16
 874 271 874 271 896 271 c 1,17,-1
 896 271 l 1,18,-1
 896 271 l 1,19,20
 918 271 918 271 943.5 281.5 c 128,-1,21
 969 292 969 292 984 302 c 128,-1,22
 999 312 999 312 1023 330 c 0,23,24
 1096 383 1096 383 1236 478 c 0,25,26
 1261 494 1261 494 1279 515 c 1,0,-1
1279 641 m 0,27,28
 1279 607 1279 607 1258 576 c 128,-1,29
 1237 545 1237 545 1206 523 c 0,30,31
 1045 412 1045 412 1006 384 c 0,32,33
 1002 381 1002 381 988 371 c 128,-1,34
 974 361 974 361 964.5 355 c 128,-1,35
 955 349 955 349 942 341.5 c 128,-1,36
 929 334 929 334 917.5 330 c 128,-1,37
 906 326 906 326 896 326 c 1,38,-1
 896 326 l 1,39,-1
 896 326 l 1,40,41
 886 326 886 326 874.5 330 c 128,-1,42
 863 334 863 334 850 341.5 c 128,-1,43
 837 349 837 349 827.5 355 c 128,-1,44
 818 361 818 361 804 371 c 128,-1,45
 790 381 790 381 786 384 c 0,46,47
 747 412 747 412 674 462.5 c 128,-1,48
 601 513 601 513 586 523 c 0,49,50
 560 541 560 541 536.5 572.5 c 128,-1,51
 513 604 513 604 513 631 c 0,52,53
 513 664 513 664 530.5 686.5 c 128,-1,54
 548 709 548 709 581 709 c 2,55,-1
 1211 709 l 2,56,57
 1238 709 1238 709 1258.5 689 c 128,-1,58
 1279 669 1279 669 1279 641 c 0,27,28
EndSplineSet
EndChar

StartChar: uniF055
Encoding: 61525 61525 88
Width: 1792
GlyphClass: 2
Flags: W
LayerCount: 2
Fore
SplineSet
896 720 m 128,-1,1
 794 720 794 720 705 685 c 128,-1,2
 616 650 616 650 564 591 c 128,-1,3
 512 532 512 532 512 464 c 0,4,5
 512 408 512 408 548 357 c 128,-1,6
 584 306 584 306 648 270 c 2,7,-1
 692 244 l 1,8,-1
 678 196 l 2,9,10
 666 151 666 151 644 110 c 1,11,12
 720 142 720 142 781 196 c 2,13,-1
 802 215 l 1,14,-1
 831 212 l 2,15,16
 866 208 866 208 896 208 c 0,17,18
 998 208 998 208 1087 243 c 128,-1,19
 1176 278 1176 278 1228 337 c 128,-1,20
 1280 396 1280 396 1280 464 c 128,-1,21
 1280 532 1280 532 1228 591 c 128,-1,22
 1176 650 1176 650 1087 685 c 128,-1,0
 998 720 998 720 896 720 c 128,-1,1
1344 464 m 128,-1,24
 1344 377 1344 377 1284 303.5 c 128,-1,25
 1224 230 1224 230 1121 187 c 128,-1,26
 1018 144 1018 144 896 144 c 0,27,28
 861 144 861 144 824 148 c 1,29,30
 724 60 724 60 594 27 c 0,31,32
 569 20 569 20 536 16 c 1,33,-1
 534 16 l 2,34,35
 526 16 526 16 520 21 c 128,-1,36
 514 26 514 26 512 35 c 2,37,-1
 512 36 l 2,38,39
 511 38 511 38 512.5 42 c 128,-1,40
 514 46 514 46 513.5 47 c 128,-1,41
 513 48 513 48 515.5 51.5 c 128,-1,42
 518 55 518 55 518.5 55.5 c 128,-1,43
 519 56 519 56 522 60 c 128,-1,44
 525 64 525 64 526 64 c 0,45,46
 530 68 530 68 542 81.5 c 128,-1,47
 554 95 554 95 559 100.5 c 128,-1,48
 564 106 564 106 574 120 c 128,-1,49
 584 134 584 134 590 146 c 128,-1,50
 596 158 596 158 604 176 c 128,-1,51
 612 194 612 194 617 214 c 1,52,53
 538 258 538 258 493 323.5 c 128,-1,54
 448 389 448 389 448 464 c 0,55,56
 448 551 448 551 508 624.5 c 128,-1,57
 568 698 568 698 671 741 c 128,-1,58
 774 784 774 784 896 784 c 128,-1,59
 1018 784 1018 784 1121 741 c 128,-1,60
 1224 698 1224 698 1284 624.5 c 128,-1,23
 1344 551 1344 551 1344 464 c 128,-1,24
EndSplineSet
EndChar

StartChar: uniF056
Encoding: 61526 61526 89
Width: 1408
GlyphClass: 2
Flags: W
LayerCount: 2
Fore
SplineSet
544 178 m 128,-1,1
 544 165 544 165 534.5 155.5 c 128,-1,2
 525 146 525 146 512 146 c 128,-1,3
 499 146 499 146 489.5 155.5 c 128,-1,4
 480 165 480 165 480 178 c 128,-1,5
 480 191 480 191 489.5 200.5 c 128,-1,6
 499 210 499 210 512 210 c 128,-1,7
 525 210 525 210 534.5 200.5 c 128,-1,0
 544 191 544 191 544 178 c 128,-1,1
1056 148 m 0,8,9
 1056 87 1056 87 1019.5 52.5 c 128,-1,10
 983 18 983 18 922 18 c 2,11,-1
 486 18 l 2,12,13
 425 18 425 18 388.5 52.5 c 128,-1,14
 352 87 352 87 352 148 c 0,15,16
 352 182 352 182 355 213 c 128,-1,17
 358 244 358 244 367 282 c 128,-1,18
 376 320 376 320 390.5 348.5 c 128,-1,19
 405 377 405 377 431 399.5 c 128,-1,20
 457 422 457 422 491 430 c 1,21,22
 480 404 480 404 480 370 c 2,23,-1
 480 268 l 1,24,25
 451 258 451 258 433.5 233 c 128,-1,26
 416 208 416 208 416 178 c 0,27,28
 416 138 416 138 444 110 c 128,-1,29
 472 82 472 82 512 82 c 128,-1,30
 552 82 552 82 580 110 c 128,-1,31
 608 138 608 138 608 178 c 0,32,33
 608 208 608 208 590 233 c 128,-1,34
 572 258 572 258 544 268 c 1,35,-1
 544 370 l 2,36,37
 544 401 544 401 556 416 c 1,38,39
 622 364 622 364 704 364 c 128,-1,40
 786 364 786 364 852 416 c 1,41,42
 864 401 864 401 864 370 c 2,43,-1
 864 338 l 1,44,45
 811 338 811 338 773.5 300.5 c 128,-1,46
 736 263 736 263 736 210 c 2,47,-1
 736 166 l 1,48,49
 720 151 720 151 720 130 c 0,50,51
 720 110 720 110 734 96 c 128,-1,52
 748 82 748 82 768 82 c 128,-1,53
 788 82 788 82 802 96 c 128,-1,54
 816 110 816 110 816 130 c 0,55,56
 816 151 816 151 800 166 c 1,57,-1
 800 210 l 2,58,59
 800 236 800 236 819 255 c 128,-1,60
 838 274 838 274 864 274 c 128,-1,61
 890 274 890 274 909 255 c 128,-1,62
 928 236 928 236 928 210 c 2,63,-1
 928 166 l 1,64,65
 912 151 912 151 912 130 c 0,66,67
 912 110 912 110 926 96 c 128,-1,68
 940 82 940 82 960 82 c 128,-1,69
 980 82 980 82 994 96 c 128,-1,70
 1008 110 1008 110 1008 130 c 0,71,72
 1008 151 1008 151 992 166 c 1,73,-1
 992 210 l 2,74,75
 992 244 992 244 975 274 c 128,-1,76
 958 304 958 304 928 320 c 1,77,78
 928 326 928 326 928 342 c 128,-1,79
 928 358 928 358 928 366 c 128,-1,80
 928 374 928 374 927 387 c 128,-1,81
 926 400 926 400 923.5 410 c 128,-1,82
 921 420 921 420 917 430 c 1,83,84
 951 422 951 422 977 399.5 c 128,-1,85
 1003 377 1003 377 1017.5 348.5 c 128,-1,86
 1032 320 1032 320 1041 282 c 128,-1,87
 1050 244 1050 244 1053 213 c 128,-1,88
 1056 182 1056 182 1056 148 c 0,8,9
896 594 m 128,-1,90
 896 514 896 514 840 458 c 128,-1,91
 784 402 784 402 704 402 c 128,-1,92
 624 402 624 402 568 458 c 128,-1,93
 512 514 512 514 512 594 c 128,-1,94
 512 674 512 674 568 730 c 128,-1,95
 624 786 624 786 704 786 c 128,-1,96
 784 786 784 786 840 730 c 128,-1,89
 896 674 896 674 896 594 c 128,-1,90
EndSplineSet
EndChar

StartChar: uniF057
Encoding: 61527 61527 90
Width: 1408
GlyphClass: 2
Flags: W
LayerCount: 2
Fore
SplineSet
992 494 m 128,-1,1
 992 507 992 507 982.5 516.5 c 128,-1,2
 973 526 973 526 960 526 c 128,-1,3
 947 526 947 526 937.5 516.5 c 128,-1,4
 928 507 928 507 928 494 c 128,-1,5
 928 481 928 481 937.5 471.5 c 128,-1,6
 947 462 947 462 960 462 c 128,-1,7
 973 462 973 462 982.5 471.5 c 128,-1,0
 992 481 992 481 992 494 c 128,-1,1
1056 494 m 0,8,9
 1056 463 1056 463 1038 438.5 c 128,-1,10
 1020 414 1020 414 992 404 c 1,11,-1
 992 206 l 2,12,13
 992 126 992 126 926 70 c 128,-1,14
 860 14 860 14 768 14 c 128,-1,15
 676 14 676 14 610 70 c 128,-1,16
 544 126 544 126 544 206 c 2,17,-1
 544 272 l 1,18,19
 462 282 462 282 407 336 c 128,-1,20
 352 390 352 390 352 462 c 2,21,-1
 352 718 l 2,22,23
 352 731 352 731 361.5 740.5 c 128,-1,24
 371 750 371 750 384 750 c 0,25,26
 387 750 387 750 392 749 c 1,27,28
 400 764 400 764 415 773 c 128,-1,29
 430 782 430 782 448 782 c 0,30,31
 474 782 474 782 493 763 c 128,-1,32
 512 744 512 744 512 718 c 128,-1,33
 512 692 512 692 493 673 c 128,-1,34
 474 654 474 654 448 654 c 0,35,36
 432 654 432 654 416 663 c 1,37,-1
 416 462 l 2,38,39
 416 409 416 409 463 371.5 c 128,-1,40
 510 334 510 334 576 334 c 128,-1,41
 642 334 642 334 689 371.5 c 128,-1,42
 736 409 736 409 736 462 c 2,43,-1
 736 663 l 1,44,45
 720 654 720 654 704 654 c 0,46,47
 678 654 678 654 659 673 c 128,-1,48
 640 692 640 692 640 718 c 128,-1,49
 640 744 640 744 659 763 c 128,-1,50
 678 782 678 782 704 782 c 0,51,52
 722 782 722 782 737 773 c 128,-1,53
 752 764 752 764 760 749 c 1,54,55
 765 750 765 750 768 750 c 0,56,57
 781 750 781 750 790.5 740.5 c 128,-1,58
 800 731 800 731 800 718 c 2,59,-1
 800 462 l 2,60,61
 800 390 800 390 745 336 c 128,-1,62
 690 282 690 282 608 272 c 1,63,-1
 608 206 l 2,64,65
 608 153 608 153 655 115.5 c 128,-1,66
 702 78 702 78 768 78 c 128,-1,67
 834 78 834 78 881 115.5 c 128,-1,68
 928 153 928 153 928 206 c 2,69,-1
 928 404 l 1,70,71
 900 414 900 414 882 438.5 c 128,-1,72
 864 463 864 463 864 494 c 0,73,74
 864 534 864 534 892 562 c 128,-1,75
 920 590 920 590 960 590 c 128,-1,76
 1000 590 1000 590 1028 562 c 128,-1,77
 1056 534 1056 534 1056 494 c 0,8,9
EndSplineSet
EndChar

StartChar: uniF058
Encoding: 61528 61528 91
Width: 1792
GlyphClass: 2
Flags: W
LayerCount: 2
Fore
SplineSet
904 -10 m 128,-1,1
 904 -2 904 -2 896 -2 c 0,2,3
 866 -2 866 -2 845 19 c 128,-1,4
 824 40 824 40 824 70 c 0,5,6
 824 78 824 78 816 78 c 128,-1,7
 808 78 808 78 808 70 c 0,8,9
 808 34 808 34 834 8 c 128,-1,10
 860 -18 860 -18 896 -18 c 0,11,0
 904 -18 904 -18 904 -10 c 128,-1,1
1312 134 m 1,12,13
 1312 108 1312 108 1293 89 c 128,-1,14
 1274 70 1274 70 1248 70 c 2,15,-1
 1024 70 l 1,16,17
 1024 17 1024 17 986.5 -20.5 c 128,-1,18
 949 -58 949 -58 896 -58 c 128,-1,19
 843 -58 843 -58 805.5 -20.5 c 128,-1,20
 768 17 768 17 768 70 c 1,21,-1
 544 70 l 2,22,23
 518 70 518 70 499 89 c 128,-1,24
 480 108 480 108 480 134 c 1,25,26
 505 155 505 155 525.5 178 c 128,-1,27
 546 201 546 201 568 237.5 c 128,-1,28
 590 274 590 274 605 317 c 128,-1,29
 620 360 620 360 630 420 c 128,-1,30
 640 480 640 480 640 550 c 0,31,32
 640 626 640 626 698.5 691 c 128,-1,33
 757 756 757 756 852 770 c 1,34,35
 848 780 848 780 848 790 c 0,36,37
 848 810 848 810 862 824 c 128,-1,38
 876 838 876 838 896 838 c 128,-1,39
 916 838 916 838 930 824 c 128,-1,40
 944 810 944 810 944 790 c 0,41,42
 944 780 944 780 940 770 c 1,43,44
 1035 756 1035 756 1093.5 691 c 128,-1,45
 1152 626 1152 626 1152 550 c 0,46,47
 1152 480 1152 480 1162 420 c 128,-1,48
 1172 360 1172 360 1187 317 c 128,-1,49
 1202 274 1202 274 1224 237.5 c 128,-1,50
 1246 201 1246 201 1266.5 178 c 128,-1,51
 1287 155 1287 155 1312 134 c 1,12,13
EndSplineSet
EndChar

StartChar: uniF059
Encoding: 61529 61529 92
Width: 1408
GlyphClass: 2
Flags: W
LayerCount: 2
Fore
SplineSet
544 186 m 2,0,-1
 544 154 l 2,1,2
 544 148 544 148 539 143 c 128,-1,3
 534 138 534 138 528 138 c 2,4,-1
 496 138 l 2,5,6
 490 138 490 138 485 143 c 128,-1,7
 480 148 480 148 480 154 c 2,8,-1
 480 186 l 2,9,10
 480 192 480 192 485 197 c 128,-1,11
 490 202 490 202 496 202 c 2,12,-1
 528 202 l 2,13,14
 534 202 534 202 539 197 c 128,-1,15
 544 192 544 192 544 186 c 2,0,-1
544 314 m 2,16,-1
 544 282 l 2,17,18
 544 276 544 276 539 271 c 128,-1,19
 534 266 534 266 528 266 c 2,20,-1
 496 266 l 2,21,22
 490 266 490 266 485 271 c 128,-1,23
 480 276 480 276 480 282 c 2,24,-1
 480 314 l 2,25,26
 480 320 480 320 485 325 c 128,-1,27
 490 330 490 330 496 330 c 2,28,-1
 528 330 l 2,29,30
 534 330 534 330 539 325 c 128,-1,31
 544 320 544 320 544 314 c 2,16,-1
672 314 m 2,32,-1
 672 282 l 2,33,34
 672 276 672 276 667 271 c 128,-1,35
 662 266 662 266 656 266 c 2,36,-1
 624 266 l 2,37,38
 618 266 618 266 613 271 c 128,-1,39
 608 276 608 276 608 282 c 2,40,-1
 608 314 l 2,41,42
 608 320 608 320 613 325 c 128,-1,43
 618 330 618 330 624 330 c 2,44,-1
 656 330 l 2,45,46
 662 330 662 330 667 325 c 128,-1,47
 672 320 672 320 672 314 c 2,32,-1
544 442 m 2,48,-1
 544 410 l 2,49,50
 544 404 544 404 539 399 c 128,-1,51
 534 394 534 394 528 394 c 2,52,-1
 496 394 l 2,53,54
 490 394 490 394 485 399 c 128,-1,55
 480 404 480 404 480 410 c 2,56,-1
 480 442 l 2,57,58
 480 448 480 448 485 453 c 128,-1,59
 490 458 490 458 496 458 c 2,60,-1
 528 458 l 2,61,62
 534 458 534 458 539 453 c 128,-1,63
 544 448 544 448 544 442 c 2,48,-1
928 186 m 2,64,-1
 928 154 l 2,65,66
 928 148 928 148 923 143 c 128,-1,67
 918 138 918 138 912 138 c 2,68,-1
 880 138 l 2,69,70
 874 138 874 138 869 143 c 128,-1,71
 864 148 864 148 864 154 c 2,72,-1
 864 186 l 2,73,74
 864 192 864 192 869 197 c 128,-1,75
 874 202 874 202 880 202 c 2,76,-1
 912 202 l 2,77,78
 918 202 918 202 923 197 c 128,-1,79
 928 192 928 192 928 186 c 2,64,-1
800 314 m 2,80,-1
 800 282 l 2,81,82
 800 276 800 276 795 271 c 128,-1,83
 790 266 790 266 784 266 c 2,84,-1
 752 266 l 2,85,86
 746 266 746 266 741 271 c 128,-1,87
 736 276 736 276 736 282 c 2,88,-1
 736 314 l 2,89,90
 736 320 736 320 741 325 c 128,-1,91
 746 330 746 330 752 330 c 2,92,-1
 784 330 l 2,93,94
 790 330 790 330 795 325 c 128,-1,95
 800 320 800 320 800 314 c 2,80,-1
672 442 m 2,96,-1
 672 410 l 2,97,98
 672 404 672 404 667 399 c 128,-1,99
 662 394 662 394 656 394 c 2,100,-1
 624 394 l 2,101,102
 618 394 618 394 613 399 c 128,-1,103
 608 404 608 404 608 410 c 2,104,-1
 608 442 l 2,105,106
 608 448 608 448 613 453 c 128,-1,107
 618 458 618 458 624 458 c 2,108,-1
 656 458 l 2,109,110
 662 458 662 458 667 453 c 128,-1,111
 672 448 672 448 672 442 c 2,96,-1
928 314 m 2,112,-1
 928 282 l 2,113,114
 928 276 928 276 923 271 c 128,-1,115
 918 266 918 266 912 266 c 2,116,-1
 880 266 l 2,117,118
 874 266 874 266 869 271 c 128,-1,119
 864 276 864 276 864 282 c 2,120,-1
 864 314 l 2,121,122
 864 320 864 320 869 325 c 128,-1,123
 874 330 874 330 880 330 c 2,124,-1
 912 330 l 2,125,126
 918 330 918 330 923 325 c 128,-1,127
 928 320 928 320 928 314 c 2,112,-1
800 442 m 2,128,-1
 800 410 l 2,129,130
 800 404 800 404 795 399 c 128,-1,131
 790 394 790 394 784 394 c 2,132,-1
 752 394 l 2,133,134
 746 394 746 394 741 399 c 128,-1,135
 736 404 736 404 736 410 c 2,136,-1
 736 442 l 2,137,138
 736 448 736 448 741 453 c 128,-1,139
 746 458 746 458 752 458 c 2,140,-1
 784 458 l 2,141,142
 790 458 790 458 795 453 c 128,-1,143
 800 448 800 448 800 442 c 2,128,-1
928 442 m 2,144,-1
 928 410 l 2,145,146
 928 404 928 404 923 399 c 128,-1,147
 918 394 918 394 912 394 c 2,148,-1
 880 394 l 2,149,150
 874 394 874 394 869 399 c 128,-1,151
 864 404 864 404 864 410 c 2,152,-1
 864 442 l 2,153,154
 864 448 864 448 869 453 c 128,-1,155
 874 458 874 458 880 458 c 2,156,-1
 912 458 l 2,157,158
 918 458 918 458 923 453 c 128,-1,159
 928 448 928 448 928 442 c 2,144,-1
800 10 m 1,160,-1
 992 10 l 1,161,-1
 992 586 l 1,162,-1
 864 586 l 1,163,-1
 864 570 l 2,164,165
 864 550 864 550 850 536 c 128,-1,166
 836 522 836 522 816 522 c 2,167,-1
 592 522 l 2,168,169
 572 522 572 522 558 536 c 128,-1,170
 544 550 544 550 544 570 c 2,171,-1
 544 586 l 1,172,-1
 416 586 l 1,173,-1
 416 10 l 1,174,-1
 608 10 l 1,175,-1
 608 122 l 2,176,177
 608 128 608 128 613 133 c 128,-1,178
 618 138 618 138 624 138 c 2,179,-1
 784 138 l 2,180,181
 790 138 790 138 795 133 c 128,-1,182
 800 128 800 128 800 122 c 2,183,-1
 800 10 l 1,160,-1
800 602 m 2,184,-1
 800 762 l 2,185,186
 800 768 800 768 795 773 c 128,-1,187
 790 778 790 778 784 778 c 2,188,-1
 752 778 l 2,189,190
 746 778 746 778 741 773 c 128,-1,191
 736 768 736 768 736 762 c 2,192,-1
 736 714 l 1,193,-1
 672 714 l 1,194,-1
 672 762 l 2,195,196
 672 768 672 768 667 773 c 128,-1,197
 662 778 662 778 656 778 c 2,198,-1
 624 778 l 2,199,200
 618 778 618 778 613 773 c 128,-1,201
 608 768 608 768 608 762 c 2,202,-1
 608 602 l 2,203,204
 608 596 608 596 613 591 c 128,-1,205
 618 586 618 586 624 586 c 2,206,-1
 656 586 l 2,207,208
 662 586 662 586 667 591 c 128,-1,209
 672 596 672 596 672 602 c 2,210,-1
 672 650 l 1,211,-1
 736 650 l 1,212,-1
 736 602 l 2,213,214
 736 596 736 596 741 591 c 128,-1,215
 746 586 746 586 752 586 c 2,216,-1
 784 586 l 2,217,218
 790 586 790 586 795 591 c 128,-1,219
 800 596 800 596 800 602 c 2,184,-1
1056 618 m 2,220,-1
 1056 -22 l 2,221,222
 1056 -35 1056 -35 1046.5 -44.5 c 128,-1,223
 1037 -54 1037 -54 1024 -54 c 2,224,-1
 384 -54 l 2,225,226
 371 -54 371 -54 361.5 -44.5 c 128,-1,227
 352 -35 352 -35 352 -22 c 2,228,-1
 352 618 l 2,229,230
 352 631 352 631 361.5 640.5 c 128,-1,231
 371 650 371 650 384 650 c 2,232,-1
 544 650 l 1,233,-1
 544 794 l 2,234,235
 544 814 544 814 558 828 c 128,-1,236
 572 842 572 842 592 842 c 2,237,-1
 816 842 l 2,238,239
 836 842 836 842 850 828 c 128,-1,240
 864 814 864 814 864 794 c 2,241,-1
 864 650 l 1,242,-1
 1024 650 l 2,243,244
 1037 650 1037 650 1046.5 640.5 c 128,-1,245
 1056 631 1056 631 1056 618 c 2,220,-1
EndSplineSet
EndChar

StartChar: uniF05B
Encoding: 61531 61531 93
Width: 1200
GlyphClass: 2
Flags: W
LayerCount: 2
Fore
SplineSet
941 627 m 1,0,-1
 940 523 l 1,1,-1
 731 314 l 1,2,-1
 664 380 l 2,3,4
 658 387 658 387 649 387 c 128,-1,5
 640 387 640 387 634 380 c 2,6,-1
 530 277 l 1,7,-1
 311 277 l 1,8,-1
 311 -3 l 1,9,-1
 206 -3 l 2,10,11
 192 -3 192 -3 181.5 7.5 c 128,-1,12
 171 18 171 18 171 32 c 2,13,-1
 171 732 l 2,14,15
 171 746 171 746 181.5 756.5 c 128,-1,16
 192 767 192 767 206 767 c 2,17,-1
 381 767 l 1,18,-1
 381 557 l 1,19,-1
 731 557 l 1,20,-1
 731 767 l 1,21,-1
 801 767 l 1,22,-1
 941 627 l 1,0,-1
661 627 m 1,23,-1
 591 627 l 1,24,-1
 591 767 l 1,25,-1
 661 767 l 1,26,-1
 661 627 l 1,23,-1
964 374 m 2,27,-1
 1038 300 l 2,28,29
 1043 295 1043 295 1043 287.5 c 128,-1,30
 1043 280 1043 280 1038 275 c 2,31,-1
 744 -19 l 2,32,33
 738 -24 738 -24 731 -24 c 128,-1,34
 724 -24 724 -24 719 -19 c 2,35,-1
 577 123 l 2,36,37
 572 128 572 128 572 135 c 128,-1,38
 572 142 572 142 577 147 c 2,39,-1
 651 221 l 2,40,41
 656 227 656 227 663.5 227 c 128,-1,42
 671 227 671 227 676 221 c 2,43,-1
 731 166 l 1,44,-1
 939 374 l 2,45,46
 944 379 944 379 951.5 379 c 128,-1,47
 959 379 959 379 964 374 c 2,27,-1
EndSplineSet
EndChar

StartChar: uniF05C
Encoding: 61532 61532 94
Width: 1200
GlyphClass: 2
Flags: W
LayerCount: 2
Fore
SplineSet
965 623 m 1,0,-1
 965 435 l 1,1,-1
 893 363 l 1,2,-1
 799 456 l 2,3,4
 789 467 789 467 776 468 c 128,-1,5
 763 469 763 469 752 459 c 2,6,-1
 566 273 l 1,7,-1
 335 273 l 1,8,-1
 335 -7 l 1,9,-1
 230 -7 l 2,10,11
 216 -7 216 -7 205.5 3 c 128,-1,12
 195 13 195 13 195 28 c 2,13,-1
 195 728 l 2,14,15
 195 742 195 742 205.5 752.5 c 128,-1,16
 216 763 216 763 230 763 c 2,17,-1
 405 763 l 1,18,-1
 405 553 l 1,19,-1
 755 553 l 1,20,-1
 755 763 l 1,21,-1
 825 763 l 1,22,-1
 965 623 l 1,0,-1
685 623 m 1,23,-1
 615 623 l 1,24,-1
 615 763 l 1,25,-1
 685 763 l 1,26,-1
 685 623 l 1,23,-1
1037 323 m 2,27,-1
 1086 274 l 2,28,29
 1096 264 1096 264 1096 249.5 c 128,-1,30
 1096 235 1096 235 1086 225 c 2,31,-1
 994 133 l 1,32,-1
 1086 41 l 2,33,34
 1096 31 1096 31 1096 16.5 c 128,-1,35
 1096 2 1096 2 1086 -8 c 2,36,-1
 1037 -57 l 2,37,38
 1026 -68 1026 -68 1012 -68 c 128,-1,39
 998 -68 998 -68 987 -57 c 2,40,-1
 895 34 l 1,41,-1
 804 -57 l 2,42,43
 793 -68 793 -68 778.5 -68 c 128,-1,44
 764 -68 764 -68 754 -57 c 2,45,-1
 705 -8 l 2,46,47
 694 2 694 2 694 16.5 c 128,-1,48
 694 31 694 31 705 41 c 2,49,-1
 797 133 l 1,50,-1
 705 225 l 2,51,52
 694 235 694 235 694 249.5 c 128,-1,53
 694 264 694 264 705 274 c 2,54,-1
 754 323 l 2,55,56
 764 334 764 334 778.5 334 c 128,-1,57
 793 334 793 334 804 323 c 2,58,-1
 895 232 l 1,59,-1
 987 323 l 2,60,61
 998 334 998 334 1012 334 c 128,-1,62
 1026 334 1026 334 1037 323 c 2,27,-1
EndSplineSet
EndChar

StartChar: uniF05D
Encoding: 61533 61533 95
Width: 1784
GlyphClass: 2
Flags: W
LayerCount: 2
Fore
SplineSet
913 636 m 1,0,-1
 913 426 l 1,1,-1
 668 426 l 2,2,3
 653 426 653 426 643 416 c 128,-1,4
 633 406 633 406 633 392 c 2,5,-1
 633 286 l 1,6,-1
 283 286 l 1,7,-1
 283 6 l 1,8,-1
 178 6 l 2,9,10
 163 6 163 6 153 16.5 c 128,-1,11
 143 27 143 27 143 42 c 2,12,-1
 143 742 l 2,13,14
 143 756 143 756 153 766 c 128,-1,15
 163 776 163 776 178 776 c 2,16,-1
 353 776 l 1,17,-1
 353 566 l 1,18,-1
 703 566 l 1,19,-1
 703 776 l 1,20,-1
 773 776 l 1,21,-1
 913 636 l 1,0,-1
633 636 m 1,22,-1
 563 636 l 1,23,-1
 563 776 l 1,24,-1
 633 776 l 1,25,-1
 633 636 l 1,22,-1
738 356 m 2,26,-1
 808 356 l 2,27,28
 823 356 823 356 833 346 c 128,-1,29
 843 336 843 336 843 322 c 2,30,-1
 843 146 l 1,31,-1
 948 146 l 2,32,33
 963 146 963 146 965.5 139 c 128,-1,34
 968 132 968 132 958 122 c 2,35,-1
 797 -39 l 2,36,37
 788 -49 788 -49 773 -49 c 128,-1,38
 758 -49 758 -49 748 -39 c 2,39,-1
 587 122 l 2,40,41
 578 132 578 132 580.5 139 c 128,-1,42
 583 146 583 146 598 146 c 2,43,-1
 703 146 l 1,44,-1
 703 322 l 2,45,46
 703 336 703 336 713 346 c 128,-1,47
 723 356 723 356 738 356 c 2,26,-1
EndSplineSet
EndChar

StartChar: uniF05E
Encoding: 61534 61534 96
Width: 1200
GlyphClass: 2
Flags: W
LayerCount: 2
Fore
SplineSet
961 634 m 1,0,-1
 961 354 l 1,1,-1
 845 470 l 2,2,3
 836 480 836 480 821 480 c 128,-1,4
 806 480 806 480 796 470 c 2,5,-1
 612 284 l 1,6,-1
 331 284 l 1,7,-1
 331 4 l 1,8,-1
 226 4 l 2,9,10
 211 4 211 4 201 14.5 c 128,-1,11
 191 25 191 25 191 40 c 2,12,-1
 191 740 l 2,13,14
 191 754 191 754 201 764 c 128,-1,15
 211 774 211 774 226 774 c 2,16,-1
 401 774 l 1,17,-1
 401 564 l 1,18,-1
 751 564 l 1,19,-1
 751 774 l 1,20,-1
 821 774 l 1,21,-1
 961 634 l 1,0,-1
681 634 m 1,22,-1
 611 634 l 1,23,-1
 611 774 l 1,24,-1
 681 774 l 1,25,-1
 681 634 l 1,22,-1
845 330 m 2,26,-1
 1006 170 l 2,27,28
 1016 159 1016 159 1013.5 151.5 c 128,-1,29
 1011 144 1011 144 996 144 c 2,30,-1
 891 144 l 1,31,-1
 891 -30 l 2,32,33
 891 -44 891 -44 881 -55 c 128,-1,34
 871 -66 871 -66 856 -66 c 2,35,-1
 786 -66 l 2,36,37
 771 -66 771 -66 761 -55 c 128,-1,38
 751 -44 751 -44 751 -30 c 2,39,-1
 751 144 l 1,40,-1
 646 144 l 2,41,42
 631 144 631 144 628.5 151.5 c 128,-1,43
 626 159 626 159 635 170 c 2,44,-1
 796 330 l 2,45,46
 806 340 806 340 821 340 c 128,-1,47
 836 340 836 340 845 330 c 2,26,-1
EndSplineSet
EndChar

StartChar: uniF05F
Encoding: 61535 61535 97
Width: 1200
GlyphClass: 2
Flags: W
LayerCount: 2
Fore
SplineSet
273 92 m 1,0,-1
 203 92 l 1,1,-1
 203 792 l 1,2,-1
 273 792 l 1,3,-1
 273 92 l 1,0,-1
413 92 m 1,4,-1
 343 92 l 1,5,-1
 343 792 l 1,6,-1
 413 792 l 1,7,-1
 413 92 l 1,4,-1
693 92 m 1,8,-1
 553 92 l 1,9,-1
 553 792 l 1,10,-1
 693 792 l 1,11,-1
 693 92 l 1,8,-1
833 92 m 1,12,-1
 763 92 l 1,13,-1
 763 792 l 1,14,-1
 833 792 l 1,15,-1
 833 92 l 1,12,-1
1043 92 m 1,16,-1
 903 92 l 1,17,-1
 903 792 l 1,18,-1
 1043 792 l 1,19,-1
 1043 92 l 1,16,-1
483 -48 m 1,20,-1
 273 -48 l 1,21,-1
 273 22 l 1,22,-1
 483 22 l 1,23,-1
 483 -48 l 1,20,-1
623 -48 m 1,24,-1
 553 -48 l 1,25,-1
 553 16 l 1,26,-1
 623 16 l 1,27,-1
 623 -48 l 1,24,-1
763 -48 m 1,28,-1
 693 -48 l 1,29,-1
 693 16 l 1,30,-1
 763 16 l 1,31,-1
 763 -48 l 1,28,-1
973 -48 m 1,32,-1
 833 -48 l 1,33,-1
 833 16 l 1,34,-1
 973 16 l 1,35,-1
 973 -48 l 1,32,-1
EndSplineSet
EndChar

StartChar: uniF060
Encoding: 61536 61536 98
Width: 1920
GlyphClass: 2
Flags: W
LayerCount: 2
Fore
SplineSet
816 148 m 128,-1,1
 816 174 816 174 797 193 c 128,-1,2
 778 212 778 212 752 212 c 128,-1,3
 726 212 726 212 707 193 c 128,-1,4
 688 174 688 174 688 148 c 128,-1,5
 688 122 688 122 707 103 c 128,-1,6
 726 84 726 84 752 84 c 128,-1,7
 778 84 778 84 797 103 c 128,-1,0
 816 122 816 122 816 148 c 128,-1,1
624 404 m 1,8,-1
 816 404 l 1,9,-1
 816 532 l 1,10,-1
 737 532 l 2,11,12
 730 531 730 531 726 528 c 2,13,-1
 628 430 l 2,14,15
 625 424 625 424 624 419 c 2,16,-1
 624 404 l 1,8,-1
1264 148 m 128,-1,18
 1264 174 1264 174 1245 193 c 128,-1,19
 1226 212 1226 212 1200 212 c 128,-1,20
 1174 212 1174 212 1155 193 c 128,-1,21
 1136 174 1136 174 1136 148 c 128,-1,22
 1136 122 1136 122 1155 103 c 128,-1,23
 1174 84 1174 84 1200 84 c 128,-1,24
 1226 84 1226 84 1245 103 c 128,-1,17
 1264 122 1264 122 1264 148 c 128,-1,18
1328 484 m 2,25,-1
 1328 580 l 2,26,27
 1328 587 1328 587 1323.5 591.5 c 128,-1,28
 1319 596 1319 596 1312 596 c 2,29,-1
 1200 596 l 1,30,-1
 1200 708 l 2,31,32
 1200 715 1200 715 1195.5 719.5 c 128,-1,33
 1191 724 1191 724 1184 724 c 2,34,-1
 1088 724 l 2,35,36
 1081 724 1081 724 1076.5 719.5 c 128,-1,37
 1072 715 1072 715 1072 708 c 2,38,-1
 1072 596 l 1,39,-1
 960 596 l 2,40,41
 953 596 953 596 948.5 591.5 c 128,-1,42
 944 587 944 587 944 580 c 2,43,-1
 944 484 l 2,44,45
 944 477 944 477 948.5 472.5 c 128,-1,46
 953 468 953 468 960 468 c 2,47,-1
 1072 468 l 1,48,-1
 1072 356 l 2,49,50
 1072 349 1072 349 1076.5 344.5 c 128,-1,51
 1081 340 1081 340 1088 340 c 2,52,-1
 1184 340 l 2,53,54
 1191 340 1191 340 1195.5 344.5 c 128,-1,55
 1200 349 1200 349 1200 356 c 2,56,-1
 1200 468 l 1,57,-1
 1312 468 l 2,58,59
 1319 468 1319 468 1323.5 472.5 c 128,-1,60
 1328 477 1328 477 1328 484 c 2,25,-1
1456 756 m 2,61,-1
 1456 180 l 2,62,63
 1456 167 1456 167 1446.5 157.5 c 128,-1,64
 1437 148 1437 148 1424 148 c 2,65,-1
 1328 148 l 1,66,67
 1328 95 1328 95 1290.5 57.5 c 128,-1,68
 1253 20 1253 20 1200 20 c 128,-1,69
 1147 20 1147 20 1109.5 57.5 c 128,-1,70
 1072 95 1072 95 1072 148 c 1,71,-1
 880 148 l 1,72,73
 880 95 880 95 842.5 57.5 c 128,-1,74
 805 20 805 20 752 20 c 128,-1,75
 699 20 699 20 661.5 57.5 c 128,-1,76
 624 95 624 95 624 148 c 1,77,-1
 560 148 l 2,78,79
 547 148 547 148 537.5 157.5 c 128,-1,80
 528 167 528 167 528 180 c 128,-1,81
 528 193 528 193 537.5 202.5 c 128,-1,82
 547 212 547 212 560 212 c 1,83,-1
 560 420 l 2,84,85
 560 433 560 433 566.5 449 c 128,-1,86
 573 465 573 465 582 474 c 2,87,-1
 682 574 l 2,88,89
 691 583 691 583 707 589.5 c 128,-1,90
 723 596 723 596 736 596 c 2,91,-1
 816 596 l 1,92,-1
 816 756 l 2,93,94
 816 769 816 769 825.5 778.5 c 128,-1,95
 835 788 835 788 848 788 c 2,96,-1
 1424 788 l 2,97,98
 1437 788 1437 788 1446.5 778.5 c 128,-1,99
 1456 769 1456 769 1456 756 c 2,61,-1
EndSplineSet
EndChar

StartChar: uniF061
Encoding: 61537 61537 99
Width: 1792
GlyphClass: 2
Flags: W
LayerCount: 2
Fore
SplineSet
1088 292 m 2,0,-1
 1088 388 l 2,1,2
 1088 395 1088 395 1083.5 399.5 c 128,-1,3
 1079 404 1079 404 1072 404 c 2,4,-1
 960 404 l 1,5,-1
 960 516 l 2,6,7
 960 523 960 523 955.5 527.5 c 128,-1,8
 951 532 951 532 944 532 c 2,9,-1
 848 532 l 2,10,11
 841 532 841 532 836.5 527.5 c 128,-1,12
 832 523 832 523 832 516 c 2,13,-1
 832 404 l 1,14,-1
 720 404 l 2,15,16
 713 404 713 404 708.5 399.5 c 128,-1,17
 704 395 704 395 704 388 c 2,18,-1
 704 292 l 2,19,20
 704 285 704 285 708.5 280.5 c 128,-1,21
 713 276 713 276 720 276 c 2,22,-1
 832 276 l 1,23,-1
 832 164 l 2,24,25
 832 157 832 157 836.5 152.5 c 128,-1,26
 841 148 841 148 848 148 c 2,27,-1
 944 148 l 2,28,29
 951 148 951 148 955.5 152.5 c 128,-1,30
 960 157 960 157 960 164 c 2,31,-1
 960 276 l 1,32,-1
 1072 276 l 2,33,34
 1079 276 1079 276 1083.5 280.5 c 128,-1,35
 1088 285 1088 285 1088 292 c 2,0,-1
768 660 m 1,36,-1
 1024 660 l 1,37,-1
 1024 724 l 1,38,-1
 768 724 l 1,39,-1
 768 660 l 1,36,-1
576 660 m 1,40,-1
 576 20 l 1,41,-1
 560 20 l 2,42,43
 514 20 514 20 481 53 c 128,-1,44
 448 86 448 86 448 132 c 2,45,-1
 448 548 l 2,46,47
 448 594 448 594 481 627 c 128,-1,48
 514 660 514 660 560 660 c 2,49,-1
 576 660 l 1,40,-1
1168 660 m 1,50,-1
 1168 20 l 1,51,-1
 624 20 l 1,52,-1
 624 660 l 1,53,-1
 704 660 l 1,54,-1
 704 740 l 2,55,56
 704 760 704 760 718 774 c 128,-1,57
 732 788 732 788 752 788 c 2,58,-1
 1040 788 l 2,59,60
 1060 788 1060 788 1074 774 c 128,-1,61
 1088 760 1088 760 1088 740 c 2,62,-1
 1088 660 l 1,63,-1
 1168 660 l 1,50,-1
1344 548 m 2,64,-1
 1344 132 l 2,65,66
 1344 86 1344 86 1311 53 c 128,-1,67
 1278 20 1278 20 1232 20 c 2,68,-1
 1216 20 l 1,69,-1
 1216 660 l 1,70,-1
 1232 660 l 2,71,72
 1278 660 1278 660 1311 627 c 128,-1,73
 1344 594 1344 594 1344 548 c 2,64,-1
EndSplineSet
EndChar

StartChar: uniF062
Encoding: 61538 61538 100
Width: 1536
GlyphClass: 2
Flags: W
LayerCount: 2
Fore
SplineSet
1024 180 m 2,0,-1
 1024 628 l 2,1,2
 1024 641 1024 641 1014.5 650.5 c 128,-1,3
 1005 660 1005 660 992 660 c 2,4,-1
 928 660 l 2,5,6
 915 660 915 660 905.5 650.5 c 128,-1,7
 896 641 896 641 896 628 c 2,8,-1
 896 468 l 1,9,-1
 640 468 l 1,10,-1
 640 628 l 2,11,12
 640 641 640 641 630.5 650.5 c 128,-1,13
 621 660 621 660 608 660 c 2,14,-1
 544 660 l 2,15,16
 531 660 531 660 521.5 650.5 c 128,-1,17
 512 641 512 641 512 628 c 2,18,-1
 512 180 l 2,19,20
 512 167 512 167 521.5 157.5 c 128,-1,21
 531 148 531 148 544 148 c 2,22,-1
 608 148 l 2,23,24
 621 148 621 148 630.5 157.5 c 128,-1,25
 640 167 640 167 640 180 c 2,26,-1
 640 340 l 1,27,-1
 896 340 l 1,28,-1
 896 180 l 2,29,30
 896 167 896 167 905.5 157.5 c 128,-1,31
 915 148 915 148 928 148 c 2,32,-1
 992 148 l 2,33,34
 1005 148 1005 148 1014.5 157.5 c 128,-1,35
 1024 167 1024 167 1024 180 c 2,0,-1
1152 644 m 2,36,-1
 1152 164 l 2,37,38
 1152 104 1152 104 1110 62 c 128,-1,39
 1068 20 1068 20 1008 20 c 2,40,-1
 528 20 l 2,41,42
 468 20 468 20 426 62 c 128,-1,43
 384 104 384 104 384 164 c 2,44,-1
 384 644 l 2,45,46
 384 704 384 704 426 746 c 128,-1,47
 468 788 468 788 528 788 c 2,48,-1
 1008 788 l 2,49,50
 1068 788 1068 788 1110 746 c 128,-1,51
 1152 704 1152 704 1152 644 c 2,36,-1
EndSplineSet
EndChar

StartChar: uniF063
Encoding: 61539 61539 101
Width: 1066
GlyphClass: 2
Flags: W
LayerCount: 2
Fore
SplineSet
944 320 m 2,0,-1
 944 736 l 2,1,2
 944 742 944 742 939 747 c 128,-1,3
 934 752 934 752 928 752 c 2,4,-1
 128 752 l 2,5,6
 122 752 122 752 117 747 c 128,-1,7
 112 742 112 742 112 736 c 2,8,-1
 112 320 l 2,9,10
 112 313 112 313 117 308.5 c 128,-1,11
 122 304 122 304 128 304 c 2,12,-1
 928 304 l 2,13,14
 934 304 934 304 939 308.5 c 128,-1,15
 944 313 944 313 944 320 c 2,0,-1
1008 736 m 2,16,-1
 1008 192 l 2,17,18
 1008 158 1008 158 984.5 135 c 128,-1,19
 961 112 961 112 928 112 c 2,20,-1
 656 112 l 1,21,22
 656 93 656 93 664 72.5 c 128,-1,23
 672 52 672 52 680 37 c 128,-1,24
 688 22 688 22 688 16 c 0,25,26
 688 2 688 2 678.5 -7 c 128,-1,27
 669 -16 669 -16 656 -16 c 2,28,-1
 400 -16 l 2,29,30
 387 -16 387 -16 377.5 -7 c 128,-1,31
 368 2 368 2 368 16 c 0,32,33
 368 22 368 22 376 37 c 128,-1,34
 384 52 384 52 392 72 c 128,-1,35
 400 92 400 92 400 112 c 1,36,-1
 128 112 l 2,37,38
 95 112 95 112 71.5 135 c 128,-1,39
 48 158 48 158 48 192 c 2,40,-1
 48 736 l 2,41,42
 48 768 48 768 71.5 792 c 128,-1,43
 95 816 95 816 128 816 c 2,44,-1
 928 816 l 2,45,46
 961 816 961 816 984.5 792 c 128,-1,47
 1008 768 1008 768 1008 736 c 2,16,-1
EndSplineSet
EndChar

StartChar: uniF064
Encoding: 61540 61540 102
Width: 768
GlyphClass: 2
Flags: W
LayerCount: 2
Fore
SplineSet
412 140 m 128,-1,1
 412 156 412 156 400 168 c 128,-1,2
 388 180 388 180 372 180 c 128,-1,3
 356 180 356 180 344 168 c 128,-1,4
 332 156 332 156 332 140 c 128,-1,5
 332 124 332 124 344 112 c 128,-1,6
 356 100 356 100 372 100 c 128,-1,7
 388 100 388 100 400 112 c 128,-1,0
 412 124 412 124 412 140 c 128,-1,1
516 220 m 2,8,-1
 516 572 l 2,9,10
 516 578 516 578 511 583 c 128,-1,11
 506 588 506 588 500 588 c 2,12,-1
 244 588 l 2,13,14
 238 588 238 588 233 583 c 128,-1,15
 228 578 228 578 228 572 c 2,16,-1
 228 220 l 2,17,18
 228 214 228 214 233 209 c 128,-1,19
 238 204 238 204 244 204 c 2,20,-1
 500 204 l 2,21,22
 506 204 506 204 511 209 c 128,-1,23
 516 214 516 214 516 220 c 2,8,-1
420 644 m 128,-1,25
 420 652 420 652 412 652 c 2,26,-1
 332 652 l 2,27,28
 324 652 324 652 324 644 c 128,-1,29
 324 636 324 636 332 636 c 2,30,-1
 412 636 l 2,31,24
 420 636 420 636 420 644 c 128,-1,25
564 652 m 2,32,-1
 564 140 l 2,33,34
 564 114 564 114 545 95 c 128,-1,35
 526 76 526 76 500 76 c 2,36,-1
 244 76 l 2,37,38
 218 76 218 76 199 95 c 128,-1,39
 180 114 180 114 180 140 c 2,40,-1
 180 652 l 2,41,42
 180 678 180 678 199 697 c 128,-1,43
 218 716 218 716 244 716 c 2,44,-1
 500 716 l 2,45,46
 526 716 526 716 545 697 c 128,-1,47
 564 678 564 678 564 652 c 2,32,-1
EndSplineSet
EndChar

StartChar: uniF065
Encoding: 61541 61541 103
Width: 1536
GlyphClass: 2
Flags: W
LayerCount: 2
Fore
SplineSet
951 316 m 0,0,1
 932 256 932 256 882 219 c 128,-1,2
 832 182 832 182 768 182 c 128,-1,3
 704 182 704 182 654 219 c 128,-1,4
 604 256 604 256 585 316 c 0,5,6
 581 329 581 329 587 340.5 c 128,-1,7
 593 352 593 352 606 356 c 0,8,9
 618 360 618 360 630 354 c 128,-1,10
 642 348 642 348 646 336 c 0,11,12
 658 296 658 296 692 271 c 128,-1,13
 726 246 726 246 768 246 c 128,-1,14
 810 246 810 246 844 271 c 128,-1,15
 878 296 878 296 890 336 c 0,16,17
 894 348 894 348 906 354 c 128,-1,18
 918 360 918 360 930.5 356 c 128,-1,19
 943 352 943 352 949 340.5 c 128,-1,20
 955 329 955 329 951 316 c 0,0,1
704 534 m 128,-1,22
 704 508 704 508 685 489 c 128,-1,23
 666 470 666 470 640 470 c 128,-1,24
 614 470 614 470 595 489 c 128,-1,25
 576 508 576 508 576 534 c 128,-1,26
 576 560 576 560 595 579 c 128,-1,27
 614 598 614 598 640 598 c 128,-1,28
 666 598 666 598 685 579 c 128,-1,21
 704 560 704 560 704 534 c 128,-1,22
960 534 m 128,-1,30
 960 508 960 508 941 489 c 128,-1,31
 922 470 922 470 896 470 c 128,-1,32
 870 470 870 470 851 489 c 128,-1,33
 832 508 832 508 832 534 c 128,-1,34
 832 560 832 560 851 579 c 128,-1,35
 870 598 870 598 896 598 c 128,-1,36
 922 598 922 598 941 579 c 128,-1,29
 960 560 960 560 960 534 c 128,-1,30
1088 406 m 128,-1,38
 1088 471 1088 471 1062.5 530.5 c 128,-1,39
 1037 590 1037 590 994.5 632.5 c 128,-1,40
 952 675 952 675 892.5 700.5 c 128,-1,41
 833 726 833 726 768 726 c 128,-1,42
 703 726 703 726 643.5 700.5 c 128,-1,43
 584 675 584 675 541.5 632.5 c 128,-1,44
 499 590 499 590 473.5 530.5 c 128,-1,45
 448 471 448 471 448 406 c 128,-1,46
 448 341 448 341 473.5 281.5 c 128,-1,47
 499 222 499 222 541.5 179.5 c 128,-1,48
 584 137 584 137 643.5 111.5 c 128,-1,49
 703 86 703 86 768 86 c 128,-1,50
 833 86 833 86 892.5 111.5 c 128,-1,51
 952 137 952 137 994.5 179.5 c 128,-1,52
 1037 222 1037 222 1062.5 281.5 c 128,-1,37
 1088 341 1088 341 1088 406 c 128,-1,38
1152 406 m 128,-1,54
 1152 302 1152 302 1100.5 213.5 c 128,-1,55
 1049 125 1049 125 960.5 73.5 c 128,-1,56
 872 22 872 22 768 22 c 128,-1,57
 664 22 664 22 575.5 73.5 c 128,-1,58
 487 125 487 125 435.5 213.5 c 128,-1,59
 384 302 384 302 384 406 c 128,-1,60
 384 510 384 510 435.5 598.5 c 128,-1,61
 487 687 487 687 575.5 738.5 c 128,-1,62
 664 790 664 790 768 790 c 128,-1,63
 872 790 872 790 960.5 738.5 c 128,-1,64
 1049 687 1049 687 1100.5 598.5 c 128,-1,53
 1152 510 1152 510 1152 406 c 128,-1,54
EndSplineSet
EndChar

StartChar: uniF066
Encoding: 61542 61542 104
Width: 1536
GlyphClass: 2
Flags: W
LayerCount: 2
Fore
SplineSet
951 234 m 0,0,1
 955 221 955 221 949 209.5 c 128,-1,2
 943 198 943 198 930.5 194 c 128,-1,3
 918 190 918 190 906 196 c 128,-1,4
 894 202 894 202 890 214 c 0,5,6
 878 254 878 254 844 279 c 128,-1,7
 810 304 810 304 768 304 c 128,-1,8
 726 304 726 304 692 279 c 128,-1,9
 658 254 658 254 646 214 c 0,10,11
 642 202 642 202 630 196 c 128,-1,12
 618 190 618 190 606 194 c 0,13,14
 593 198 593 198 587 209.5 c 128,-1,15
 581 221 581 221 585 234 c 0,16,17
 604 294 604 294 654 331 c 128,-1,18
 704 368 704 368 768 368 c 128,-1,19
 832 368 832 368 882 331 c 128,-1,20
 932 294 932 294 951 234 c 0,0,1
704 528 m 128,-1,22
 704 502 704 502 685 483 c 128,-1,23
 666 464 666 464 640 464 c 128,-1,24
 614 464 614 464 595 483 c 128,-1,25
 576 502 576 502 576 528 c 128,-1,26
 576 554 576 554 595 573 c 128,-1,27
 614 592 614 592 640 592 c 128,-1,28
 666 592 666 592 685 573 c 128,-1,21
 704 554 704 554 704 528 c 128,-1,22
960 528 m 128,-1,30
 960 502 960 502 941 483 c 128,-1,31
 922 464 922 464 896 464 c 128,-1,32
 870 464 870 464 851 483 c 128,-1,33
 832 502 832 502 832 528 c 128,-1,34
 832 554 832 554 851 573 c 128,-1,35
 870 592 870 592 896 592 c 128,-1,36
 922 592 922 592 941 573 c 128,-1,29
 960 554 960 554 960 528 c 128,-1,30
1088 400 m 128,-1,38
 1088 465 1088 465 1062.5 524.5 c 128,-1,39
 1037 584 1037 584 994.5 626.5 c 128,-1,40
 952 669 952 669 892.5 694.5 c 128,-1,41
 833 720 833 720 768 720 c 128,-1,42
 703 720 703 720 643.5 694.5 c 128,-1,43
 584 669 584 669 541.5 626.5 c 128,-1,44
 499 584 499 584 473.5 524.5 c 128,-1,45
 448 465 448 465 448 400 c 128,-1,46
 448 335 448 335 473.5 275.5 c 128,-1,47
 499 216 499 216 541.5 173.5 c 128,-1,48
 584 131 584 131 643.5 105.5 c 128,-1,49
 703 80 703 80 768 80 c 128,-1,50
 833 80 833 80 892.5 105.5 c 128,-1,51
 952 131 952 131 994.5 173.5 c 128,-1,52
 1037 216 1037 216 1062.5 275.5 c 128,-1,37
 1088 335 1088 335 1088 400 c 128,-1,38
1152 400 m 128,-1,54
 1152 296 1152 296 1100.5 207.5 c 128,-1,55
 1049 119 1049 119 960.5 67.5 c 128,-1,56
 872 16 872 16 768 16 c 128,-1,57
 664 16 664 16 575.5 67.5 c 128,-1,58
 487 119 487 119 435.5 207.5 c 128,-1,59
 384 296 384 296 384 400 c 128,-1,60
 384 504 384 504 435.5 592.5 c 128,-1,61
 487 681 487 681 575.5 732.5 c 128,-1,62
 664 784 664 784 768 784 c 128,-1,63
 872 784 872 784 960.5 732.5 c 128,-1,64
 1049 681 1049 681 1100.5 592.5 c 128,-1,53
 1152 504 1152 504 1152 400 c 128,-1,54
EndSplineSet
EndChar

StartChar: uniF067
Encoding: 61543 61543 105
Width: 1536
GlyphClass: 2
Flags: W
LayerCount: 2
Fore
SplineSet
960 308 m 128,-1,1
 960 295 960 295 950.5 285.5 c 128,-1,2
 941 276 941 276 928 276 c 2,3,-1
 608 276 l 2,4,5
 595 276 595 276 585.5 285.5 c 128,-1,6
 576 295 576 295 576 308 c 128,-1,7
 576 321 576 321 585.5 330.5 c 128,-1,8
 595 340 595 340 608 340 c 2,9,-1
 928 340 l 2,10,11
 941 340 941 340 950.5 330.5 c 128,-1,0
 960 321 960 321 960 308 c 128,-1,1
704 532 m 128,-1,13
 704 506 704 506 685 487 c 128,-1,14
 666 468 666 468 640 468 c 128,-1,15
 614 468 614 468 595 487 c 128,-1,16
 576 506 576 506 576 532 c 128,-1,17
 576 558 576 558 595 577 c 128,-1,18
 614 596 614 596 640 596 c 128,-1,19
 666 596 666 596 685 577 c 128,-1,12
 704 558 704 558 704 532 c 128,-1,13
960 532 m 128,-1,21
 960 506 960 506 941 487 c 128,-1,22
 922 468 922 468 896 468 c 128,-1,23
 870 468 870 468 851 487 c 128,-1,24
 832 506 832 506 832 532 c 128,-1,25
 832 558 832 558 851 577 c 128,-1,26
 870 596 870 596 896 596 c 128,-1,27
 922 596 922 596 941 577 c 128,-1,20
 960 558 960 558 960 532 c 128,-1,21
1088 404 m 128,-1,29
 1088 469 1088 469 1062.5 528.5 c 128,-1,30
 1037 588 1037 588 994.5 630.5 c 128,-1,31
 952 673 952 673 892.5 698.5 c 128,-1,32
 833 724 833 724 768 724 c 128,-1,33
 703 724 703 724 643.5 698.5 c 128,-1,34
 584 673 584 673 541.5 630.5 c 128,-1,35
 499 588 499 588 473.5 528.5 c 128,-1,36
 448 469 448 469 448 404 c 128,-1,37
 448 339 448 339 473.5 279.5 c 128,-1,38
 499 220 499 220 541.5 177.5 c 128,-1,39
 584 135 584 135 643.5 109.5 c 128,-1,40
 703 84 703 84 768 84 c 128,-1,41
 833 84 833 84 892.5 109.5 c 128,-1,42
 952 135 952 135 994.5 177.5 c 128,-1,43
 1037 220 1037 220 1062.5 279.5 c 128,-1,28
 1088 339 1088 339 1088 404 c 128,-1,29
1152 404 m 128,-1,45
 1152 300 1152 300 1100.5 211.5 c 128,-1,46
 1049 123 1049 123 960.5 71.5 c 128,-1,47
 872 20 872 20 768 20 c 128,-1,48
 664 20 664 20 575.5 71.5 c 128,-1,49
 487 123 487 123 435.5 211.5 c 128,-1,50
 384 300 384 300 384 404 c 128,-1,51
 384 508 384 508 435.5 596.5 c 128,-1,52
 487 685 487 685 575.5 736.5 c 128,-1,53
 664 788 664 788 768 788 c 128,-1,54
 872 788 872 788 960.5 736.5 c 128,-1,55
 1049 685 1049 685 1100.5 596.5 c 128,-1,44
 1152 508 1152 508 1152 404 c 128,-1,45
EndSplineSet
EndChar

StartChar: uniF068
Encoding: 61544 61544 106
Width: 1024
GlyphClass: 2
Flags: W
LayerCount: 2
Fore
SplineSet
631 228 m 2,0,-1
 631 108 l 2,1,2
 631 100 631 100 625 94 c 128,-1,3
 619 88 619 88 611 88 c 2,4,-1
 491 88 l 2,5,6
 483 88 483 88 477 94 c 128,-1,7
 471 100 471 100 471 108 c 2,8,-1
 471 228 l 2,9,10
 471 236 471 236 477 242 c 128,-1,11
 483 248 483 248 491 248 c 2,12,-1
 611 248 l 2,13,14
 619 248 619 248 625 242 c 128,-1,15
 631 236 631 236 631 228 c 2,0,-1
789 528 m 0,16,17
 789 501 789 501 781 477.5 c 128,-1,18
 773 454 773 454 763.5 439 c 128,-1,19
 754 424 754 424 736 409 c 128,-1,20
 718 394 718 394 707 387.5 c 128,-1,21
 696 381 696 381 677 370 c 0,22,23
 656 358 656 358 642.5 337 c 128,-1,24
 629 316 629 316 629 304 c 0,25,26
 629 296 629 296 623 288 c 128,-1,27
 617 280 617 280 609 280 c 2,28,-1
 489 280 l 2,29,30
 481 280 481 280 476 289 c 128,-1,31
 471 298 471 298 471 308 c 2,32,-1
 471 330 l 2,33,34
 471 372 471 372 503.5 409 c 128,-1,35
 536 446 536 446 575 463 c 0,36,37
 604 476 604 476 616.5 491 c 128,-1,38
 629 506 629 506 629 529 c 0,39,40
 629 550 629 550 606 566 c 128,-1,41
 583 582 583 582 552 582 c 0,42,43
 520 582 520 582 498 568 c 0,44,45
 481 555 481 555 445 510 c 0,46,47
 438 502 438 502 429 502 c 0,48,49
 423 502 423 502 417 506 c 2,50,-1
 335 568 l 2,51,52
 328 574 328 574 327 581 c 128,-1,53
 326 588 326 588 330 595 c 0,54,55
 410 728 410 728 562 728 c 0,56,57
 602 728 602 728 642.5 712.5 c 128,-1,58
 683 697 683 697 715.5 671 c 128,-1,59
 748 645 748 645 768.5 607.5 c 128,-1,60
 789 570 789 570 789 528 c 0,16,17
EndSplineSet
EndChar

StartChar: uniF069
Encoding: 61545 61545 107
Width: 1152
GlyphClass: 2
Flags: W
LayerCount: 2
Fore
SplineSet
816 400 m 2,0,1
 836 400 836 400 850 386 c 128,-1,2
 864 372 864 372 864 352 c 2,3,-1
 864 64 l 2,4,5
 864 44 864 44 850 30 c 128,-1,6
 836 16 836 16 816 16 c 2,7,-1
 336 16 l 2,8,9
 316 16 316 16 302 30 c 128,-1,10
 288 44 288 44 288 64 c 2,11,-1
 288 352 l 2,12,13
 288 372 288 372 302 386 c 128,-1,14
 316 400 316 400 336 400 c 2,15,-1
 352 400 l 1,16,-1
 352 560 l 2,17,18
 352 652 352 652 418 718 c 128,-1,19
 484 784 484 784 576 784 c 128,-1,20
 668 784 668 784 734 718 c 128,-1,21
 800 652 800 652 800 560 c 0,22,23
 800 547 800 547 790.5 537.5 c 128,-1,24
 781 528 781 528 768 528 c 2,25,-1
 736 528 l 2,26,27
 723 528 723 528 713.5 537.5 c 128,-1,28
 704 547 704 547 704 560 c 0,29,30
 704 613 704 613 666.5 650.5 c 128,-1,31
 629 688 629 688 576 688 c 128,-1,32
 523 688 523 688 485.5 650.5 c 128,-1,33
 448 613 448 613 448 560 c 2,34,-1
 448 400 l 1,35,-1
 816 400 l 2,0,1
EndSplineSet
EndChar

StartChar: uniF06A
Encoding: 61546 61546 108
Width: 1100
GlyphClass: 2
Flags: W
LayerCount: 2
Fore
SplineSet
475 837 m 2,0,-1
 615 837 l 2,1,2
 630 837 630 837 640 826.5 c 128,-1,3
 650 816 650 816 650 802 c 2,4,-1
 650 557 l 1,5,-1
 821 557 l 2,6,7
 835 557 835 557 838.5 549 c 128,-1,8
 842 541 842 541 833 531 c 2,9,-1
 564 232 l 2,10,11
 555 222 555 222 541 222 c 128,-1,12
 527 222 527 222 518 232 c 2,13,-1
 253 531 l 2,14,15
 244 541 244 541 247 549 c 128,-1,16
 250 557 250 557 265 557 c 2,17,-1
 440 557 l 1,18,-1
 440 802 l 2,19,20
 440 816 440 816 450 826.5 c 128,-1,21
 460 837 460 837 475 837 c 2,0,-1
195 207 m 2,22,-1
 895 207 l 2,23,24
 910 207 910 207 920 196.5 c 128,-1,25
 930 186 930 186 930 172 c 2,26,-1
 930 -3 l 1,27,-1
 160 -3 l 1,28,-1
 160 172 l 2,29,30
 160 186 160 186 170 196.5 c 128,-1,31
 180 207 180 207 195 207 c 2,22,-1
790 137 m 1,32,-1
 790 102 l 1,33,-1
 860 102 l 1,34,-1
 860 137 l 1,35,-1
 790 137 l 1,32,-1
EndSplineSet
EndChar

StartChar: uniF06B
Encoding: 61547 61547 109
Width: 1200
GlyphClass: 2
Flags: W
LayerCount: 2
Fore
SplineSet
590 838 m 2,0,-1
 855 534 l 2,1,2
 865 523 865 523 861.5 512 c 128,-1,3
 858 501 858 501 843 501 c 2,4,-1
 672 501 l 1,5,-1
 672 326 l 2,6,7
 672 312 672 312 660.5 301.5 c 128,-1,8
 649 291 649 291 633 291 c 2,9,-1
 493 291 l 2,10,11
 479 291 479 291 470.5 301 c 128,-1,12
 462 311 462 311 462 326 c 2,13,-1
 462 501 l 1,14,-1
 287 501 l 2,15,16
 273 501 273 501 269.5 512.5 c 128,-1,17
 266 524 266 524 275 534 c 2,18,-1
 544 836 l 2,19,20
 553 847 553 847 567 848 c 128,-1,21
 581 849 581 849 590 838 c 2,0,-1
217 221 m 2,22,-1
 917 221 l 2,23,24
 932 221 932 221 942 210.5 c 128,-1,25
 952 200 952 200 952 186 c 2,26,-1
 952 11 l 1,27,-1
 182 11 l 1,28,-1
 182 186 l 2,29,30
 182 200 182 200 192.5 210.5 c 128,-1,31
 203 221 203 221 217 221 c 2,22,-1
812 151 m 1,32,-1
 812 116 l 1,33,-1
 882 116 l 1,34,-1
 882 151 l 1,35,-1
 812 151 l 1,32,-1
EndSplineSet
EndChar

StartChar: uniF06C
Encoding: 61548 61548 110
Width: 1200
GlyphClass: 2
Flags: W
LayerCount: 2
Fore
SplineSet
421 527 m 1,0,-1
 679 786 l 1,1,2
 679 786 679 786 689 788 c 256,3,4
 699 790 699 790 704 786 c 2,5,-1
 801 688 l 2,6,7
 806 683 806 683 806 675.5 c 128,-1,8
 806 668 806 668 801 663 c 2,9,-1
 434 296 l 2,10,11
 429 290 429 290 421.5 290 c 128,-1,12
 414 290 414 290 409 296 c 2,13,-1
 205 499 l 2,14,15
 200 505 200 505 200 512 c 128,-1,16
 200 519 200 519 205 524 c 2,17,-1
 302 622 l 2,18,19
 308 627 308 627 315 627 c 128,-1,20
 322 627 322 627 327 622 c 2,21,-1
 421 527 l 1,0,-1
179 231 m 2,22,-1
 879 231 l 2,23,24
 893 231 893 231 903.5 221 c 128,-1,25
 914 211 914 211 914 196 c 2,26,-1
 914 21 l 1,27,-1
 144 21 l 1,28,-1
 144 196 l 2,29,30
 144 211 144 211 154 221 c 128,-1,31
 164 231 164 231 179 231 c 2,22,-1
774 161 m 1,32,-1
 774 126 l 1,33,-1
 844 126 l 1,34,-1
 844 161 l 1,35,-1
 774 161 l 1,32,-1
EndSplineSet
EndChar

StartChar: uniF06D
Encoding: 61549 61549 111
Width: 1200
GlyphClass: 2
Flags: W
LayerCount: 2
Fore
SplineSet
627 753 m 128,-1,1
 684 753 684 753 739 737 c 128,-1,2
 794 721 794 721 837 695.5 c 128,-1,3
 880 670 880 670 918.5 638 c 128,-1,4
 957 606 957 606 985 571.5 c 128,-1,5
 1013 537 1013 537 1033 505 c 128,-1,6
 1053 473 1053 473 1062.5 447.5 c 128,-1,7
 1072 422 1072 422 1072 407 c 128,-1,8
 1072 392 1072 392 1062.5 366.5 c 128,-1,9
 1053 341 1053 341 1032.5 309 c 128,-1,10
 1012 277 1012 277 984.5 242.5 c 128,-1,11
 957 208 957 208 918.5 176 c 128,-1,12
 880 144 880 144 837 118.5 c 128,-1,13
 794 93 794 93 739 77 c 128,-1,14
 684 61 684 61 627 61 c 128,-1,15
 570 61 570 61 515 77 c 128,-1,16
 460 93 460 93 417 118.5 c 128,-1,17
 374 144 374 144 335.5 176 c 128,-1,18
 297 208 297 208 269.5 242.5 c 128,-1,19
 242 277 242 277 221.5 309 c 128,-1,20
 201 341 201 341 191.5 366.5 c 128,-1,21
 182 392 182 392 182 407 c 128,-1,22
 182 422 182 422 191.5 447.5 c 128,-1,23
 201 473 201 473 221 505 c 128,-1,24
 241 537 241 537 269 571.5 c 128,-1,25
 297 606 297 606 335.5 638 c 128,-1,26
 374 670 374 670 417 695.5 c 128,-1,27
 460 721 460 721 515 737 c 128,-1,0
 570 753 570 753 627 753 c 128,-1,1
829 567 m 0,28,29
 818 578 818 578 816 576 c 128,-1,30
 814 574 814 574 820 560 c 0,31,32
 837 520 837 520 837 477 c 0,33,34
 837 390 837 390 775.5 328.5 c 128,-1,35
 714 267 714 267 627 267 c 128,-1,36
 540 267 540 267 478.5 328.5 c 128,-1,37
 417 390 417 390 417 477 c 0,38,39
 417 518 417 518 433 557 c 0,40,41
 439 570 439 570 436.5 572 c 128,-1,42
 434 574 434 574 424 564 c 0,43,44
 375 516 375 516 312 435 c 0,45,46
 303 424 303 424 301.5 407 c 128,-1,47
 300 390 300 390 308 377 c 0,48,49
 323 352 323 352 340.5 327.5 c 128,-1,50
 358 303 358 303 389.5 270 c 128,-1,51
 421 237 421 237 454.5 213 c 128,-1,52
 488 189 488 189 533.5 172 c 128,-1,53
 579 155 579 155 627 155 c 128,-1,54
 675 155 675 155 720.5 172 c 128,-1,55
 766 189 766 189 799.5 213 c 128,-1,56
 833 237 833 237 864.5 270 c 128,-1,57
 896 303 896 303 913.5 327 c 128,-1,58
 931 351 931 351 946 376 c 0,59,60
 954 389 954 389 952.5 406 c 128,-1,61
 951 423 951 423 943 435 c 0,62,63
 880 517 880 517 829 567 c 0,28,29
521 496 m 2,64,-1
 496 471 l 2,65,66
 486 460 486 460 482.5 443.5 c 128,-1,67
 479 427 479 427 486 415 c 0,68,69
 512 367 512 367 551 334 c 0,70,71
 562 324 562 324 577.5 325.5 c 128,-1,72
 593 327 593 327 603 338 c 2,73,-1
 628 362 l 2,74,75
 638 372 638 372 636.5 385 c 128,-1,76
 635 398 635 398 625 408 c 0,77,78
 594 439 594 439 563 490 c 0,79,80
 555 503 555 503 543 504.5 c 128,-1,81
 531 506 531 506 521 496 c 2,64,-1
EndSplineSet
EndChar

StartChar: uniF06E
Encoding: 61550 61550 112
Width: 1200
GlyphClass: 2
Flags: W
LayerCount: 2
Fore
SplineSet
642 -13 m 1,0,-1
 538 -13 l 1,1,-1
 560 71 l 1,2,3
 496 85 496 85 437 119 c 128,-1,4
 378 153 378 153 336.5 193.5 c 128,-1,5
 295 234 295 234 264 277 c 128,-1,6
 233 320 233 320 217.5 354 c 128,-1,7
 202 388 202 388 202 407 c 0,8,9
 202 422 202 422 212 447.5 c 128,-1,10
 222 473 222 473 242 505 c 128,-1,11
 262 537 262 537 289.5 571.5 c 128,-1,12
 317 606 317 606 355.5 638 c 128,-1,13
 394 670 394 670 437 696 c 128,-1,14
 480 722 480 722 535 737.5 c 128,-1,15
 590 753 590 753 647 753 c 0,16,17
 690 753 690 753 736 743 c 1,18,-1
 758 827 l 1,19,-1
 862 827 l 1,20,-1
 642 -13 l 1,0,-1
888 526 m 1,21,-1
 921 653 l 1,22,23
 997 593 997 593 1045 518.5 c 128,-1,24
 1093 444 1093 444 1093 407 c 0,25,26
 1093 389 1093 389 1079 357.5 c 128,-1,27
 1065 326 1065 326 1037 286 c 128,-1,28
 1009 246 1009 246 972 207.5 c 128,-1,29
 935 169 935 169 882 134.5 c 128,-1,30
 829 100 829 100 771 82 c 1,31,-1
 803 203 l 1,32,33
 857 237 857 237 898.5 284.5 c 128,-1,34
 940 332 940 332 967 376 c 0,35,36
 974 389 974 389 972.5 406 c 128,-1,37
 971 423 971 423 963 435 c 0,38,39
 925 484 925 484 888 526 c 1,21,-1
444 564 m 0,40,41
 395 516 395 516 332 435 c 0,42,43
 323 424 323 424 321.5 407 c 128,-1,44
 320 390 320 390 328 377 c 0,45,46
 341 356 341 356 355.5 335 c 128,-1,47
 370 314 370 314 395.5 285.5 c 128,-1,48
 421 257 421 257 447.5 234.5 c 128,-1,49
 474 212 474 212 510.5 192 c 128,-1,50
 547 172 547 172 584 163 c 1,51,-1
 612 271 l 1,52,53
 537 283 537 283 487 341.5 c 128,-1,54
 437 400 437 400 437 477 c 0,55,56
 437 519 437 519 453 557 c 0,57,58
 459 570 459 570 456.5 572.5 c 128,-1,59
 454 575 454 575 444 564 c 0,40,41
541 496 m 2,60,-1
 516 471 l 2,61,62
 506 460 506 460 503 444 c 128,-1,63
 500 428 500 428 506 415 c 0,64,65
 532 367 532 367 571 334 c 0,66,67
 582 325 582 325 598 326 c 128,-1,68
 614 327 614 327 624 338 c 2,69,-1
 632 346 l 1,70,-1
 647 406 l 1,71,-1
 645 409 l 1,72,73
 614 439 614 439 583 491 c 0,74,75
 575 503 575 503 563 504.5 c 128,-1,76
 551 506 551 506 541 496 c 2,60,-1
EndSplineSet
EndChar

StartChar: uniF06F
Encoding: 61551 61551 113
Width: 1200
GlyphClass: 2
Flags: W
LayerCount: 2
Fore
SplineSet
533 596 m 1,0,-1
 603 596 l 1,1,-1
 603 526 l 1,2,-1
 533 526 l 1,3,-1
 533 456 l 1,4,-1
 253 456 l 1,5,-1
 253 386 l 1,6,-1
 183 386 l 1,7,-1
 183 806 l 1,8,-1
 533 806 l 1,9,-1
 533 596 l 1,0,-1
1023 456 m 1,10,-1
 883 456 l 1,11,-1
 883 386 l 1,12,-1
 1023 386 l 1,13,-1
 1023 246 l 1,14,-1
 813 246 l 1,15,-1
 813 456 l 1,16,-1
 673 456 l 1,17,-1
 673 666 l 1,18,-1
 603 666 l 1,19,-1
 603 806 l 1,20,-1
 1023 806 l 1,21,-1
 1023 456 l 1,10,-1
253 736 m 1,22,-1
 253 526 l 1,23,-1
 463 526 l 1,24,-1
 463 736 l 1,25,-1
 253 736 l 1,22,-1
743 736 m 1,26,-1
 743 526 l 1,27,-1
 953 526 l 1,28,-1
 953 736 l 1,29,-1
 743 736 l 1,26,-1
393 596 m 1,30,-1
 323 596 l 1,31,-1
 323 666 l 1,32,-1
 393 666 l 1,33,-1
 393 596 l 1,30,-1
883 596 m 1,34,-1
 813 596 l 1,35,-1
 813 666 l 1,36,-1
 883 666 l 1,37,-1
 883 596 l 1,34,-1
393 316 m 1,38,-1
 533 316 l 1,39,-1
 533 -34 l 1,40,-1
 183 -34 l 1,41,-1
 183 316 l 1,42,-1
 323 316 l 1,43,-1
 323 386 l 1,44,-1
 393 386 l 1,45,-1
 393 316 l 1,38,-1
743 176 m 1,46,-1
 883 176 l 1,47,-1
 883 106 l 1,48,-1
 813 106 l 1,49,-1
 813 36 l 1,50,-1
 673 36 l 1,51,-1
 673 106 l 1,52,-1
 603 106 l 1,53,-1
 603 176 l 1,54,-1
 673 176 l 1,55,-1
 673 316 l 1,56,-1
 533 316 l 1,57,-1
 533 386 l 1,58,-1
 743 386 l 1,59,-1
 743 176 l 1,46,-1
253 246 m 1,60,-1
 253 36 l 1,61,-1
 463 36 l 1,62,-1
 463 246 l 1,63,-1
 253 246 l 1,60,-1
393 106 m 1,64,-1
 323 106 l 1,65,-1
 323 176 l 1,66,-1
 393 176 l 1,67,-1
 393 106 l 1,64,-1
1023 106 m 1,68,-1
 953 106 l 1,69,-1
 953 176 l 1,70,-1
 1023 176 l 1,71,-1
 1023 106 l 1,68,-1
673 -34 m 1,72,-1
 603 -34 l 1,73,-1
 603 36 l 1,74,-1
 673 36 l 1,75,-1
 673 -34 l 1,72,-1
1023 -34 m 1,76,-1
 813 -34 l 1,77,-1
 813 36 l 1,78,-1
 1023 36 l 1,79,-1
 1023 -34 l 1,76,-1
EndSplineSet
EndChar

StartChar: uniF070
Encoding: 61552 61552 114
Width: 1536
GlyphClass: 2
Flags: W
LayerCount: 2
Fore
SplineSet
586 302 m 1,0,-1
 662 226 l 1,1,-1
 636 200 l 1,2,-1
 608 200 l 1,3,-1
 608 248 l 1,4,-1
 560 248 l 1,5,-1
 560 276 l 1,6,-1
 586 302 l 1,0,-1
793 497 m 0,7,8
 800 491 800 491 792 482 c 2,9,-1
 646 337 l 2,10,11
 638 328 638 328 631 335 c 256,12,13
 624 342 624 342 632 350 c 2,14,-1
 778 496 l 2,15,16
 786 504 786 504 793 497 c 0,7,8
656 152 m 1,17,-1
 928 424 l 1,18,-1
 784 568 l 1,19,-1
 512 296 l 1,20,-1
 512 152 l 1,21,-1
 656 152 l 1,17,-1
960 456 m 1,22,-1
 1006 502 l 2,23,24
 1020 516 1020 516 1020 536 c 128,-1,25
 1020 556 1020 556 1006 570 c 2,26,-1
 930 646 l 2,27,28
 916 660 916 660 896 660 c 128,-1,29
 876 660 876 660 862 646 c 2,30,-1
 816 600 l 1,31,-1
 960 456 l 1,22,-1
1152 648 m 2,32,-1
 1152 168 l 2,33,34
 1152 109 1152 109 1110 66.5 c 128,-1,35
 1068 24 1068 24 1008 24 c 2,36,-1
 528 24 l 2,37,38
 468 24 468 24 426 66.5 c 128,-1,39
 384 109 384 109 384 168 c 2,40,-1
 384 648 l 2,41,42
 384 708 384 708 426 750 c 128,-1,43
 468 792 468 792 528 792 c 2,44,-1
 1008 792 l 2,45,46
 1068 792 1068 792 1110 750 c 128,-1,47
 1152 708 1152 708 1152 648 c 2,32,-1
EndSplineSet
EndChar

StartChar: uniF071
Encoding: 61553 61553 115
Width: 1664
GlyphClass: 2
Flags: W
LayerCount: 2
Fore
SplineSet
528 174 m 0,0,1
 528 187 528 187 518.5 196.5 c 128,-1,2
 509 206 509 206 496 206 c 0,3,4
 482 206 482 206 473 196.5 c 128,-1,5
 464 187 464 187 464 174 c 0,6,7
 464 160 464 160 473 151 c 128,-1,8
 482 142 482 142 496 142 c 0,9,10
 509 142 509 142 518.5 151 c 128,-1,11
 528 160 528 160 528 174 c 0,0,1
608 430 m 2,12,-1
 608 110 l 2,13,14
 608 97 608 97 598.5 87.5 c 128,-1,15
 589 78 589 78 576 78 c 2,16,-1
 432 78 l 2,17,18
 419 78 419 78 409.5 87.5 c 128,-1,19
 400 97 400 97 400 110 c 2,20,-1
 400 430 l 2,21,22
 400 443 400 443 409.5 452.5 c 128,-1,23
 419 462 419 462 432 462 c 2,24,-1
 576 462 l 2,25,26
 589 462 589 462 598.5 452.5 c 128,-1,27
 608 443 608 443 608 430 c 2,12,-1
1200 430 m 0,28,29
 1200 387 1200 387 1172 356 c 1,30,31
 1180 334 1180 334 1180 318 c 0,32,33
 1182 280 1182 280 1158 249 c 1,34,35
 1167 221 1167 221 1158 190 c 0,36,37
 1151 162 1151 162 1132 144 c 1,38,39
 1136 88 1136 88 1107 53 c 0,40,41
 1075 15 1075 15 1008 14 c 2,42,-1
 990 14 l 1,43,-1
 952 14 l 1,44,-1
 944 14 l 2,45,46
 911 14 911 14 872 22 c 128,-1,47
 833 30 833 30 811.5 36.5 c 128,-1,48
 790 43 790 43 751 56 c 0,49,50
 690 78 690 78 672 78 c 0,51,52
 659 78 659 78 649.5 87.5 c 128,-1,53
 640 97 640 97 640 110 c 2,54,-1
 640 430 l 2,55,56
 640 443 640 443 649 452.5 c 128,-1,57
 658 462 658 462 670 462 c 0,58,59
 682 464 682 464 708 492 c 128,-1,60
 734 520 734 520 759 552 c 0,61,62
 793 596 793 596 810 612 c 0,63,64
 818 622 818 622 825 637 c 128,-1,65
 832 652 832 652 834 661 c 128,-1,66
 836 670 836 670 840 691 c 0,67,68
 844 710 844 710 847 721 c 128,-1,69
 850 732 850 732 857 747 c 128,-1,70
 864 762 864 762 874 772 c 0,71,72
 883 782 883 782 896 782 c 0,73,74
 919 782 919 782 937.5 777 c 128,-1,75
 956 772 956 772 967.5 764 c 128,-1,76
 979 756 979 756 987.5 743.5 c 128,-1,77
 996 731 996 731 999.5 721 c 128,-1,78
 1003 711 1003 711 1005.5 696 c 128,-1,79
 1008 681 1008 681 1008 673.5 c 128,-1,80
 1008 666 1008 666 1008 654 c 0,81,82
 1008 635 1008 635 1003 616 c 128,-1,83
 998 597 998 597 993.5 586 c 128,-1,84
 989 575 989 575 980 558 c 0,85,86
 978 555 978 555 975 549 c 128,-1,87
 972 543 972 543 970 538 c 128,-1,88
 968 533 968 533 966 526 c 1,89,-1
 1104 526 l 2,90,91
 1143 526 1143 526 1171.5 497.5 c 128,-1,92
 1200 469 1200 469 1200 430 c 0,28,29
EndSplineSet
EndChar

StartChar: uniF072
Encoding: 61554 61554 116
Width: 1664
GlyphClass: 2
Flags: W
LayerCount: 2
Fore
SplineSet
528 622 m 0,0,1
 528 609 528 609 518.5 599.5 c 128,-1,2
 509 590 509 590 496 590 c 0,3,4
 482 590 482 590 473 599.5 c 128,-1,5
 464 609 464 609 464 622 c 0,6,7
 464 636 464 636 473 645 c 128,-1,8
 482 654 482 654 496 654 c 0,9,10
 509 654 509 654 518.5 645 c 128,-1,11
 528 636 528 636 528 622 c 0,0,1
608 366 m 2,12,-1
 608 686 l 2,13,14
 608 699 608 699 598.5 708.5 c 128,-1,15
 589 718 589 718 576 718 c 2,16,-1
 432 718 l 2,17,18
 419 718 419 718 409.5 708.5 c 128,-1,19
 400 699 400 699 400 686 c 2,20,-1
 400 366 l 2,21,22
 400 353 400 353 409.5 343.5 c 128,-1,23
 419 334 419 334 432 334 c 2,24,-1
 576 334 l 2,25,26
 589 334 589 334 598.5 343.5 c 128,-1,27
 608 353 608 353 608 366 c 2,12,-1
1172 440 m 1,28,29
 1200 410 1200 410 1200 366 c 0,30,31
 1200 327 1200 327 1171.5 298.5 c 128,-1,32
 1143 270 1143 270 1104 270 c 2,33,-1
 966 270 l 1,34,35
 968 263 968 263 970 258 c 128,-1,36
 972 253 972 253 975 247 c 128,-1,37
 978 241 978 241 980 238 c 0,38,39
 989 220 989 220 993.5 210 c 128,-1,40
 998 200 998 200 1003 180.5 c 128,-1,41
 1008 161 1008 161 1008 142 c 0,42,43
 1008 130 1008 130 1008 122.5 c 128,-1,44
 1008 115 1008 115 1005.5 100 c 128,-1,45
 1003 85 1003 85 999.5 75 c 128,-1,46
 996 65 996 65 987.5 52.5 c 128,-1,47
 979 40 979 40 967.5 32 c 128,-1,48
 956 24 956 24 937.5 19 c 128,-1,49
 919 14 919 14 896 14 c 0,50,51
 883 14 883 14 874 24 c 0,52,53
 864 34 864 34 857 49 c 128,-1,54
 850 64 850 64 847 75 c 128,-1,55
 844 86 844 86 840 105 c 0,56,57
 836 126 836 126 834 135 c 128,-1,58
 832 144 832 144 825 159 c 128,-1,59
 818 174 818 174 810 184 c 0,60,61
 793 200 793 200 759 244 c 0,62,63
 734 276 734 276 708 304 c 128,-1,64
 682 332 682 332 670 334 c 0,65,66
 658 334 658 334 649 343.5 c 128,-1,67
 640 353 640 353 640 366 c 2,68,-1
 640 686 l 2,69,70
 640 699 640 699 649.5 708.5 c 128,-1,71
 659 718 659 718 672 718 c 0,72,73
 690 718 690 718 751 740 c 0,74,75
 790 753 790 753 811.5 759.5 c 128,-1,76
 833 766 833 766 872 774 c 128,-1,77
 911 782 911 782 944 782 c 2,78,-1
 952 782 l 1,79,-1
 990 782 l 1,80,-1
 1008 782 l 2,81,82
 1075 781 1075 781 1107 743 c 0,83,84
 1136 708 1136 708 1132 652 c 1,85,86
 1151 634 1151 634 1158 606 c 0,87,88
 1167 575 1167 575 1158 547 c 1,89,90
 1182 516 1182 516 1180 478 c 0,91,92
 1180 462 1180 462 1172 440 c 1,28,29
EndSplineSet
EndChar

StartChar: uniF073
Encoding: 61555 61555 117
Width: 1792
GlyphClass: 2
Flags: W
LayerCount: 2
Fore
SplineSet
1036 195 m 2,0,-1
 1108 268 l 2,1,2
 1114 273 1114 273 1114 279.5 c 128,-1,3
 1114 286 1114 286 1108 291 c 2,4,-1
 992 408 l 1,5,-1
 1108 524 l 2,6,7
 1114 529 1114 529 1114 535.5 c 128,-1,8
 1114 542 1114 542 1108 547 c 2,9,-1
 1036 620 l 2,10,11
 1030 625 1030 625 1024 625 c 128,-1,12
 1018 625 1018 625 1012 620 c 2,13,-1
 896 504 l 1,14,-1
 780 620 l 2,15,16
 774 625 774 625 768 625 c 128,-1,17
 762 625 762 625 756 620 c 2,18,-1
 684 547 l 2,19,20
 678 542 678 542 678 535.5 c 128,-1,21
 678 529 678 529 684 524 c 2,22,-1
 800 408 l 1,23,-1
 684 291 l 2,24,25
 678 286 678 286 678 279.5 c 128,-1,26
 678 273 678 273 684 268 c 2,27,-1
 756 195 l 2,28,29
 762 190 762 190 768 190 c 128,-1,30
 774 190 774 190 780 195 c 2,31,-1
 896 312 l 1,32,-1
 1012 195 l 2,33,34
 1018 190 1018 190 1024 190 c 128,-1,35
 1030 190 1030 190 1036 195 c 2,0,-1
1344 712 m 2,36,-1
 1344 104 l 2,37,38
 1344 70 1344 70 1320.5 47 c 128,-1,39
 1297 24 1297 24 1264 24 c 2,40,-1
 528 24 l 2,41,42
 495 24 495 24 471.5 47 c 128,-1,43
 448 70 448 70 448 104 c 2,44,-1
 448 712 l 2,45,46
 448 744 448 744 471.5 768 c 128,-1,47
 495 792 495 792 528 792 c 2,48,-1
 1264 792 l 2,49,50
 1297 792 1297 792 1320.5 768 c 128,-1,51
 1344 744 1344 744 1344 712 c 2,36,-1
EndSplineSet
EndChar

StartChar: uniF074
Encoding: 61556 61556 118
Width: 1280
GlyphClass: 2
Flags: W
LayerCount: 2
Fore
SplineSet
960 146 m 0,0,1
 960 92 960 92 929 53 c 128,-1,2
 898 14 898 14 854 14 c 2,3,-1
 426 14 l 2,4,5
 382 14 382 14 351 53 c 128,-1,6
 320 92 320 92 320 146 c 0,7,8
 320 189 320 189 324 226.5 c 128,-1,9
 328 264 328 264 340 302.5 c 128,-1,10
 352 341 352 341 369.5 368.5 c 128,-1,11
 387 396 387 396 416.5 413 c 128,-1,12
 446 430 446 430 484 430 c 1,13,14
 549 366 549 366 640 366 c 128,-1,15
 731 366 731 366 796 430 c 1,16,17
 834 430 834 430 863.5 413 c 128,-1,18
 893 396 893 396 910.5 368.5 c 128,-1,19
 928 341 928 341 940 302.5 c 128,-1,20
 952 264 952 264 956 226.5 c 128,-1,21
 960 189 960 189 960 146 c 0,0,1
832 590 m 128,-1,23
 832 510 832 510 776 454 c 128,-1,24
 720 398 720 398 640 398 c 128,-1,25
 560 398 560 398 504 454 c 128,-1,26
 448 510 448 510 448 590 c 128,-1,27
 448 670 448 670 504 726 c 256,28,29
 560 782 560 782 640 782 c 128,-1,30
 720 782 720 782 776 726 c 256,31,22
 832 670 832 670 832 590 c 128,-1,23
EndSplineSet
EndChar

StartChar: uniF075
Encoding: 61557 61557 119
Width: 1152
GlyphClass: 2
Flags: W
LayerCount: 2
Fore
SplineSet
448 442 m 1,0,-1
 704 442 l 1,1,-1
 704 538 l 2,2,3
 704 591 704 591 666.5 628.5 c 128,-1,4
 629 666 629 666 576 666 c 128,-1,5
 523 666 523 666 485.5 628.5 c 128,-1,6
 448 591 448 591 448 538 c 2,7,-1
 448 442 l 1,0,-1
864 394 m 2,8,-1
 864 106 l 2,9,10
 864 86 864 86 850 72 c 128,-1,11
 836 58 836 58 816 58 c 2,12,-1
 336 58 l 2,13,14
 316 58 316 58 302 72 c 128,-1,15
 288 86 288 86 288 106 c 2,16,-1
 288 394 l 2,17,18
 288 414 288 414 302 428 c 128,-1,19
 316 442 316 442 336 442 c 2,20,-1
 352 442 l 1,21,-1
 352 538 l 2,22,23
 352 630 352 630 418 696 c 128,-1,24
 484 762 484 762 576 762 c 128,-1,25
 668 762 668 762 734 696 c 128,-1,26
 800 630 800 630 800 538 c 2,27,-1
 800 442 l 1,28,-1
 816 442 l 2,29,30
 836 442 836 442 850 428 c 128,-1,31
 864 414 864 414 864 394 c 2,8,-1
EndSplineSet
EndChar

StartChar: uniF076
Encoding: 61558 61558 120
Width: 1024
GlyphClass: 2
Flags: W
LayerCount: 2
Fore
SplineSet
640 530 m 128,-1,1
 640 583 640 583 602.5 620.5 c 128,-1,2
 565 658 565 658 512 658 c 128,-1,3
 459 658 459 658 421.5 620.5 c 128,-1,4
 384 583 384 583 384 530 c 128,-1,5
 384 477 384 477 421.5 439.5 c 128,-1,6
 459 402 459 402 512 402 c 128,-1,7
 565 402 565 402 602.5 439.5 c 128,-1,0
 640 477 640 477 640 530 c 128,-1,1
768 530 m 0,8,9
 768 476 768 476 752 440 c 2,10,-1
 570 54 l 2,11,12
 562 37 562 37 546 27.5 c 128,-1,13
 530 18 530 18 512 18 c 128,-1,14
 494 18 494 18 478 27.5 c 128,-1,15
 462 37 462 37 455 54 c 2,16,-1
 272 440 l 2,17,18
 256 476 256 476 256 530 c 0,19,20
 256 636 256 636 331 711 c 128,-1,21
 406 786 406 786 512 786 c 128,-1,22
 618 786 618 786 693 711 c 128,-1,23
 768 636 768 636 768 530 c 0,8,9
EndSplineSet
EndChar

StartChar: uniF077
Encoding: 61559 61559 121
Width: 1792
GlyphClass: 2
Flags: W
LayerCount: 2
Fore
SplineSet
1280 396 m 1,0,1
 1204 514 1204 514 1090 572 c 1,2,3
 1120 520 1120 520 1120 460 c 0,4,5
 1120 368 1120 368 1054 302 c 128,-1,6
 988 236 988 236 896 236 c 128,-1,7
 804 236 804 236 738 302 c 128,-1,8
 672 368 672 368 672 460 c 0,9,10
 672 520 672 520 702 572 c 1,11,12
 588 514 588 514 512 396 c 1,13,14
 578 294 578 294 678.5 233 c 128,-1,15
 779 172 779 172 896 172 c 128,-1,16
 1013 172 1013 172 1113.5 233 c 128,-1,17
 1214 294 1214 294 1280 396 c 1,0,1
920 588 m 128,-1,19
 920 598 920 598 913 605 c 128,-1,20
 906 612 906 612 896 612 c 0,21,22
 834 612 834 612 789 567 c 128,-1,23
 744 522 744 522 744 460 c 0,24,25
 744 450 744 450 751 443 c 128,-1,26
 758 436 758 436 768 436 c 128,-1,27
 778 436 778 436 785 443 c 128,-1,28
 792 450 792 450 792 460 c 0,29,30
 792 503 792 503 822.5 533.5 c 128,-1,31
 853 564 853 564 896 564 c 0,32,33
 906 564 906 564 913 571 c 128,-1,18
 920 578 920 578 920 588 c 128,-1,19
1344 396 m 128,-1,35
 1344 379 1344 379 1334 362 c 0,36,37
 1264 246 1264 246 1146 177 c 128,-1,38
 1028 108 1028 108 896 108 c 128,-1,39
 764 108 764 108 646 177.5 c 128,-1,40
 528 247 528 247 458 362 c 0,41,42
 448 379 448 379 448 396 c 128,-1,43
 448 413 448 413 458 430 c 0,44,45
 528 545 528 545 646 614.5 c 128,-1,46
 764 684 764 684 896 684 c 128,-1,47
 1028 684 1028 684 1146 614.5 c 128,-1,48
 1264 545 1264 545 1334 430 c 0,49,34
 1344 413 1344 413 1344 396 c 128,-1,35
EndSplineSet
EndChar

StartChar: uniF078
Encoding: 61560 61560 122
Width: 1792
GlyphClass: 2
Flags: W
LayerCount: 2
Fore
SplineSet
726 212 m 1,0,-1
 764 283 l 1,1,2
 721 314 721 314 696.5 362 c 128,-1,3
 672 410 672 410 672 464 c 0,4,5
 672 524 672 524 702 576 c 1,6,7
 588 518 588 518 512 400 c 1,8,9
 596 271 596 271 726 212 c 1,0,-1
920 592 m 128,-1,11
 920 602 920 602 913 609 c 128,-1,12
 906 616 906 616 896 616 c 0,13,14
 834 616 834 616 789 571 c 128,-1,15
 744 526 744 526 744 464 c 0,16,17
 744 454 744 454 751 447 c 128,-1,18
 758 440 758 440 768 440 c 128,-1,19
 778 440 778 440 785 447 c 128,-1,20
 792 454 792 454 792 464 c 0,21,22
 792 507 792 507 822.5 537.5 c 128,-1,23
 853 568 853 568 896 568 c 0,24,25
 906 568 906 568 913 575 c 128,-1,10
 920 582 920 582 920 592 c 128,-1,11
1102 688 m 0,26,27
 1102 684 1102 684 1101 683 c 0,28,29
 1048 588 1048 588 943 399 c 128,-1,30
 838 210 838 210 786 116 c 2,31,-1
 761 72 l 2,32,33
 756 64 756 64 747 64 c 0,34,35
 741 64 741 64 680 99 c 0,36,37
 672 104 672 104 672 113 c 0,38,39
 672 119 672 119 694 156 c 1,40,41
 622 189 622 189 562 243 c 128,-1,42
 502 297 502 297 458 366 c 0,43,44
 448 381 448 381 448 400 c 128,-1,45
 448 419 448 419 458 434 c 0,46,47
 534 552 534 552 648 620 c 128,-1,48
 762 688 762 688 896 688 c 0,49,50
 940 688 940 688 986 680 c 1,51,-1
 1013 728 l 2,52,53
 1018 736 1018 736 1027 736 c 0,54,55
 1030 736 1030 736 1036 733 c 128,-1,56
 1042 730 1042 730 1051 725 c 128,-1,57
 1060 720 1060 720 1068 716 c 128,-1,58
 1076 712 1076 712 1084 707 c 128,-1,59
 1092 702 1092 702 1094 701 c 0,60,61
 1102 696 1102 696 1102 688 c 0,26,27
1120 464 m 0,62,63
 1120 394 1120 394 1080.5 337 c 128,-1,64
 1041 280 1041 280 976 255 c 1,65,-1
 1116 506 l 1,66,67
 1120 484 1120 484 1120 464 c 0,62,63
1344 400 m 128,-1,69
 1344 382 1344 382 1334 366 c 0,70,71
 1314 334 1314 334 1280 293 c 0,72,73
 1204 207 1204 207 1105.5 159.5 c 128,-1,74
 1007 112 1007 112 896 112 c 1,75,-1
 933 178 l 1,76,77
 1039 187 1039 187 1129.5 246.5 c 128,-1,78
 1220 306 1220 306 1280 400 c 1,79,80
 1222 490 1222 490 1139 547 c 1,81,-1
 1170 603 l 1,82,83
 1218 571 1218 571 1262 526.5 c 128,-1,84
 1306 482 1306 482 1334 434 c 0,85,68
 1344 418 1344 418 1344 400 c 128,-1,69
EndSplineSet
EndChar

StartChar: uniF079
Encoding: 61561 61561 123
Width: 1920
GlyphClass: 2
Flags: W
LayerCount: 2
Fore
SplineSet
1409 336 m 0,0,1
 1409 320 1409 320 1394 303 c 2,2,-1
 1226 105 l 2,3,4
 1204 80 1204 80 1165.5 62 c 128,-1,5
 1127 44 1127 44 1094 44 c 2,6,-1
 550 44 l 2,7,8
 533 44 533 44 519.5 50.5 c 128,-1,9
 506 57 506 57 506 72 c 0,10,11
 506 88 506 88 522 105 c 2,12,-1
 690 303 l 2,13,14
 711 328 711 328 750 346 c 128,-1,15
 789 364 789 364 822 364 c 2,16,-1
 1366 364 l 2,17,18
 1383 364 1383 364 1396 357.5 c 128,-1,19
 1409 351 1409 351 1409 336 c 0,0,1
1238 508 m 2,20,-1
 1238 428 l 1,21,-1
 822 428 l 2,22,23
 775 428 775 428 723.5 404 c 128,-1,24
 672 380 672 380 641 344 c 2,25,-1
 473 146 l 1,26,-1
 470 144 l 2,27,28
 470 146 470 146 470 150 c 128,-1,29
 470 154 470 154 470 156 c 2,30,-1
 470 636 l 2,31,32
 470 682 470 682 503 715 c 128,-1,33
 536 748 536 748 582 748 c 2,34,-1
 742 748 l 2,35,36
 788 748 788 748 821 715 c 128,-1,37
 854 682 854 682 854 636 c 2,38,-1
 854 620 l 1,39,-1
 1126 620 l 2,40,41
 1172 620 1172 620 1205 587 c 128,-1,42
 1238 554 1238 554 1238 508 c 2,20,-1
EndSplineSet
EndChar

StartChar: uniF07A
Encoding: 61562 61562 124
Width: 994
GlyphClass: 2
Flags: W
LayerCount: 2
Fore
SplineSet
804 406 m 1,0,-1
 690 406 l 1,1,2
 679 471 679 471 629 517 c 0,3,4
 622 524 622 524 613 530 c 1,5,-1
 673 626 l 1,6,7
 789 545 789 545 804 406 c 1,0,-1
625 653 m 1,8,-1
 564 556 l 1,9,10
 532 568 532 568 498 568 c 0,11,12
 470 568 470 568 442 559 c 1,13,-1
 380 657 l 1,14,15
 436 680 436 680 498 680 c 0,16,17
 564 681 564 681 625 653 c 1,8,-1
386 213 m 1,18,-1
 326 117 l 1,19,20
 201 200 201 200 190 351 c 1,21,-1
 304 351 l 1,22,23
 312 280 312 280 364 231 c 0,24,25
 374 221 374 221 386 213 c 1,18,-1
805 351 m 1,26,27
 795 207 795 207 678 123 c 1,28,-1
 617 219 l 1,29,30
 682 270 682 270 691 351 c 1,31,-1
 805 351 l 1,26,27
630 95 m 1,32,33
 568 65 568 65 498 65 c 0,34,35
 434 65 434 65 375 90 c 1,36,-1
 436 188 l 1,37,38
 466 178 466 178 498 178 c 0,39,40
 534 178 534 178 569 192 c 1,41,-1
 630 95 l 1,32,33
391 536 m 1,42,43
 371 523 371 523 356 506 c 0,44,45
 315 463 315 463 306 406 c 1,46,-1
 192 406 l 1,47,48
 207 552 207 552 331 632 c 1,49,-1
 391 536 l 1,42,43
718 802 m 1,50,-1
 656 703 l 1,51,52
 581 739 581 739 498 739 c 0,53,54
 420 739 420 739 349 707 c 1,55,-1
 287 806 l 1,56,57
 386 855 386 855 497 855 c 0,58,59
 615 855 615 855 718 802 c 1,50,-1
301 680 m 1,60,61
 150 584 150 584 134 406 c 1,62,-1
 17 406 l 1,63,64
 25 521 25 521 84.5 619.5 c 128,-1,65
 144 718 144 718 239 779 c 1,66,-1
 301 680 l 1,60,61
979 406 m 1,67,-1
 862 406 l 1,68,69
 846 578 846 578 704 675 c 1,70,-1
 766 773 l 1,71,72
 858 712 858 712 914.5 614.5 c 128,-1,73
 971 517 971 517 979 406 c 1,67,-1
979 351 m 1,74,75
 974 238 974 238 919 138.5 c 128,-1,76
 864 39 864 39 771 -25 c 1,77,-1
 709 74 l 1,78,79
 852 175 852 175 863 350 c 1,80,-1
 979 351 l 1,74,75
296 68 m 1,81,-1
 234 -31 l 1,82,83
 138 32 138 32 80 132.5 c 128,-1,84
 22 233 22 233 16 350 c 1,85,-1
 133 350 l 1,86,87
 144 169 144 169 296 68 c 1,81,-1
723 -54 m 1,88,89
 618 -110 618 -110 498 -110 c 0,90,91
 383 -110 383 -110 282 -58 c 1,92,-1
 344 41 l 1,93,94
 418 7 418 7 498 7 c 0,95,96
 585 7 585 7 661 45 c 1,97,-1
 723 -54 l 1,88,89
440 373 m 0,98,99
 440 360 440 360 445 349 c 1,100,-1
 384 282 l 1,101,102
 352 321 352 321 352 373 c 0,103,104
 352 420 352 420 380 458 c 1,105,-1
 446 398 l 1,106,107
 440 385 440 385 440 373 c 0,98,99
643 373 m 0,108,109
 643 326 643 326 616 289 c 1,110,-1
 550 349 l 1,111,112
 555 360 555 360 555 373 c 0,113,114
 555 391 555 391 544 407 c 1,115,-1
 603 472 l 1,116,117
 643 430 643 430 643 373 c 0,108,109
578 494 m 1,118,-1
 517 427 l 1,119,120
 508 430 508 430 498 430 c 0,121,122
 483 430 483 430 469 422 c 1,123,-1
 403 483 l 1,124,125
 417 495 417 495 435 503 c 0,126,127
 465 518 465 518 498 518 c 0,128,129
 541 518 541 518 578 494 c 1,118,-1
593 263 m 1,130,131
 552 227 552 227 498 227 c 0,132,133
 448 227 448 227 408 258 c 1,134,-1
 468 323 l 1,135,136
 482 315 482 315 498 315 c 256,137,138
 514 315 514 315 528 323 c 1,139,-1
 593 263 l 1,130,131
EndSplineSet
EndChar

StartChar: uniF07B
Encoding: 61563 61563 125
Width: 1164
GlyphClass: 2
Flags: W
LayerCount: 2
Fore
SplineSet
738 32 m 1,0,1
 686 27 686 27 642 25 c 1,2,3
 686 27 686 27 738 32 c 1,0,1
814 531 m 2,4,5
 831 503 831 503 858 459 c 128,-1,6
 885 415 885 415 942 321.5 c 128,-1,7
 999 228 999 228 1036.5 165.5 c 128,-1,8
 1074 103 1074 103 1074 103 c 1,9,10
 1062 100 1062 100 1039 93 c 128,-1,11
 1016 86 1016 86 1004 83 c 0,12,13
 791 23 791 23 566.5 24 c 128,-1,14
 342 25 342 25 129 87 c 2,15,-1
 74 103 l 1,16,-1
 320 531 l 1,17,-1
 436 731 l 2,18,19
 437 730 437 730 439 728 c 0,20,21
 439 727 439 727 440 727 c 0,22,23
 444 723 444 723 448 719.5 c 128,-1,24
 452 716 452 716 452 716 c 2,25,26
 502 676 502 676 567 676 c 2,27,-1
 568 676 l 1,28,-1
 571 676 l 2,29,30
 635 677 635 677 684 717 c 0,31,32
 685 718 685 718 686 719 c 128,-1,33
 687 720 687 720 688 721 c 1,34,-1
 688 721 l 1,35,36
 691 723 691 723 695 727 c 2,37,-1
 699 731 l 1,38,-1
 814 531 l 2,4,5
733 166 m 0,39,40
 742 245 742 245 724 348 c 0,41,42
 710 419 710 419 648 444 c 0,43,44
 647 444 647 444 612 465 c 1,45,46
 625 470 625 470 626 470 c 0,47,48
 649 475 649 475 657.5 482.5 c 128,-1,49
 666 490 666 490 667 506 c 0,50,51
 668 540 668 540 627 553 c 0,52,53
 616 557 616 557 599 575 c 0,54,55
 598 576 598 576 599 579 c 128,-1,56
 600 582 600 582 601.5 586 c 128,-1,57
 603 590 603 590 603 592 c 0,58,59
 602 603 602 603 596 612 c 1,60,61
 596 612 596 612 595 612 c 2,62,-1
 594 612 l 1,63,64
 594 612 594 612 593 612 c 256,65,66
 592 612 592 612 590 611 c 2,67,68
 590 611 590 611 589 610.5 c 128,-1,69
 588 610 588 610 587 610 c 0,70,71
 581 607 581 607 580 606 c 0,72,73
 578 605 578 605 575.5 600 c 128,-1,74
 573 595 573 595 572 593 c 0,75,76
 571 593 571 593 563 588 c 1,77,78
 563 588 563 588 562 588 c 1,79,80
 562 588 562 588 562 588 c 1,81,82
 561 589 561 589 560 592 c 128,-1,83
 559 595 559 595 558 597 c 0,84,85
 556 600 556 600 553.5 605.5 c 128,-1,86
 551 611 551 611 550 614 c 0,87,88
 549 615 549 615 549 615 c 1,89,-1
 531 600 l 2,90,91
 530 599 530 599 529 594.5 c 128,-1,92
 528 590 528 590 528 589 c 2,93,94
 528 589 528 589 527.5 588 c 128,-1,95
 527 587 527 587 527 586 c 0,96,97
 526 585 526 585 526 584.5 c 128,-1,98
 526 584 526 584 525.5 583.5 c 128,-1,99
 525 583 525 583 525 582 c 0,100,101
 524 581 524 581 524 581 c 1,102,-1
 522 580 l 1,103,-1
 522 579 l 1,104,105
 516 575 516 575 506 582 c 0,106,107
 497 588 497 588 491 590 c 0,108,109
 486 592 486 592 484 592 c 1,110,111
 484 593 484 593 483 593 c 2,112,113
 483 593 483 593 482.5 593 c 128,-1,114
 482 593 482 593 482 593 c 2,115,116
 477 593 477 593 469.5 590.5 c 128,-1,117
 462 588 462 588 461 586 c 0,118,119
 461 574 461 574 470 561 c 0,120,121
 470 560 470 560 486 551 c 1,122,123
 484 547 484 547 479 538 c 128,-1,124
 474 529 474 529 472 525 c 0,125,126
 471 523 471 523 470 521 c 1,127,128
 464 524 464 524 463 524 c 2,129,-1
 460 524 l 2,130,131
 457 524 457 524 455 524 c 2,132,133
 455 524 455 524 454 524 c 128,-1,134
 453 524 453 524 452 524 c 0,135,136
 446 525 446 525 440 525 c 0,137,138
 436 525 436 525 434 525 c 0,139,140
 429 524 429 524 425 523 c 0,141,142
 418 520 418 520 420 493 c 0,143,144
 424 459 424 459 407 430 c 0,145,146
 364 357 364 357 390 295 c 0,147,148
 423 217 423 217 509 161 c 0,149,150
 511 160 511 160 514 157 c 0,151,152
 517 156 517 156 521 154 c 0,153,154
 522 153 522 153 524 151.5 c 128,-1,155
 526 150 526 150 526 150 c 1,156,-1
 527 150 l 2,157,158
 528 149 528 149 530 148 c 128,-1,159
 532 147 532 147 533 146.5 c 128,-1,160
 534 146 534 146 536 144.5 c 128,-1,161
 538 143 538 143 539 142.5 c 128,-1,162
 540 142 540 142 542 141 c 128,-1,163
 544 140 544 140 545 140 c 1,164,165
 545 140 545 140 545 140 c 1,166,167
 554 135 554 135 558 133 c 0,168,169
 604 111 604 111 649 108 c 0,170,171
 654 107 654 107 656 107 c 2,172,-1
 660 107 l 1,173,-1
 666 107 l 2,174,175
 700 107 700 107 714.5 120 c 128,-1,176
 729 133 729 133 733 166 c 0,39,40
449 720 m 1,177,178
 444 723 444 723 440 727 c 1,179,180
 444 723 444 723 449 720 c 1,177,178
452 716 m 2,181,182
 452 716 452 716 448 720 c 1,183,184
 449 719 449 719 450.5 718 c 128,-1,185
 452 717 452 717 452 716 c 2,181,182
562 588 m 1,186,-1
 562 587 l 2,187,188
 559 593 559 593 558 596 c 1,189,-1
 558 596 l 1,190,191
 561 591 561 591 562 588 c 1,186,-1
522 579 m 1024,192,-1
523 579 m 1,193,194
 523 580 523 580 523 580 c 257,195,196
 523 580 523 580 523 579 c 1,193,194
562 588 m 2,197,-1
 562 587 l 2,198,199
 559 593 559 593 558 596 c 1,200,-1
 558 596 l 1,201,202
 561 591 561 591 562 588 c 2,197,-1
EndSplineSet
EndChar

StartChar: uniF07C
Encoding: 61564 61564 126
Width: 1200
GlyphClass: 2
Flags: W
LayerCount: 2
Fore
SplineSet
627 812 m 128,-1,1
 709 812 709 812 784 780 c 128,-1,2
 859 748 859 748 913 694 c 128,-1,3
 967 640 967 640 999 565 c 128,-1,4
 1031 490 1031 490 1031 408 c 128,-1,5
 1031 326 1031 326 999 251 c 128,-1,6
 967 176 967 176 913 122 c 128,-1,7
 859 68 859 68 784 36 c 128,-1,8
 709 4 709 4 627 4 c 128,-1,9
 545 4 545 4 470 36 c 128,-1,10
 395 68 395 68 341 122 c 128,-1,11
 287 176 287 176 255 251 c 128,-1,12
 223 326 223 326 223 408 c 128,-1,13
 223 490 223 490 255 565 c 128,-1,14
 287 640 287 640 341 694 c 128,-1,15
 395 748 395 748 470 780 c 128,-1,0
 545 812 545 812 627 812 c 128,-1,1
726 627 m 128,-1,17
 717 627 717 627 711 621 c 2,18,-1
 627 537 l 1,19,-1
 543 621 l 2,20,21
 537 627 537 627 528 627 c 128,-1,22
 519 627 519 627 513 621 c 2,23,-1
 414 522 l 2,24,25
 408 516 408 516 408 507 c 128,-1,26
 408 498 408 498 414 492 c 2,27,-1
 498 408 l 1,28,-1
 414 324 l 2,29,30
 408 318 408 318 408 309 c 128,-1,31
 408 300 408 300 414 294 c 2,32,-1
 513 195 l 2,33,34
 519 189 519 189 528 189 c 128,-1,35
 537 189 537 189 543 195 c 2,36,-1
 627 279 l 1,37,-1
 711 195 l 2,38,39
 717 189 717 189 726 189 c 128,-1,40
 735 189 735 189 741 195 c 2,41,-1
 840 294 l 2,42,43
 846 300 846 300 846 309 c 128,-1,44
 846 318 846 318 840 324 c 2,45,-1
 756 408 l 1,46,-1
 840 492 l 2,47,48
 846 498 846 498 846 507 c 128,-1,49
 846 516 846 516 840 522 c 2,50,-1
 741 621 l 2,51,16
 735 627 735 627 726 627 c 128,-1,17
EndSplineSet
EndChar

StartChar: uniF07D
Encoding: 61565 61565 127
Width: 1200
GlyphClass: 2
Flags: W
LayerCount: 2
Fore
SplineSet
593 818 m 128,-1,1
 675 818 675 818 750 786 c 128,-1,2
 825 754 825 754 879 700 c 128,-1,3
 933 646 933 646 965 571 c 128,-1,4
 997 496 997 496 997 414 c 128,-1,5
 997 332 997 332 965 257 c 128,-1,6
 933 182 933 182 879 128 c 128,-1,7
 825 74 825 74 750 42 c 128,-1,8
 675 10 675 10 593 10 c 128,-1,9
 511 10 511 10 436 42 c 128,-1,10
 361 74 361 74 307 128 c 128,-1,11
 253 182 253 182 221 257 c 128,-1,12
 189 332 189 332 189 414 c 128,-1,13
 189 496 189 496 221 571 c 128,-1,14
 253 646 253 646 307 700 c 128,-1,15
 361 754 361 754 436 786 c 128,-1,0
 511 818 511 818 593 818 c 128,-1,1
555 430 m 1,16,-1
 496 490 l 2,17,18
 492 495 492 495 484.5 495 c 128,-1,19
 477 495 477 495 471 490 c 2,20,-1
 374 392 l 2,21,22
 369 387 369 387 369 380 c 128,-1,23
 369 373 369 373 374 367 c 2,24,-1
 543 198 l 2,25,26
 548 193 548 193 555.5 193 c 128,-1,27
 563 193 563 193 568 198 c 2,28,-1
 830 461 l 2,29,30
 835 466 835 466 835 473.5 c 128,-1,31
 835 481 835 481 830 486 c 2,32,-1
 733 584 l 2,33,34
 728 588 728 588 720.5 588 c 128,-1,35
 713 588 713 588 708 584 c 2,36,-1
 555 430 l 1,16,-1
EndSplineSet
EndChar

StartChar: uniF07E
Encoding: 61566 61566 128
Width: 1200
GlyphClass: 2
Flags: W
LayerCount: 2
Fore
SplineSet
565.5 823 m 128,-1,1
 647 823 647 823 722 791.5 c 128,-1,2
 797 760 797 760 851.5 705.5 c 128,-1,3
 906 651 906 651 937.5 576 c 128,-1,4
 969 501 969 501 969 419 c 128,-1,5
 969 337 969 337 937.5 262.5 c 128,-1,6
 906 188 906 188 851.5 133.5 c 128,-1,7
 797 79 797 79 722 47 c 128,-1,8
 647 15 647 15 565.5 15 c 128,-1,9
 484 15 484 15 409 47 c 128,-1,10
 334 79 334 79 279.5 133.5 c 128,-1,11
 225 188 225 188 193.5 262.5 c 128,-1,12
 162 337 162 337 162 419 c 128,-1,13
 162 501 162 501 193.5 576 c 128,-1,14
 225 651 225 651 279.5 705.5 c 128,-1,15
 334 760 334 760 409 791.5 c 128,-1,0
 484 823 484 823 565.5 823 c 128,-1,1
557 658 m 256,16,17
 537 658 537 658 516 654 c 128,-1,18
 495 650 495 650 471.5 639.5 c 128,-1,19
 448 629 448 629 431 612.5 c 128,-1,20
 414 596 414 596 402 568.5 c 128,-1,21
 390 541 390 541 390 506 c 0,22,23
 390 489 390 489 404 489 c 2,24,-1
 496 489 l 1,25,26
 517 485 517 485 521 496 c 0,27,28
 525 510 525 510 535 516 c 128,-1,29
 545 522 545 522 567 522 c 0,30,31
 581 522 581 522 589 514.5 c 128,-1,32
 597 507 597 507 597 494 c 0,33,34
 597 478 597 478 592 470.5 c 128,-1,35
 587 463 587 463 574 458 c 0,36,37
 573 458 573 458 564.5 455 c 128,-1,38
 556 452 556 452 551 449.5 c 128,-1,39
 546 447 546 447 537 442.5 c 128,-1,40
 528 438 528 438 521.5 431 c 128,-1,41
 515 424 515 424 508.5 414 c 128,-1,42
 502 404 502 404 497.5 389 c 128,-1,43
 493 374 493 374 492 357 c 0,44,45
 491 351 491 351 495.5 345.5 c 128,-1,46
 500 340 500 340 510 340 c 2,47,-1
 631 340 l 2,48,49
 636 340 636 340 646.5 345.5 c 128,-1,50
 657 351 657 351 671 365 c 128,-1,51
 685 379 685 379 697.5 398.5 c 128,-1,52
 710 418 710 418 718 450 c 128,-1,53
 726 482 726 482 726 520 c 0,54,55
 726 553 726 553 714.5 578 c 128,-1,56
 703 603 703 603 685 618 c 128,-1,57
 667 633 667 633 643 642.5 c 128,-1,58
 619 652 619 652 598 655 c 128,-1,59
 577 658 577 658 557 658 c 256,16,17
618 279 m 2,60,-1
 513 279 l 2,61,62
 506 279 506 279 500.5 274 c 128,-1,63
 495 269 495 269 495 262 c 2,64,-1
 495 157 l 2,65,66
 495 150 495 150 500.5 144.5 c 128,-1,67
 506 139 506 139 513 139 c 2,68,-1
 618 139 l 2,69,70
 625 139 625 139 630 144.5 c 128,-1,71
 635 150 635 150 635 157 c 2,72,-1
 635 262 l 2,73,74
 635 269 635 269 630 274 c 128,-1,75
 625 279 625 279 618 279 c 2,60,-1
EndSplineSet
EndChar

StartChar: uniF07F
Encoding: 61567 61567 129
Width: 1200
GlyphClass: 2
Flags: W
LayerCount: 2
Fore
SplineSet
603 802 m 128,-1,1
 685 802 685 802 760 770 c 128,-1,2
 835 738 835 738 889 684 c 128,-1,3
 943 630 943 630 975 555 c 128,-1,4
 1007 480 1007 480 1007 398 c 128,-1,5
 1007 316 1007 316 975 241 c 128,-1,6
 943 166 943 166 889 112 c 128,-1,7
 835 58 835 58 760 26 c 128,-1,8
 685 -6 685 -6 603 -6 c 128,-1,9
 521 -6 521 -6 446 26 c 128,-1,10
 371 58 371 58 317 112 c 128,-1,11
 263 166 263 166 231 241 c 128,-1,12
 199 316 199 316 199 398 c 128,-1,13
 199 480 199 480 231 555 c 128,-1,14
 263 630 263 630 317 684 c 128,-1,15
 371 738 371 738 446 770 c 128,-1,0
 521 802 521 802 603 802 c 128,-1,1
656 678 m 2,16,-1
 550 678 l 2,17,18
 544 678 544 678 538.5 673 c 128,-1,19
 533 668 533 668 533 661 c 2,20,-1
 533 556 l 2,21,22
 533 549 533 549 538.5 543.5 c 128,-1,23
 544 538 544 538 550 538 c 2,24,-1
 656 538 l 2,25,26
 662 538 662 538 667.5 543.5 c 128,-1,27
 673 549 673 549 673 556 c 2,28,-1
 673 661 l 2,29,30
 673 668 673 668 667.5 673 c 128,-1,31
 662 678 662 678 656 678 c 2,16,-1
656 468 m 2,32,-1
 480 468 l 2,33,34
 474 468 474 468 468.5 463 c 128,-1,35
 463 458 463 458 463 451 c 2,36,-1
 463 416 l 2,37,38
 463 409 463 409 468.5 403.5 c 128,-1,39
 474 398 474 398 480 398 c 2,40,-1
 533 398 l 1,41,-1
 533 258 l 1,42,-1
 480 258 l 2,43,44
 474 258 474 258 468.5 253 c 128,-1,45
 463 248 463 248 463 241 c 2,46,-1
 463 206 l 2,47,48
 463 199 463 199 468.5 193.5 c 128,-1,49
 474 188 474 188 480 188 c 2,50,-1
 726 188 l 2,51,52
 732 188 732 188 737.5 193.5 c 128,-1,53
 743 199 743 199 743 206 c 2,54,-1
 743 241 l 2,55,56
 743 248 743 248 737.5 253 c 128,-1,57
 732 258 732 258 726 258 c 2,58,-1
 673 258 l 1,59,-1
 673 451 l 2,60,61
 673 458 673 458 667.5 463 c 128,-1,62
 662 468 662 468 656 468 c 2,32,-1
EndSplineSet
EndChar

StartChar: uniF080
Encoding: 61568 61568 130
Width: 1200
GlyphClass: 2
Flags: W
LayerCount: 2
Fore
SplineSet
578 822 m 128,-1,1
 660 822 660 822 735 790 c 128,-1,2
 810 758 810 758 864 704 c 128,-1,3
 918 650 918 650 950 575 c 128,-1,4
 982 500 982 500 982 418 c 128,-1,5
 982 336 982 336 950 261 c 128,-1,6
 918 186 918 186 864 132 c 128,-1,7
 810 78 810 78 735 46 c 128,-1,8
 660 14 660 14 578 14 c 128,-1,9
 496 14 496 14 421 46 c 128,-1,10
 346 78 346 78 292 132 c 128,-1,11
 238 186 238 186 206 261 c 128,-1,12
 174 336 174 336 174 418 c 128,-1,13
 174 500 174 500 206 575 c 128,-1,14
 238 650 238 650 292 704 c 128,-1,15
 346 758 346 758 421 790 c 128,-1,0
 496 822 496 822 578 822 c 128,-1,1
651 628 m 2,16,-1
 505 628 l 2,17,18
 491 628 491 628 482.5 618 c 128,-1,19
 474 608 474 608 477 594 c 2,20,-1
 518 382 l 2,21,22
 520 368 520 368 532.5 358 c 128,-1,23
 545 348 545 348 559 348 c 2,24,-1
 597 348 l 2,25,26
 611 348 611 348 623 358 c 128,-1,27
 635 368 635 368 638 382 c 2,28,-1
 679 594 l 2,29,30
 682 608 682 608 673.5 618 c 128,-1,31
 665 628 665 628 651 628 c 2,16,-1
630 278 m 2,32,-1
 525 278 l 2,33,34
 518 278 518 278 513 273 c 128,-1,35
 508 268 508 268 508 260 c 2,36,-1
 508 156 l 2,37,38
 508 148 508 148 513 143 c 128,-1,39
 518 138 518 138 525 138 c 2,40,-1
 630 138 l 2,41,42
 637 138 637 138 642.5 143 c 128,-1,43
 648 148 648 148 648 156 c 2,44,-1
 648 260 l 2,45,46
 648 268 648 268 642.5 273 c 128,-1,47
 637 278 637 278 630 278 c 2,32,-1
EndSplineSet
EndChar

StartChar: uniF081
Encoding: 61569 61569 131
Width: 1020
GlyphClass: 2
Flags: W
LayerCount: 2
Fore
SplineSet
500 848 m 128,-1,1
 586 848 586 848 665 814.5 c 128,-1,2
 744 781 744 781 800.5 724.5 c 128,-1,3
 857 668 857 668 890.5 589 c 128,-1,4
 924 510 924 510 924 424 c 128,-1,5
 924 338 924 338 890.5 259.5 c 128,-1,6
 857 181 857 181 800.5 124 c 128,-1,7
 744 67 744 67 665 33.5 c 128,-1,8
 586 0 586 0 500 0 c 128,-1,9
 414 0 414 0 335 33.5 c 128,-1,10
 256 67 256 67 199.5 124 c 128,-1,11
 143 181 143 181 109.5 259.5 c 128,-1,12
 76 338 76 338 76 424 c 128,-1,13
 76 510 76 510 109.5 589 c 128,-1,14
 143 668 143 668 199.5 724.5 c 128,-1,15
 256 781 256 781 335 814.5 c 128,-1,0
 414 848 414 848 500 848 c 128,-1,1
537 645 m 2,16,-1
 463 645 l 2,17,18
 448 645 448 645 437 634.5 c 128,-1,19
 426 624 426 624 426 608 c 2,20,-1
 426 498 l 1,21,-1
 316 498 l 2,22,23
 300 498 300 498 290 487.5 c 128,-1,24
 280 477 280 477 280 461 c 2,25,-1
 280 387 l 2,26,27
 280 372 280 372 290 361.5 c 128,-1,28
 300 351 300 351 316 351 c 2,29,-1
 426 351 l 1,30,-1
 426 240 l 2,31,32
 426 225 426 225 437 214.5 c 128,-1,33
 448 204 448 204 463 204 c 2,34,-1
 537 204 l 2,35,36
 552 204 552 204 563 214.5 c 128,-1,37
 574 225 574 225 574 240 c 2,38,-1
 574 351 l 1,39,-1
 684 351 l 2,40,41
 700 351 700 351 710 361.5 c 128,-1,42
 720 372 720 372 720 387 c 2,43,-1
 720 461 l 2,44,45
 720 477 720 477 710 487.5 c 128,-1,46
 700 498 700 498 684 498 c 2,47,-1
 574 498 l 1,48,-1
 574 608 l 2,49,50
 574 624 574 624 563 634.5 c 128,-1,51
 552 645 552 645 537 645 c 2,16,-1
EndSplineSet
EndChar

StartChar: uniF082
Encoding: 61570 61570 132
Width: 1020
GlyphClass: 2
Flags: W
LayerCount: 2
Fore
SplineSet
492 812 m 128,-1,1
 578 812 578 812 657 778.5 c 128,-1,2
 736 745 736 745 792.5 688.5 c 128,-1,3
 849 632 849 632 882.5 553 c 128,-1,4
 916 474 916 474 916 388 c 128,-1,5
 916 302 916 302 882.5 223.5 c 128,-1,6
 849 145 849 145 792.5 88 c 128,-1,7
 736 31 736 31 657 -2.5 c 128,-1,8
 578 -36 578 -36 492 -36 c 128,-1,9
 406 -36 406 -36 327 -2.5 c 128,-1,10
 248 31 248 31 191.5 88 c 128,-1,11
 135 145 135 145 101.5 223.5 c 128,-1,12
 68 302 68 302 68 388 c 128,-1,13
 68 474 68 474 101.5 553 c 128,-1,14
 135 632 135 632 191.5 688.5 c 128,-1,15
 248 745 248 745 327 778.5 c 128,-1,0
 406 812 406 812 492 812 c 128,-1,1
676 462 m 2,16,-1
 308 462 l 2,17,18
 292 462 292 462 282 451.5 c 128,-1,19
 272 441 272 441 272 425 c 2,20,-1
 272 351 l 2,21,22
 272 336 272 336 282 325.5 c 128,-1,23
 292 315 292 315 308 315 c 2,24,-1
 676 315 l 2,25,26
 692 315 692 315 702 325.5 c 128,-1,27
 712 336 712 336 712 351 c 2,28,-1
 712 425 l 2,29,30
 712 441 712 441 702 451.5 c 128,-1,31
 692 462 692 462 676 462 c 2,16,-1
EndSplineSet
EndChar

StartChar: uniF083
Encoding: 61571 61571 133
Width: 1023
GlyphClass: 2
Flags: W
LayerCount: 2
Fore
SplineSet
73 363 m 2,0,-1
 439 662 l 2,1,2
 450 671 450 671 458 667.5 c 128,-1,3
 466 664 466 664 466 650 c 2,4,-1
 466 446 l 1,5,-1
 851 446 l 2,6,7
 866 446 866 446 876 436 c 128,-1,8
 886 426 886 426 886 411 c 2,9,-1
 886 271 l 2,10,11
 886 256 886 256 876 246 c 128,-1,12
 866 236 866 236 851 236 c 2,13,-1
 466 236 l 1,14,-1
 466 32 l 2,15,16
 466 18 466 18 458 14.5 c 128,-1,17
 450 11 450 11 439 20 c 2,18,-1
 73 319 l 2,19,20
 62 328 62 328 62 341 c 128,-1,21
 62 354 62 354 73 363 c 2,0,-1
EndSplineSet
EndChar

StartChar: uniF084
Encoding: 61572 61572 134
Width: 1016
GlyphClass: 2
Flags: W
LayerCount: 2
Fore
SplineSet
563 660 m 2,0,-1
 929 361 l 2,1,2
 940 352 940 352 940 339 c 128,-1,3
 940 326 940 326 929 317 c 2,4,-1
 563 18 l 2,5,6
 552 9 552 9 544 12.5 c 128,-1,7
 536 16 536 16 536 30 c 2,8,-1
 536 234 l 1,9,-1
 151 234 l 2,10,11
 136 234 136 234 126 244 c 128,-1,12
 116 254 116 254 116 269 c 2,13,-1
 116 409 l 2,14,15
 116 424 116 424 126 434 c 128,-1,16
 136 444 136 444 151 444 c 2,17,-1
 536 444 l 1,18,-1
 536 648 l 2,19,20
 536 662 536 662 544 665.5 c 128,-1,21
 552 669 552 669 563 660 c 2,0,-1
EndSplineSet
EndChar

StartChar: uniF085
Encoding: 61573 61573 135
Width: 1035
GlyphClass: 2
Flags: W
LayerCount: 2
Fore
SplineSet
571 707 m 2,0,-1
 870 341 l 2,1,2
 879 330 879 330 875.5 322 c 128,-1,3
 872 314 872 314 858 314 c 2,4,-1
 654 314 l 1,5,-1
 654 -71 l 2,6,7
 654 -86 654 -86 644 -96 c 128,-1,8
 634 -106 634 -106 619 -106 c 2,9,-1
 479 -106 l 2,10,11
 464 -106 464 -106 454 -96 c 128,-1,12
 444 -86 444 -86 444 -71 c 2,13,-1
 444 314 l 1,14,-1
 240 314 l 2,15,16
 226 314 226 314 222.5 322 c 128,-1,17
 219 330 219 330 228 341 c 2,18,-1
 527 707 l 2,19,20
 536 718 536 718 549 718 c 128,-1,21
 562 718 562 718 571 707 c 2,0,-1
EndSplineSet
EndChar

StartChar: uniF086
Encoding: 61574 61574 136
Width: 1035
GlyphClass: 2
Flags: W
LayerCount: 2
Fore
SplineSet
453 700 m 2,0,-1
 593 700 l 2,1,2
 608 700 608 700 618 690 c 128,-1,3
 628 680 628 680 628 665 c 2,4,-1
 628 280 l 1,5,-1
 832 280 l 2,6,7
 846 280 846 280 849.5 272 c 128,-1,8
 853 264 853 264 844 253 c 2,9,-1
 545 -113 l 2,10,11
 536 -124 536 -124 523 -124 c 128,-1,12
 510 -124 510 -124 500 -113 c 2,13,-1
 202 253 l 2,14,15
 192 264 192 264 195.5 272 c 128,-1,16
 199 280 199 280 214 280 c 2,17,-1
 418 280 l 1,18,-1
 418 665 l 2,19,20
 418 680 418 680 428 690 c 128,-1,21
 438 700 438 700 453 700 c 2,0,-1
EndSplineSet
EndChar

StartChar: uniF087
Encoding: 61575 61575 137
Width: 988
GlyphClass: 2
Flags: W
LayerCount: 2
Fore
SplineSet
1035 335 m 128,-1,1
 1035 322 1035 322 1026 312 c 2,2,-1
 898 184 l 2,3,4
 888 175 888 175 875 175 c 128,-1,5
 862 175 862 175 852.5 184.5 c 128,-1,6
 843 194 843 194 843 207 c 2,7,-1
 843 271 l 1,8,-1
 651 271 l 1,9,-1
 651 79 l 1,10,-1
 715 79 l 2,11,12
 728 79 728 79 737.5 69.5 c 128,-1,13
 747 60 747 60 747 47 c 128,-1,14
 747 34 747 34 738 24 c 2,15,-1
 610 -104 l 2,16,17
 600 -113 600 -113 587 -113 c 128,-1,18
 574 -113 574 -113 564 -104 c 2,19,-1
 436 24 l 2,20,21
 427 34 427 34 427 47 c 128,-1,22
 427 60 427 60 436.5 69.5 c 128,-1,23
 446 79 446 79 459 79 c 2,24,-1
 523 79 l 1,25,-1
 523 271 l 1,26,-1
 331 271 l 1,27,-1
 331 207 l 2,28,29
 331 194 331 194 321.5 184.5 c 128,-1,30
 312 175 312 175 299 175 c 128,-1,31
 286 175 286 175 276 184 c 2,32,-1
 148 312 l 2,33,34
 139 322 139 322 139 335 c 128,-1,35
 139 348 139 348 148 358 c 2,36,-1
 276 486 l 2,37,38
 286 495 286 495 299 495 c 128,-1,39
 312 495 312 495 321.5 485.5 c 128,-1,40
 331 476 331 476 331 463 c 2,41,-1
 331 399 l 1,42,-1
 523 399 l 1,43,-1
 523 591 l 1,44,-1
 459 591 l 2,45,46
 446 591 446 591 436.5 600.5 c 128,-1,47
 427 610 427 610 427 623 c 128,-1,48
 427 636 427 636 436 646 c 2,49,-1
 564 774 l 2,50,51
 574 783 574 783 587 783 c 128,-1,52
 600 783 600 783 610 774 c 2,53,-1
 738 646 l 2,54,55
 747 636 747 636 747 623 c 128,-1,56
 747 610 747 610 737.5 600.5 c 128,-1,57
 728 591 728 591 715 591 c 2,58,-1
 651 591 l 1,59,-1
 651 399 l 1,60,-1
 843 399 l 1,61,-1
 843 463 l 2,62,63
 843 476 843 476 852.5 485.5 c 128,-1,64
 862 495 862 495 875 495 c 128,-1,65
 888 495 888 495 898 486 c 2,66,-1
 1026 358 l 2,67,0
 1035 348 1035 348 1035 335 c 128,-1,1
EndSplineSet
EndChar

StartChar: uniF088
Encoding: 61576 61576 138
Width: 512
GlyphClass: 2
Flags: W
LayerCount: 2
Fore
SplineSet
671 94 m 2,0,1
 679 94 679 94 684.5 88.5 c 128,-1,2
 690 83 690 83 690 75 c 2,3,-1
 690 36 l 2,4,5
 690 28 690 28 684.5 22.5 c 128,-1,6
 679 17 679 17 671 17 c 2,7,-1
 -110 17 l 2,8,9
 -118 17 -118 17 -123.5 22.5 c 128,-1,10
 -129 28 -129 28 -129 36 c 2,11,-1
 -129 612 l 2,12,13
 -129 620 -129 620 -123.5 626 c 128,-1,14
 -118 632 -118 632 -110 632 c 2,15,-1
 -71 632 l 2,16,17
 -63 632 -63 632 -57.5 626 c 128,-1,18
 -52 620 -52 620 -52 612 c 2,19,-1
 -52 94 l 1,20,-1
 671 94 l 2,0,1
102 190 m 2,21,-1
 102 305 l 2,22,23
 102 313 102 313 96 318.5 c 128,-1,24
 90 324 90 324 82 324 c 2,25,-1
 44 324 l 2,26,27
 36 324 36 324 30.5 318.5 c 128,-1,28
 25 313 25 313 25 305 c 2,29,-1
 25 190 l 2,30,31
 25 182 25 182 30.5 176.5 c 128,-1,32
 36 171 36 171 44 171 c 2,33,-1
 82 171 l 2,34,35
 90 171 90 171 96 176.5 c 128,-1,36
 102 182 102 182 102 190 c 2,21,-1
255 190 m 2,37,-1
 255 510 l 2,38,39
 255 518 255 518 249.5 523.5 c 128,-1,40
 244 529 244 529 236 529 c 2,41,-1
 198 529 l 2,42,43
 190 529 190 529 184 523.5 c 128,-1,44
 178 518 178 518 178 510 c 2,45,-1
 178 190 l 2,46,47
 178 182 178 182 184 176.5 c 128,-1,48
 190 171 190 171 198 171 c 2,49,-1
 236 171 l 2,50,51
 244 171 244 171 249.5 176.5 c 128,-1,52
 255 182 255 182 255 190 c 2,37,-1
409 190 m 2,53,-1
 409 408 l 2,54,55
 409 416 409 416 403.5 421.5 c 128,-1,56
 398 427 398 427 390 427 c 2,57,-1
 351 427 l 2,58,59
 343 427 343 427 337.5 421.5 c 128,-1,60
 332 416 332 416 332 408 c 2,61,-1
 332 190 l 2,62,63
 332 182 332 182 337.5 176.5 c 128,-1,64
 343 171 343 171 351 171 c 2,65,-1
 390 171 l 2,66,67
 398 171 398 171 403.5 176.5 c 128,-1,68
 409 182 409 182 409 190 c 2,53,-1
562 190 m 2,69,-1
 562 561 l 2,70,71
 562 569 562 569 556.5 574.5 c 128,-1,72
 551 580 551 580 543 580 c 2,73,-1
 505 580 l 2,74,75
 497 580 497 580 491.5 574.5 c 128,-1,76
 486 569 486 569 486 561 c 2,77,-1
 486 190 l 2,78,79
 486 182 486 182 491.5 176.5 c 128,-1,80
 497 171 497 171 505 171 c 2,81,-1
 543 171 l 2,82,83
 551 171 551 171 556.5 176.5 c 128,-1,84
 562 182 562 182 562 190 c 2,69,-1
EndSplineSet
EndChar

StartChar: uniF089
Encoding: 61577 61577 139
Width: 800
GlyphClass: 2
Flags: W
LayerCount: 2
Fore
SplineSet
0 700 m 1,0,-1
 100 700 l 1,1,-1
 100 100 l 1,2,-1
 800 100 l 1,3,-1
 800 0 l 1,4,-1
 0 0 l 1,5,-1
 0 700 l 1,0,-1
500 700 m 1,6,-1
 700 700 l 1,7,-1
 700 200 l 1,8,-1
 500 200 l 1,9,-1
 500 700 l 1,6,-1
200 500 m 1,10,-1
 400 500 l 1,11,-1
 400 200 l 1,12,-1
 200 200 l 1,13,-1
 200 500 l 1,10,-1
EndSplineSet
EndChar

